STARTFONT 2.1
COMMENT
COMMENT Converted from OpenType font "ipaexm.ttf" by "..\otf2bdf.exe 3.0".
COMMENT
FONT -FreeType-IPAexMincho-Medium-R-Normal--28-280-72-72-P-245-ISO10646-1
SIZE 28 72 72
FONTBOUNDINGBOX 35 34 -7 -8
STARTPROPERTIES 19
FOUNDRY "FreeType"
FAMILY_NAME "IPAexMincho"
WEIGHT_NAME "Medium"
SLANT "R"
SETWIDTH_NAME "Normal"
ADD_STYLE_NAME ""
PIXEL_SIZE 28
POINT_SIZE 280
RESOLUTION_X 72
RESOLUTION_Y 72
SPACING "P"
AVERAGE_WIDTH 245
CHARSET_REGISTRY "ISO10646"
CHARSET_ENCODING "1"
FONT_ASCENT 24
FONT_DESCENT 3
COPYRIGHT "Copyright(c) Information-technology Promotion Agency, Japan (IPA), 2003-2019. You must accept "https://opensource.org/licenses/IPA/" to use this product."
_OTF_FONTFILE "ipaexm.ttf"
_OTF_PSNAME "IPAexMincho"
ENDPROPERTIES
CHARS 11691
STARTCHAR 0020
ENCODING 32
SWIDTH 285 0
DWIDTH 8 0
BBX 0 0 0 0
BITMAP
ENDCHAR
STARTCHAR 0021
ENCODING 33
SWIDTH 285 0
DWIDTH 8 0
BBX 3 20 2 0
BITMAP
60
60
60
60
60
60
60
60
60
60
60
60
20
20
00
00
00
E0
E0
E0
ENDCHAR
STARTCHAR 0022
ENCODING 34
SWIDTH 357 0
DWIDTH 10 0
BBX 6 7 2 13
BITMAP
CC
CC
CC
CC
CC
CC
CC
ENDCHAR
STARTCHAR 0023
ENCODING 35
SWIDTH 607 0
DWIDTH 17 0
BBX 14 21 2 0
BITMAP
0430
0430
0420
0C20
0C60
0C60
FFFC
0840
0840
1840
18C0
18C0
FFFC
1080
3080
3080
3180
2180
2180
6100
2000
ENDCHAR
STARTCHAR 0024
ENCODING 36
SWIDTH 607 0
DWIDTH 17 0
BBX 13 23 2 -1
BITMAP
0200
0200
1FC0
3220
6230
6230
6230
6200
7200
3A00
1E00
07C0
03E0
0270
0238
0218
E218
E218
C230
6270
3FC0
0200
0200
ENDCHAR
STARTCHAR 0025
ENCODING 37
SWIDTH 785 0
DWIDTH 22 0
BBX 19 20 2 0
BITMAP
380100
6C0300
C60200
C60400
C60C00
C61800
C61000
C62000
EC6000
784000
008780
018CC0
011860
021860
061860
0C1860
081860
101860
300CC0
200780
ENDCHAR
STARTCHAR 0026
ENCODING 38
SWIDTH 714 0
DWIDTH 20 0
BBX 18 20 2 0
BITMAP
0F8000
18C000
306000
306000
306000
304000
18C000
0F0000
0E1FC0
1E0300
330200
618200
C1C200
C0E400
C07400
C03800
C01C00
603E00
306700
1F83C0
ENDCHAR
STARTCHAR 0027
ENCODING 39
SWIDTH 214 0
DWIDTH 6 0
BBX 2 7 2 13
BITMAP
C0
C0
C0
C0
C0
C0
C0
ENDCHAR
STARTCHAR 0028
ENCODING 40
SWIDTH 357 0
DWIDTH 10 0
BBX 5 27 3 -6
BITMAP
08
18
10
30
20
60
60
60
C0
C0
C0
C0
C0
C0
C0
C0
C0
C0
40
60
60
60
20
30
10
18
08
ENDCHAR
STARTCHAR 0029
ENCODING 41
SWIDTH 357 0
DWIDTH 10 0
BBX 6 27 2 -6
BITMAP
80
40
60
20
30
10
18
18
18
0C
0C
0C
0C
0C
0C
0C
0C
0C
18
18
18
10
30
20
60
40
80
ENDCHAR
STARTCHAR 002A
ENCODING 42
SWIDTH 250 0
DWIDTH 7 0
BBX 7 7 0 13
BITMAP
10
D6
7C
10
7C
D2
10
ENDCHAR
STARTCHAR 002B
ENCODING 43
SWIDTH 678 0
DWIDTH 19 0
BBX 15 15 2 1
BITMAP
0100
0100
0100
0100
0100
0100
0100
FFFE
0100
0100
0100
0100
0100
0100
0100
ENDCHAR
STARTCHAR 002C
ENCODING 44
SWIDTH 250 0
DWIDTH 7 0
BBX 3 6 2 -3
BITMAP
E0
E0
E0
60
40
C0
ENDCHAR
STARTCHAR 002D
ENCODING 45
SWIDTH 285 0
DWIDTH 8 0
BBX 6 2 1 7
BITMAP
FC
FC
ENDCHAR
STARTCHAR 002E
ENCODING 46
SWIDTH 250 0
DWIDTH 7 0
BBX 3 3 2 0
BITMAP
E0
E0
E0
ENDCHAR
STARTCHAR 002F
ENCODING 47
SWIDTH 500 0
DWIDTH 14 0
BBX 10 25 2 -5
BITMAP
0040
00C0
0080
0180
0180
0100
0300
0200
0200
0600
0400
0C00
0800
0800
1800
1000
1000
3000
2000
6000
4000
4000
C000
8000
8000
ENDCHAR
STARTCHAR 0030
ENCODING 48
SWIDTH 607 0
DWIDTH 17 0
BBX 14 20 2 0
BITMAP
0F80
1860
3030
6010
6018
6018
C00C
C00C
C00C
C00C
C00C
C00C
C00C
C00C
6018
6018
6018
3030
1860
0F80
ENDCHAR
STARTCHAR 0031
ENCODING 49
SWIDTH 607 0
DWIDTH 17 0
BBX 10 21 4 0
BITMAP
0400
3C00
FC00
0C00
0C00
0C00
0C00
0C00
0C00
0C00
0C00
0C00
0C00
0C00
0C00
0C00
0C00
0C00
0C00
1C00
FFC0
ENDCHAR
STARTCHAR 0032
ENCODING 50
SWIDTH 607 0
DWIDTH 17 0
BBX 13 20 2 0
BITMAP
0FC0
3060
2030
6018
7018
7018
0018
0030
0070
00E0
0180
0300
0400
1800
1008
2008
4008
4018
FFF8
FFF8
ENDCHAR
STARTCHAR 0033
ENCODING 51
SWIDTH 607 0
DWIDTH 17 0
BBX 13 20 2 0
BITMAP
0F80
30E0
4060
7030
7030
0030
0030
0060
01C0
0F80
0060
0030
0018
0018
E018
E018
E038
C030
60E0
1F80
ENDCHAR
STARTCHAR 0034
ENCODING 52
SWIDTH 607 0
DWIDTH 17 0
BBX 15 20 1 0
BITMAP
0030
0070
0070
00B0
0130
0230
0630
0430
0830
1030
3030
6030
4030
FFFE
FFFE
0030
0030
0030
0070
01FC
ENDCHAR
STARTCHAR 0035
ENCODING 53
SWIDTH 607 0
DWIDTH 17 0
BBX 12 20 3 0
BITMAP
7FE0
7FE0
4000
4000
4000
4000
4000
CF00
F0C0
C060
C060
0030
0030
0030
E030
E030
E060
8060
61C0
1F00
ENDCHAR
STARTCHAR 0036
ENCODING 54
SWIDTH 607 0
DWIDTH 17 0
BBX 14 20 2 0
BITMAP
07E0
1C10
3838
3038
6000
6000
E000
E7C0
C860
F010
E018
C00C
C00C
C00C
C00C
400C
6018
3018
1870
0FC0
ENDCHAR
STARTCHAR 0037
ENCODING 55
SWIDTH 607 0
DWIDTH 17 0
BBX 13 20 3 0
BITMAP
FFF8
FFF8
C010
8030
8020
8040
0040
0080
0080
0100
0100
0300
0200
0600
0600
0600
0E00
0E00
0C00
0C00
ENDCHAR
STARTCHAR 0038
ENCODING 56
SWIDTH 607 0
DWIDTH 17 0
BBX 13 22 2 -1
BITMAP
0FC0
1860
3030
6018
6018
6018
6018
7030
3820
1CC0
0780
1FC0
30E0
6030
C038
C018
C018
C018
C018
6030
3060
0F80
ENDCHAR
STARTCHAR 0039
ENCODING 57
SWIDTH 607 0
DWIDTH 17 0
BBX 13 20 2 0
BITMAP
0F80
30E0
6020
E030
C010
C018
C018
C018
C038
6038
30D8
1F98
0018
0018
0030
0030
7020
7060
20C0
1F00
ENDCHAR
STARTCHAR 003A
ENCODING 58
SWIDTH 285 0
DWIDTH 8 0
BBX 3 14 3 0
BITMAP
E0
E0
E0
00
00
00
00
00
00
00
00
E0
E0
E0
ENDCHAR
STARTCHAR 003B
ENCODING 59
SWIDTH 285 0
DWIDTH 8 0
BBX 4 17 2 -3
BITMAP
70
70
70
00
00
00
00
00
00
00
70
70
70
30
20
E0
80
ENDCHAR
STARTCHAR 003C
ENCODING 60
SWIDTH 678 0
DWIDTH 19 0
BBX 15 15 2 2
BITMAP
0006
003C
00F0
0380
0E00
3800
E000
C000
3800
0E00
0380
00E0
0038
000E
0002
ENDCHAR
STARTCHAR 003D
ENCODING 61
SWIDTH 678 0
DWIDTH 19 0
BBX 15 6 2 6
BITMAP
FFFE
0000
0000
0000
0000
FFFE
ENDCHAR
STARTCHAR 003E
ENCODING 62
SWIDTH 678 0
DWIDTH 19 0
BBX 15 15 2 2
BITMAP
C000
7000
1E00
0380
00E0
0038
000E
0006
0038
00E0
0380
0E00
3800
E000
8000
ENDCHAR
STARTCHAR 003F
ENCODING 63
SWIDTH 500 0
DWIDTH 14 0
BBX 12 20 1 0
BITMAP
1F80
70C0
4060
C030
E030
E030
0030
0060
00C0
0180
0300
0600
0400
0400
0400
0000
0000
0E00
0E00
0E00
ENDCHAR
STARTCHAR 0040
ENCODING 64
SWIDTH 892 0
DWIDTH 25 0
BBX 21 20 2 0
BITMAP
00FE00
070180
0C0040
183820
30E710
61C310
618208
C30208
C30208
C70608
C60608
C60C18
C60C10
C61C20
662C40
63CF80
300000
180040
0E0180
01FE00
ENDCHAR
STARTCHAR 0041
ENCODING 65
SWIDTH 714 0
DWIDTH 20 0
BBX 21 20 0 0
BITMAP
002000
006000
007000
00F000
009000
009800
011800
010C00
030C00
020400
020600
040600
07FF00
0C0300
080300
080180
180180
1000C0
3000C0
FE07F8
ENDCHAR
STARTCHAR 0042
ENCODING 66
SWIDTH 714 0
DWIDTH 20 0
BBX 17 20 1 0
BITMAP
FFF000
180C00
180600
180300
180300
180300
180300
180600
181C00
1FE000
181C00
180300
180380
180180
180180
180180
180180
180300
1C0E00
FFF800
ENDCHAR
STARTCHAR 0043
ENCODING 67
SWIDTH 714 0
DWIDTH 20 0
BBX 17 20 2 0
BITMAP
03FC80
0E0F80
180380
300180
600080
600080
600000
C00000
C00000
C00000
C00000
C00000
C00000
C00000
600080
600080
300100
180300
0E0E00
03F800
ENDCHAR
STARTCHAR 0044
ENCODING 68
SWIDTH 785 0
DWIDTH 22 0
BBX 19 20 1 0
BITMAP
FFF800
180E00
180300
180180
1800C0
1800C0
180060
180060
180060
180060
180060
180060
180060
180060
1800C0
1800C0
180180
180300
180E00
FFF800
ENDCHAR
STARTCHAR 0045
ENCODING 69
SWIDTH 714 0
DWIDTH 20 0
BBX 17 20 1 0
BITMAP
FFFF00
180300
180100
180100
180100
180080
181000
181000
183000
1FF000
183000
181000
181000
180000
180080
180080
180080
180180
180380
FFFF80
ENDCHAR
STARTCHAR 0046
ENCODING 70
SWIDTH 642 0
DWIDTH 18 0
BBX 17 20 1 0
BITMAP
FFFF00
180300
180100
180100
180080
180000
181000
181000
183000
1FF000
183000
181000
181000
180000
180000
180000
180000
180000
180000
FF0000
ENDCHAR
STARTCHAR 0047
ENCODING 71
SWIDTH 785 0
DWIDTH 22 0
BBX 20 20 2 0
BITMAP
03FC80
0E0F80
180380
300180
600080
600080
400000
C00000
C00000
C00000
C00000
C00FF0
C00180
C00180
600180
600180
300180
180380
0E0680
03F880
ENDCHAR
STARTCHAR 0048
ENCODING 72
SWIDTH 821 0
DWIDTH 23 0
BBX 21 20 1 0
BITMAP
FF07F8
1801C0
1800C0
1800C0
1800C0
1800C0
1800C0
1800C0
1800C0
1FFFC0
1800C0
1800C0
1800C0
1800C0
1800C0
1800C0
1800C0
1800C0
1800C0
FF07F8
ENDCHAR
STARTCHAR 0049
ENCODING 73
SWIDTH 392 0
DWIDTH 11 0
BBX 8 20 1 0
BITMAP
FF
18
18
18
18
18
18
18
18
18
18
18
18
18
18
18
18
18
18
FF
ENDCHAR
STARTCHAR 004A
ENCODING 74
SWIDTH 464 0
DWIDTH 13 0
BBX 12 20 0 0
BITMAP
0FF0
0180
0180
0180
0180
0180
0180
0180
0180
0180
0180
0180
0180
0180
0180
0180
E180
E180
C300
3E00
ENDCHAR
STARTCHAR 004B
ENCODING 75
SWIDTH 714 0
DWIDTH 20 0
BBX 19 20 1 0
BITMAP
FF1FC0
380700
180400
180800
181000
182000
184000
188000
190000
1B8000
1CC000
18E000
187000
183000
181800
180C00
180600
180700
180380
FF1FE0
ENDCHAR
STARTCHAR 004C
ENCODING 76
SWIDTH 607 0
DWIDTH 17 0
BBX 16 20 1 0
BITMAP
FF00
1800
1800
1800
1800
1800
1800
1800
1800
1800
1800
1800
1800
1800
1801
1801
1803
1802
180E
FFFE
ENDCHAR
STARTCHAR 004D
ENCODING 77
SWIDTH 964 0
DWIDTH 27 0
BBX 25 20 1 0
BITMAP
FC001F80
1C003C00
16002C00
16002C00
16006C00
13004C00
1300CC00
1180CC00
11808C00
11818C00
10C10C00
10C10C00
10630C00
10620C00
10660C00
10340C00
10340C00
103C0C00
10180C00
FE187F80
ENDCHAR
STARTCHAR 004E
ENCODING 78
SWIDTH 821 0
DWIDTH 23 0
BBX 21 20 1 -1
BITMAP
F803F8
1C0040
1E0040
160040
130040
138040
11C040
10C040
106040
107040
103040
101840
101C40
100E40
100640
100340
1003C0
1001C0
1000C0
FE0040
ENDCHAR
STARTCHAR 004F
ENCODING 79
SWIDTH 785 0
DWIDTH 22 0
BBX 19 20 2 0
BITMAP
03F800
0E0E00
180300
300180
6000C0
6000C0
400040
C00060
C00060
C00060
C00060
C00060
C00060
400040
6000C0
6000C0
300180
180300
0E0E00
03F800
ENDCHAR
STARTCHAR 0050
ENCODING 80
SWIDTH 642 0
DWIDTH 18 0
BBX 16 20 1 0
BITMAP
FFF0
180C
1806
1803
1803
1803
1803
1803
1806
181C
1FF0
1800
1800
1800
1800
1800
1800
1800
1800
FF00
ENDCHAR
STARTCHAR 0051
ENCODING 81
SWIDTH 785 0
DWIDTH 22 0
BBX 20 23 2 -3
BITMAP
03F000
1E0E00
380300
300180
600080
6000C0
E000C0
C00060
C00060
C00060
C00060
C00060
C00060
400060
61E0C0
6330C0
221980
120F00
0B0E00
05FE00
020610
000310
0001E0
ENDCHAR
STARTCHAR 0052
ENCODING 82
SWIDTH 678 0
DWIDTH 19 0
BBX 19 20 1 0
BITMAP
FFF000
180C00
180600
180300
180300
180300
180300
180600
180E00
18F800
19E000
183000
181800
181C00
180C00
180E00
180600
180700
180380
FF03E0
ENDCHAR
STARTCHAR 0053
ENCODING 83
SWIDTH 607 0
DWIDTH 17 0
BBX 14 20 2 1
BITMAP
1FC8
3078
6018
C018
C008
C008
E000
7000
3C00
0F80
03E0
0078
0018
801C
800C
800C
C00C
E018
F830
9FC0
ENDCHAR
STARTCHAR 0054
ENCODING 84
SWIDTH 607 0
DWIDTH 17 0
BBX 18 20 0 0
BITMAP
7FFF80
60C180
40C0C0
40C0C0
80C040
00C000
00C000
00C000
00C000
00C000
00C000
00C000
00C000
00C000
00C000
00C000
00C000
00C000
00C000
07F800
ENDCHAR
STARTCHAR 0055
ENCODING 85
SWIDTH 785 0
DWIDTH 22 0
BBX 21 20 1 0
BITMAP
FF03F8
180040
180040
180040
180040
180040
180040
180040
180040
180040
180040
180040
180040
180040
180040
1C00C0
0C0080
0E0180
070300
01FC00
ENDCHAR
STARTCHAR 0056
ENCODING 86
SWIDTH 714 0
DWIDTH 20 0
BBX 20 20 0 0
BITMAP
FE03F0
3800C0
180080
180180
0C0180
0C0100
0C0300
060200
060200
030600
030400
030400
018800
018800
009800
00D000
00D000
007000
006000
006000
ENDCHAR
STARTCHAR 0057
ENCODING 87
SWIDTH 964 0
DWIDTH 27 0
BBX 27 20 0 0
BITMAP
FE3F8FE0
380E0180
18060100
18060100
1C070300
0C070200
0C0F0200
0C0B0200
0E098600
06198400
06118400
06108C00
0330C800
0320C800
0320C800
01E07000
01C07000
01C07000
00C02000
00802000
ENDCHAR
STARTCHAR 0058
ENCODING 88
SWIDTH 714 0
DWIDTH 20 0
BBX 20 20 0 0
BITMAP
FF07F0
1C01C0
0C0100
060300
070600
030400
018800
01D800
00F000
006000
007000
00B800
019800
030C00
020600
040600
0C0300
180180
3801C0
FE07F0
ENDCHAR
STARTCHAR 0059
ENCODING 89
SWIDTH 678 0
DWIDTH 19 0
BBX 20 20 0 0
BITMAP
FF07F0
3801C0
180180
0C0300
040200
060600
030400
030C00
018800
019000
00F000
006000
006000
006000
006000
006000
006000
006000
006000
03FC00
ENDCHAR
STARTCHAR 005A
ENCODING 90
SWIDTH 642 0
DWIDTH 18 0
BBX 15 20 1 0
BITMAP
7FFE
700E
400C
4018
8030
0070
0060
00C0
01C0
0380
0300
0600
0E00
0C00
1802
3002
7002
6006
C01E
FFFE
ENDCHAR
STARTCHAR 005B
ENCODING 91
SWIDTH 357 0
DWIDTH 10 0
BBX 5 27 3 -6
BITMAP
F8
C0
C0
C0
C0
C0
C0
C0
C0
C0
C0
C0
C0
C0
C0
C0
C0
C0
C0
C0
C0
C0
C0
C0
C0
C0
F8
ENDCHAR
STARTCHAR 005C
ENCODING 92
SWIDTH 500 0
DWIDTH 14 0
BBX 10 25 2 -5
BITMAP
8000
C000
4000
6000
2000
2000
3000
1000
1000
1800
0800
0C00
0400
0400
0600
0200
0200
0300
0100
0180
0080
0080
00C0
0040
0040
ENDCHAR
STARTCHAR 005D
ENCODING 93
SWIDTH 357 0
DWIDTH 10 0
BBX 5 27 1 -6
BITMAP
F8
18
18
18
18
18
18
18
18
18
18
18
18
18
18
18
18
18
18
18
18
18
18
18
18
18
F8
ENDCHAR
STARTCHAR 005E
ENCODING 94
SWIDTH 500 0
DWIDTH 14 0
BBX 12 8 1 10
BITMAP
0600
0F00
0900
1080
30C0
6060
C030
8010
ENDCHAR
STARTCHAR 005F
ENCODING 95
SWIDTH 500 0
DWIDTH 14 0
BBX 14 1 0 -3
BITMAP
FFFC
ENDCHAR
STARTCHAR 0060
ENCODING 96
SWIDTH 500 0
DWIDTH 14 0
BBX 4 3 4 17
BITMAP
C0
60
30
ENDCHAR
STARTCHAR 0061
ENCODING 97
SWIDTH 535 0
DWIDTH 15 0
BBX 13 14 1 0
BITMAP
1F80
20C0
6060
6060
0060
01E0
1F60
7060
C060
C060
C060
C0E0
61E0
3E38
ENDCHAR
STARTCHAR 0062
ENCODING 98
SWIDTH 607 0
DWIDTH 17 0
BBX 15 21 1 -1
BITMAP
3000
F000
3000
3000
3000
3000
3000
33E0
3438
380C
300C
3006
3006
3006
3006
3006
3006
300C
380C
3618
23E0
ENDCHAR
STARTCHAR 0063
ENCODING 99
SWIDTH 535 0
DWIDTH 15 0
BBX 11 14 2 0
BITMAP
0F80
3840
6060
6060
C000
C000
C000
C000
C000
C000
6000
6020
3860
0F80
ENDCHAR
STARTCHAR 0064
ENCODING 100
SWIDTH 607 0
DWIDTH 17 0
BBX 15 21 1 0
BITMAP
0018
0078
0018
0018
0018
0018
0018
0F98
3858
6038
6018
C018
C018
C018
C018
C018
C018
6038
6038
38D8
0F9E
ENDCHAR
STARTCHAR 0065
ENCODING 101
SWIDTH 571 0
DWIDTH 16 0
BBX 12 14 2 0
BITMAP
0F80
30C0
6060
4030
C030
C030
FFF0
C000
C000
C000
4000
6030
3060
0F80
ENDCHAR
STARTCHAR 0066
ENCODING 102
SWIDTH 321 0
DWIDTH 9 0
BBX 11 20 0 0
BITMAP
07C0
0CE0
18E0
1800
1800
1800
FF80
1800
1800
1800
1800
1800
1800
1800
1800
1800
1800
1800
1800
7F00
ENDCHAR
STARTCHAR 0067
ENCODING 103
SWIDTH 535 0
DWIDTH 15 0
BBX 14 21 1 -5
BITMAP
001C
003C
0FC0
38E0
3070
6030
6030
6030
2070
30E0
1F80
3000
3000
1FC0
1FF0
6078
C018
C018
C018
7070
1FC0
ENDCHAR
STARTCHAR 0068
ENCODING 104
SWIDTH 607 0
DWIDTH 17 0
BBX 15 21 1 0
BITMAP
3000
F000
3000
3000
3000
3000
3000
33E0
3430
3838
3018
3018
3018
3018
3018
3018
3018
3018
3018
3018
FC7E
ENDCHAR
STARTCHAR 0069
ENCODING 105
SWIDTH 285 0
DWIDTH 8 0
BBX 6 20 2 0
BITMAP
38
38
38
00
00
00
F0
30
30
30
30
30
30
30
30
30
30
30
30
FC
ENDCHAR
STARTCHAR 006A
ENCODING 106
SWIDTH 321 0
DWIDTH 9 0
BBX 8 26 -2 -6
BITMAP
07
07
07
00
00
00
1E
06
06
06
06
06
06
06
06
06
06
06
06
06
06
06
E6
E6
CC
78
ENDCHAR
STARTCHAR 006B
ENCODING 107
SWIDTH 571 0
DWIDTH 16 0
BBX 15 21 1 0
BITMAP
3000
F000
3000
3000
3000
3000
3000
30FC
3030
3060
3080
3100
3200
3F00
3B80
3180
30C0
3060
3070
3038
FE7E
ENDCHAR
STARTCHAR 006C
ENCODING 108
SWIDTH 285 0
DWIDTH 8 0
BBX 6 20 1 1
BITMAP
F0
30
30
30
30
30
30
30
30
30
30
30
30
30
30
30
30
30
30
FC
ENDCHAR
STARTCHAR 006D
ENCODING 109
SWIDTH 892 0
DWIDTH 25 0
BBX 22 14 2 0
BITMAP
E7C3C0
2C6460
383830
303030
303030
303030
303030
303030
303030
303030
303030
303030
303030
FCFCFC
ENDCHAR
STARTCHAR 006E
ENCODING 110
SWIDTH 642 0
DWIDTH 18 0
BBX 15 14 2 0
BITMAP
E3E0
2C30
3838
3018
3018
3018
3018
3018
3018
3018
3018
3018
3018
FC7E
ENDCHAR
STARTCHAR 006F
ENCODING 111
SWIDTH 571 0
DWIDTH 16 0
BBX 13 14 2 0
BITMAP
0F80
38E0
6030
6030
C018
C018
C018
C018
C018
C018
6030
6030
3860
0F80
ENDCHAR
STARTCHAR 0070
ENCODING 112
SWIDTH 607 0
DWIDTH 17 0
BBX 15 19 1 -4
BITMAP
F3E0
3438
380C
300C
3006
3006
3006
3006
3006
3006
300C
380C
3418
33E0
3000
3000
3000
3000
FE00
ENDCHAR
STARTCHAR 0071
ENCODING 113
SWIDTH 607 0
DWIDTH 17 0
BBX 15 19 1 -4
BITMAP
0F88
3878
6038
6018
C018
C018
C018
C018
C018
C018
6038
6038
3858
0F98
0018
0018
0018
0018
007E
ENDCHAR
STARTCHAR 0072
ENCODING 114
SWIDTH 392 0
DWIDTH 11 0
BBX 10 14 2 0
BITMAP
E3C0
2CC0
3800
3800
3000
3000
3000
3000
3000
3000
3000
3000
3000
FE00
ENDCHAR
STARTCHAR 0073
ENCODING 115
SWIDTH 464 0
DWIDTH 13 0
BBX 10 14 2 0
BITMAP
3F80
6380
C080
C080
C000
7000
3E00
0F80
01C0
80C0
80C0
C0C0
E180
9F00
ENDCHAR
STARTCHAR 0074
ENCODING 116
SWIDTH 321 0
DWIDTH 9 0
BBX 8 18 1 0
BITMAP
10
10
30
30
FF
30
30
30
30
30
30
30
30
30
30
30
39
1E
ENDCHAR
STARTCHAR 0075
ENCODING 117
SWIDTH 607 0
DWIDTH 17 0
BBX 15 14 1 0
BITMAP
F078
3018
3018
3018
3018
3018
3018
3018
3018
3018
3018
3038
1858
0F9E
ENDCHAR
STARTCHAR 0076
ENCODING 118
SWIDTH 535 0
DWIDTH 15 0
BBX 15 14 0 0
BITMAP
FC3E
3008
3008
1810
1810
0810
0C20
0C20
0440
0640
0280
0380
0380
0100
ENDCHAR
STARTCHAR 0077
ENCODING 119
SWIDTH 785 0
DWIDTH 22 0
BBX 22 14 0 0
BITMAP
FCFC7C
303010
303010
103020
183820
182820
084840
0C4C40
0C4440
048680
068680
070300
030300
030300
ENDCHAR
STARTCHAR 0078
ENCODING 120
SWIDTH 535 0
DWIDTH 15 0
BBX 15 14 0 0
BITMAP
FC7C
3810
1830
0C60
0640
0680
0300
0380
04C0
08C0
0860
1070
2038
F87E
ENDCHAR
STARTCHAR 0079
ENCODING 121
SWIDTH 535 0
DWIDTH 15 0
BBX 15 19 0 -5
BITMAP
FC3E
3008
3008
1810
1810
0C20
0C20
0C20
0640
0640
0380
0380
0180
0100
0100
0200
0200
3C00
3C00
ENDCHAR
STARTCHAR 007A
ENCODING 122
SWIDTH 464 0
DWIDTH 13 0
BBX 11 14 1 0
BITMAP
7FE0
40C0
C1C0
8180
0300
0600
0600
0C00
1800
3820
3020
6020
C060
FFE0
ENDCHAR
STARTCHAR 007B
ENCODING 123
SWIDTH 321 0
DWIDTH 9 0
BBX 7 27 1 -5
BITMAP
1E
30
30
30
30
30
30
30
30
30
30
20
E0
E0
20
30
30
30
30
30
30
30
30
30
30
18
06
ENDCHAR
STARTCHAR 007C
ENCODING 124
SWIDTH 178 0
DWIDTH 5 0
BBX 1 26 2 -5
BITMAP
80
80
80
80
80
80
80
80
80
80
80
80
80
80
80
80
80
80
80
80
80
80
80
80
80
80
ENDCHAR
STARTCHAR 007D
ENCODING 125
SWIDTH 321 0
DWIDTH 9 0
BBX 7 27 1 -5
BITMAP
F0
18
18
18
18
18
18
18
18
18
18
18
0E
0E
18
18
18
18
18
18
18
18
18
18
18
30
C0
ENDCHAR
STARTCHAR 007E
ENCODING 126
SWIDTH 500 0
DWIDTH 14 0
BBX 7 3 4 17
BITMAP
E0
B2
0C
ENDCHAR
STARTCHAR 00A0
ENCODING 160
SWIDTH 285 0
DWIDTH 8 0
BBX 0 0 0 0
BITMAP
ENDCHAR
STARTCHAR 00A1
ENCODING 161
SWIDTH 285 0
DWIDTH 8 0
BBX 3 20 2 0
BITMAP
E0
E0
E0
00
00
00
40
60
60
60
60
60
60
60
60
60
60
60
60
60
ENDCHAR
STARTCHAR 00A2
ENCODING 162
SWIDTH 571 0
DWIDTH 16 0
BBX 13 20 2 2
BITMAP
0080
0080
0F80
3960
3130
6170
C370
C200
C200
C600
C400
C400
6C08
6810
3820
1860
1780
1000
1000
2000
ENDCHAR
STARTCHAR 00A3
ENCODING 163
SWIDTH 750 0
DWIDTH 21 0
BBX 17 20 2 1
BITMAP
01F000
070C00
060E00
0C0E00
0C0E00
0C0000
0C0000
060000
060000
3FF800
030000
030000
038000
018000
7D8000
C78000
81C080
81F100
C33F00
3C0E00
ENDCHAR
STARTCHAR 00A4
ENCODING 164
SWIDTH 607 0
DWIDTH 17 0
BBX 13 12 2 3
BITMAP
CF98
7870
2010
6010
4008
4008
4008
4008
6010
2010
7870
CF98
ENDCHAR
STARTCHAR 00A5
ENCODING 165
SWIDTH 607 0
DWIDTH 17 0
BBX 18 20 0 0
BITMAP
FE0FC0
380300
180200
0C0600
0C0C00
060800
031000
033000
01A000
3FFF00
00C000
00C000
3FFF00
00C000
00C000
00C000
00C000
00C000
01E000
07F800
ENDCHAR
STARTCHAR 00A6
ENCODING 166
SWIDTH 178 0
DWIDTH 5 0
BBX 1 26 2 -5
BITMAP
80
80
80
80
80
80
80
80
80
80
80
00
00
00
00
80
80
80
80
80
80
80
80
80
80
80
ENDCHAR
STARTCHAR 00A7
ENCODING 167
SWIDTH 678 0
DWIDTH 19 0
BBX 11 26 4 -2
BITMAP
1F00
7080
6040
C0E0
C0E0
C0E0
E000
7000
3C00
2F00
43C0
C1C0
C0E0
E060
7060
7860
1EC0
0780
03C0
00E0
E060
E060
C060
40C0
61C0
1F00
ENDCHAR
STARTCHAR 00A8
ENCODING 168
SWIDTH 500 0
DWIDTH 14 0
BBX 8 3 3 17
BITMAP
E7
E7
E7
ENDCHAR
STARTCHAR 00A9
ENCODING 169
SWIDTH 1000 0
DWIDTH 28 0
BBX 23 22 3 -1
BITMAP
00FE00
030180
0C0060
187C30
20C298
21818C
430084
420084
860002
860002
860002
860002
860002
8600C2
430084
418184
60C308
207C08
100030
0C0060
030180
00FE00
ENDCHAR
STARTCHAR 00AA
ENCODING 170
SWIDTH 428 0
DWIDTH 12 0
BBX 9 11 2 9
BITMAP
7C00
C600
C600
3E00
6600
C600
C600
CB80
7000
0000
FF00
ENDCHAR
STARTCHAR 00AB
ENCODING 171
SWIDTH 500 0
DWIDTH 14 0
BBX 10 11 2 3
BITMAP
0840
1080
3180
6100
6300
C600
6300
6100
3180
1080
0840
ENDCHAR
STARTCHAR 00AC
ENCODING 172
SWIDTH 678 0
DWIDTH 19 0
BBX 13 6 3 4
BITMAP
FFF8
0008
0008
0008
0008
0008
ENDCHAR
STARTCHAR 00AD
ENCODING 173
SWIDTH 678 0
DWIDTH 19 0
BBX 15 1 2 9
BITMAP
FFFE
ENDCHAR
STARTCHAR 00AE
ENCODING 174
SWIDTH 1000 0
DWIDTH 28 0
BBX 23 23 3 -2
BITMAP
00FE00
030180
0C0060
180030
37FE18
218308
418184
418184
818182
818302
819E02
81F802
818E02
818602
818302
418304
418184
27E1C8
300018
180030
0C0060
030180
00FE00
ENDCHAR
STARTCHAR 00AF
ENCODING 175
SWIDTH 500 0
DWIDTH 14 0
BBX 8 1 3 18
BITMAP
FF
ENDCHAR
STARTCHAR 00B0
ENCODING 176
SWIDTH 285 0
DWIDTH 8 0
BBX 6 5 1 19
BITMAP
78
CC
84
CC
78
ENDCHAR
STARTCHAR 00B1
ENCODING 177
SWIDTH 678 0
DWIDTH 19 0
BBX 15 16 2 2
BITMAP
0100
0100
0100
0100
0100
0100
FFFE
0100
0100
0100
0100
0100
0100
0100
0000
FFFE
ENDCHAR
STARTCHAR 00B2
ENCODING 178
SWIDTH 357 0
DWIDTH 10 0
BBX 8 10 1 10
BITMAP
3C
46
66
66
0C
18
30
61
43
FE
ENDCHAR
STARTCHAR 00B3
ENCODING 179
SWIDTH 357 0
DWIDTH 10 0
BBX 7 10 2 10
BITMAP
7C
86
C2
02
3C
0C
C6
C6
8E
78
ENDCHAR
STARTCHAR 00B4
ENCODING 180
SWIDTH 500 0
DWIDTH 14 0
BBX 4 3 6 17
BITMAP
30
60
C0
ENDCHAR
STARTCHAR 00B6
ENCODING 182
SWIDTH 1000 0
DWIDTH 28 0
BBX 11 25 7 -2
BITMAP
1FE0
7C20
7C20
FC20
FC20
FC20
FC20
7C20
3C20
0C20
0420
0420
0420
0420
0420
0420
0420
0420
0420
0420
0420
0420
0420
0420
0420
ENDCHAR
STARTCHAR 00B7
ENCODING 183
SWIDTH 250 0
DWIDTH 7 0
BBX 3 3 2 7
BITMAP
E0
E0
E0
ENDCHAR
STARTCHAR 00B8
ENCODING 184
SWIDTH 500 0
DWIDTH 14 0
BBX 6 7 4 -6
BITMAP
20
60
3C
0C
0C
F8
80
ENDCHAR
STARTCHAR 00B9
ENCODING 185
SWIDTH 357 0
DWIDTH 10 0
BBX 5 10 2 11
BITMAP
E0
20
20
20
20
20
20
20
20
F8
ENDCHAR
STARTCHAR 00BA
ENCODING 186
SWIDTH 428 0
DWIDTH 12 0
BBX 8 11 2 9
BITMAP
3C
66
C3
C3
C3
C3
66
3C
00
00
FF
ENDCHAR
STARTCHAR 00BB
ENCODING 187
SWIDTH 500 0
DWIDTH 14 0
BBX 10 11 2 3
BITMAP
8600
4200
6100
3180
3080
18C0
3180
3180
6300
4200
8600
ENDCHAR
STARTCHAR 00BC
ENCODING 188
SWIDTH 750 0
DWIDTH 21 0
BBX 18 20 2 0
BITMAP
E00100
200300
200200
200400
200C00
201800
201000
202000
206000
F8C100
008300
010700
030D00
021900
041100
082100
187FC0
100100
200100
4007C0
ENDCHAR
STARTCHAR 00BD
ENCODING 189
SWIDTH 750 0
DWIDTH 21 0
BBX 17 20 2 0
BITMAP
E00300
200600
200400
200800
201800
201000
202000
206000
204000
F89F00
01B180
012180
023180
060380
040300
080E00
181800
101080
202080
403F80
ENDCHAR
STARTCHAR 00BE
ENCODING 190
SWIDTH 750 0
DWIDTH 21 0
BBX 18 20 2 0
BITMAP
7C0100
C20300
C20200
020400
3C0C00
0C0800
C61000
C63000
8E6000
7C4100
008300
018700
010500
020900
061100
042100
083FC0
180100
100100
2007C0
ENDCHAR
STARTCHAR 00BF
ENCODING 191
SWIDTH 500 0
DWIDTH 14 0
BBX 11 20 2 0
BITMAP
0E00
0E00
0E00
0000
0000
0600
0600
0400
0400
0800
3000
6000
6000
C0E0
C0E0
C060
C060
6040
7080
1F00
ENDCHAR
STARTCHAR 00C0
ENCODING 192
SWIDTH 714 0
DWIDTH 20 0
BBX 20 25 0 1
BITMAP
030000
018000
004000
000000
000000
006000
006000
007000
00F000
00B000
009800
011800
010C00
030C00
020C00
020600
060600
07FF00
0C0300
080100
080180
180180
1000C0
3000C0
FE07F0
ENDCHAR
STARTCHAR 00C1
ENCODING 193
SWIDTH 714 0
DWIDTH 20 0
BBX 20 25 0 1
BITMAP
000C00
001800
006000
000000
000000
006000
006000
007000
00F000
00B000
009800
011800
010C00
030C00
020C00
020600
060600
07FF00
0C0300
080100
080180
180180
1000C0
3000C0
FE07F0
ENDCHAR
STARTCHAR 00C2
ENCODING 194
SWIDTH 714 0
DWIDTH 20 0
BBX 20 25 0 0
BITMAP
006000
00F000
018C00
000000
000000
002000
006000
007000
00F000
00B000
009800
019800
010C00
030C00
020C00
020600
060600
07FF00
0C0300
080100
080180
180180
1000C0
3000C0
FE07F0
ENDCHAR
STARTCHAR 00C3
ENCODING 195
SWIDTH 714 0
DWIDTH 20 0
BBX 20 24 0 0
BITMAP
01E200
023C00
000000
000000
002000
006000
007000
00F000
00B000
009800
019800
010C00
030C00
020C00
020600
060600
07FF00
0C0300
080100
080180
180180
1000C0
3000C0
FE07F0
ENDCHAR
STARTCHAR 00C4
ENCODING 196
SWIDTH 714 0
DWIDTH 20 0
BBX 20 25 0 0
BITMAP
038E00
038E00
038E00
000000
000000
002000
006000
007000
00F000
00B000
009800
019800
010C00
030C00
020C00
020600
060600
07FF00
0C0300
080100
080180
180180
1000C0
3000C0
FE07F0
ENDCHAR
STARTCHAR 00C5
ENCODING 197
SWIDTH 714 0
DWIDTH 20 0
BBX 20 26 0 0
BITMAP
006000
009000
009000
009000
006000
000000
006000
006000
007000
00F000
00B000
009800
011800
010C00
030C00
020C00
020600
060600
07FF00
0C0300
080100
080180
180180
1000C0
3000C0
FE07F0
ENDCHAR
STARTCHAR 00C6
ENCODING 198
SWIDTH 1000 0
DWIDTH 28 0
BBX 26 20 0 0
BITMAP
00FFFF80
00160180
00160080
00260080
00260080
00460080
00460800
00860800
00861800
01FFF800
01061800
02060800
02060800
04060000
04060040
08060040
08060080
10060080
30060380
FE3FFF80
ENDCHAR
STARTCHAR 00C7
ENCODING 199
SWIDTH 714 0
DWIDTH 20 0
BBX 18 27 2 -8
BITMAP
03FC80
0E0F80
180380
300180
200080
600080
600000
C00000
C00000
C00000
C00000
C00000
C00000
C00040
6000C0
600080
300180
380300
0E0E00
07F800
00C000
008000
01F000
003800
001800
003800
03F000
ENDCHAR
STARTCHAR 00C8
ENCODING 200
SWIDTH 714 0
DWIDTH 20 0
BBX 17 25 1 1
BITMAP
060000
038000
00C000
004000
000000
FFFF00
180300
180100
180100
180100
180080
181000
181000
183000
1FF000
183000
181000
181000
180000
180080
180080
180080
180180
180380
FFFF80
ENDCHAR
STARTCHAR 00C9
ENCODING 201
SWIDTH 714 0
DWIDTH 20 0
BBX 17 25 1 1
BITMAP
001800
007000
00C000
008000
000000
FFFF00
180300
180100
180100
180100
180080
181000
181000
183000
1FF000
183000
181000
181000
180000
180080
180080
180080
180180
180380
FFFF80
ENDCHAR
STARTCHAR 00CA
ENCODING 202
SWIDTH 714 0
DWIDTH 20 0
BBX 17 25 1 1
BITMAP
00E000
01B000
061800
000000
000000
FFFF00
180300
180100
180100
180100
180080
181000
181000
183000
1FF000
183000
181000
181000
180000
180080
180080
180080
180180
180380
FFFF80
ENDCHAR
STARTCHAR 00CB
ENCODING 203
SWIDTH 714 0
DWIDTH 20 0
BBX 17 25 1 0
BITMAP
071C00
071C00
071C00
000000
000000
FFFF00
180300
180100
180100
180100
180080
181000
181000
183000
1FF000
183000
181000
181000
180000
180080
180080
180080
180180
180380
FFFF80
ENDCHAR
STARTCHAR 00CC
ENCODING 204
SWIDTH 392 0
DWIDTH 11 0
BBX 8 25 1 1
BITMAP
C0
60
30
00
00
FF
18
18
18
18
18
18
18
18
18
18
18
18
18
18
18
18
18
18
FF
ENDCHAR
STARTCHAR 00CD
ENCODING 205
SWIDTH 392 0
DWIDTH 11 0
BBX 8 25 1 1
BITMAP
03
0E
18
10
00
FF
18
18
18
18
18
18
18
18
18
18
18
18
18
18
18
18
18
18
FF
ENDCHAR
STARTCHAR 00CE
ENCODING 206
SWIDTH 392 0
DWIDTH 11 0
BBX 8 25 1 1
BITMAP
3C
66
C3
00
00
FF
18
18
18
18
18
18
18
18
18
18
18
18
18
18
18
18
18
18
FF
ENDCHAR
STARTCHAR 00CF
ENCODING 207
SWIDTH 392 0
DWIDTH 11 0
BBX 9 25 1 0
BITMAP
E380
E380
E380
0000
0000
FF00
1800
1800
1800
1800
1800
1800
1800
1800
1800
1800
1800
1800
1800
1800
1800
1800
1800
1800
FF00
ENDCHAR
STARTCHAR 00D0
ENCODING 208
SWIDTH 785 0
DWIDTH 22 0
BBX 19 20 1 0
BITMAP
FFF800
180E00
180300
180180
1800C0
1800C0
180060
180060
180060
FFC060
180060
180060
180060
180060
1800C0
1800C0
180180
180300
1C0E00
FFF800
ENDCHAR
STARTCHAR 00D1
ENCODING 209
SWIDTH 821 0
DWIDTH 23 0
BBX 21 25 1 -1
BITMAP
01C000
026200
001C00
000000
000000
F803F8
1C0040
1E0040
160040
130040
138040
11C040
10C040
106040
107040
103040
101840
101C40
100E40
100640
100340
1003C0
1001C0
1000C0
FE0040
ENDCHAR
STARTCHAR 00D2
ENCODING 210
SWIDTH 785 0
DWIDTH 22 0
BBX 19 25 2 1
BITMAP
070000
038000
00C000
004000
000000
03F800
0C0E00
180300
300180
6000C0
6000C0
400040
C00060
C00060
C00060
C00060
C00060
C00060
6000C0
6000C0
6000C0
300180
180300
0E0E00
03F800
ENDCHAR
STARTCHAR 00D3
ENCODING 211
SWIDTH 785 0
DWIDTH 22 0
BBX 19 25 2 1
BITMAP
001800
003000
006000
000000
000000
03F800
0C0E00
180300
300180
6000C0
6000C0
400040
C00060
C00060
C00060
C00060
C00060
C00060
6000C0
6000C0
6000C0
300180
180300
0E0E00
03F800
ENDCHAR
STARTCHAR 00D4
ENCODING 212
SWIDTH 785 0
DWIDTH 22 0
BBX 19 25 2 1
BITMAP
00E000
01B000
021800
000000
000000
03F800
0C0E00
180300
300180
6000C0
6000C0
400040
C00060
C00060
C00060
C00060
C00060
C00060
6000C0
6000C0
6000C0
300180
180300
0E0E00
03F800
ENDCHAR
STARTCHAR 00D5
ENCODING 213
SWIDTH 785 0
DWIDTH 22 0
BBX 19 25 2 0
BITMAP
038000
044400
043800
000000
000000
03F800
0C0E00
180300
300180
6000C0
6000C0
400040
C00060
C00060
C00060
C00060
C00060
C00060
6000C0
6000C0
6000C0
300180
180300
0E0E00
03F800
ENDCHAR
STARTCHAR 00D6
ENCODING 214
SWIDTH 785 0
DWIDTH 22 0
BBX 19 25 2 0
BITMAP
071C00
071C00
071C00
000000
000000
03F800
0C0E00
180300
300180
6000C0
6000C0
400040
C00060
C00060
C00060
C00060
C00060
C00060
6000C0
6000C0
6000C0
300180
180300
0E0E00
03F800
ENDCHAR
STARTCHAR 00D7
ENCODING 215
SWIDTH 678 0
DWIDTH 19 0
BBX 11 11 4 4
BITMAP
8020
C060
60C0
3180
1B00
0E00
0E00
1B00
3180
60C0
C060
ENDCHAR
STARTCHAR 00D8
ENCODING 216
SWIDTH 785 0
DWIDTH 22 0
BBX 19 20 2 0
BITMAP
03F8C0
0E0F80
180300
300380
6004C0
600CC0
601860
C03060
C02060
C04060
C0C060
C18060
C30060
C200C0
6400C0
680080
380180
300300
7C0E00
43F800
ENDCHAR
STARTCHAR 00D9
ENCODING 217
SWIDTH 785 0
DWIDTH 22 0
BBX 21 25 1 1
BITMAP
018000
00C000
006000
000000
000000
FF03F8
180040
180040
180040
180040
180040
180040
180040
180040
180040
180040
180040
180040
180040
180040
1C00C0
0C0080
0E0180
070300
01FC00
ENDCHAR
STARTCHAR 00DA
ENCODING 218
SWIDTH 785 0
DWIDTH 22 0
BBX 21 25 1 1
BITMAP
000E00
001C00
003000
002000
000000
FF03F8
180040
180040
180040
180040
180040
180040
180040
180040
180040
180040
180040
180040
180040
180040
1C00C0
0C0080
0E0180
070300
01FC00
ENDCHAR
STARTCHAR 00DB
ENCODING 219
SWIDTH 785 0
DWIDTH 22 0
BBX 21 25 1 1
BITMAP
003000
00EC00
018600
000000
000000
FF03F8
180040
180040
180040
180040
180040
180040
180040
180040
180040
180040
180040
180040
180040
180040
1C00C0
0C0080
0E0180
070300
01FC00
ENDCHAR
STARTCHAR 00DC
ENCODING 220
SWIDTH 785 0
DWIDTH 22 0
BBX 21 25 1 0
BITMAP
01C700
01C700
01C700
000000
000000
FF03F8
180040
180040
180040
180040
180040
180040
180040
180040
180040
180040
180040
180040
180040
180040
1C00C0
0C0080
0E0180
070300
01FC00
ENDCHAR
STARTCHAR 00DD
ENCODING 221
SWIDTH 678 0
DWIDTH 19 0
BBX 20 26 0 0
BITMAP
000400
000E00
001C00
003000
000000
000000
FF07F0
3801C0
180180
0C0300
0C0200
060600
030400
030C00
018800
019000
00F000
006000
006000
006000
006000
006000
006000
006000
006000
03FC00
ENDCHAR
STARTCHAR 00DE
ENCODING 222
SWIDTH 678 0
DWIDTH 19 0
BBX 17 20 1 0
BITMAP
FF0000
180000
180000
180000
1FF000
181E00
180700
180300
180180
180180
180180
180180
180300
180700
181E00
1FF000
180000
180000
180000
FF0000
ENDCHAR
STARTCHAR 00DF
ENCODING 223
SWIDTH 535 0
DWIDTH 15 0
BBX 13 20 1 0
BITMAP
07E0
1860
3030
3030
3030
3030
3020
3060
3180
3380
3060
3030
3018
3018
3018
3018
3018
3018
3330
FFE0
ENDCHAR
STARTCHAR 00E0
ENCODING 224
SWIDTH 535 0
DWIDTH 15 0
BBX 13 20 1 1
BITMAP
1800
0C00
0600
0000
0000
0000
1F80
20C0
6060
6060
0060
01E0
1E60
6060
C060
C060
C060
C0E0
61E0
3E38
ENDCHAR
STARTCHAR 00E1
ENCODING 225
SWIDTH 535 0
DWIDTH 15 0
BBX 13 20 1 1
BITMAP
0180
0300
0600
0000
0000
0000
1F80
20C0
6060
6060
0060
01E0
1E60
6060
C060
C060
C060
C0E0
61E0
3E38
ENDCHAR
STARTCHAR 00E2
ENCODING 226
SWIDTH 535 0
DWIDTH 15 0
BBX 13 20 1 0
BITMAP
0600
0F00
1180
0000
0000
0000
1F80
20C0
6060
6060
0060
01E0
1E60
6060
C060
C060
C060
C0E0
61E0
3E38
ENDCHAR
STARTCHAR 00E3
ENCODING 227
SWIDTH 535 0
DWIDTH 15 0
BBX 13 20 1 0
BITMAP
1C00
2640
0380
0000
0000
0000
1F80
20C0
6060
6060
0060
01E0
1E60
6060
C060
C060
C060
C0E0
61E0
3E38
ENDCHAR
STARTCHAR 00E4
ENCODING 228
SWIDTH 535 0
DWIDTH 15 0
BBX 13 20 1 0
BITMAP
3180
3180
0000
0000
0000
0000
1F80
20C0
6060
6060
0060
01E0
1E60
6060
C060
C060
C060
C0E0
61E0
3E38
ENDCHAR
STARTCHAR 00E5
ENCODING 229
SWIDTH 535 0
DWIDTH 15 0
BBX 13 20 1 0
BITMAP
0600
0900
0900
0600
0000
0000
1F80
20C0
6060
6060
0060
01E0
1E60
6060
C060
C060
C060
C0E0
61E0
3E38
ENDCHAR
STARTCHAR 00E6
ENCODING 230
SWIDTH 857 0
DWIDTH 24 0
BBX 21 14 2 0
BITMAP
1F0F80
21D860
60F030
606030
606018
006018
0FFFF8
306000
606000
C06000
C06000
C0F010
619830
3E0FC0
ENDCHAR
STARTCHAR 00E7
ENCODING 231
SWIDTH 535 0
DWIDTH 15 0
BBX 12 20 2 -7
BITMAP
0F80
3840
6060
6060
C000
C000
C000
C000
C000
C000
6010
6020
3840
0F80
0400
0600
0380
0180
0180
1F00
ENDCHAR
STARTCHAR 00E8
ENCODING 232
SWIDTH 571 0
DWIDTH 16 0
BBX 12 20 2 1
BITMAP
1800
0C00
0200
0000
0000
0000
0F80
30C0
6060
4030
C030
FFF0
C000
C000
C000
C000
6010
6020
3860
0F80
ENDCHAR
STARTCHAR 00E9
ENCODING 233
SWIDTH 571 0
DWIDTH 16 0
BBX 12 20 2 1
BITMAP
0180
0300
0600
0000
0000
0000
0F80
30C0
6060
4030
C030
FFF0
C000
C000
C000
C000
6010
6020
3860
0F80
ENDCHAR
STARTCHAR 00EA
ENCODING 234
SWIDTH 571 0
DWIDTH 16 0
BBX 12 20 2 0
BITMAP
0600
0F00
1880
0000
0000
0000
0F80
30C0
6060
4030
C030
FFF0
C000
C000
C000
C000
6010
6020
3860
0F80
ENDCHAR
STARTCHAR 00EB
ENCODING 235
SWIDTH 571 0
DWIDTH 16 0
BBX 12 20 2 0
BITMAP
3180
3180
0000
0000
0000
0000
0F80
30C0
6060
4030
C030
FFF0
C000
C000
C000
C000
6010
6020
3860
0F80
ENDCHAR
STARTCHAR 00EC
ENCODING 236
SWIDTH 285 0
DWIDTH 8 0
BBX 6 20 2 1
BITMAP
C0
E0
30
10
00
00
F0
30
30
30
30
30
30
30
30
30
30
30
30
FC
ENDCHAR
STARTCHAR 00ED
ENCODING 237
SWIDTH 285 0
DWIDTH 8 0
BBX 6 20 2 1
BITMAP
0C
18
30
00
00
00
F0
30
30
30
30
30
30
30
30
30
30
30
30
FC
ENDCHAR
STARTCHAR 00EE
ENCODING 238
SWIDTH 285 0
DWIDTH 8 0
BBX 6 19 2 1
BITMAP
70
C8
04
00
00
F0
30
30
30
30
30
30
30
30
30
30
30
30
FC
ENDCHAR
STARTCHAR 00EF
ENCODING 239
SWIDTH 285 0
DWIDTH 8 0
BBX 7 20 1 0
BITMAP
C6
C6
00
00
00
00
78
18
18
18
18
18
18
18
18
18
18
18
18
7E
ENDCHAR
STARTCHAR 00F0
ENCODING 240
SWIDTH 571 0
DWIDTH 16 0
BBX 13 20 2 1
BITMAP
3980
0600
0B00
3180
00C0
0060
0FF0
38F0
6030
6038
C018
C018
C018
C018
C018
C018
6030
6030
30E0
0F80
ENDCHAR
STARTCHAR 00F1
ENCODING 241
SWIDTH 642 0
DWIDTH 18 0
BBX 15 20 2 0
BITMAP
0E00
1920
08E0
0000
0000
0000
E3E0
2C30
3838
3018
3018
3018
3018
3018
3018
3018
3018
3018
3018
FC7E
ENDCHAR
STARTCHAR 00F2
ENCODING 242
SWIDTH 571 0
DWIDTH 16 0
BBX 13 20 2 1
BITMAP
1800
0C00
0200
0000
0000
0000
0F80
30E0
6030
6030
C018
C018
C018
C018
C018
C018
6030
6030
30E0
0F80
ENDCHAR
STARTCHAR 00F3
ENCODING 243
SWIDTH 571 0
DWIDTH 16 0
BBX 13 20 2 1
BITMAP
0180
0300
0600
0000
0000
0000
0F80
30E0
6030
6030
C018
C018
C018
C018
C018
C018
6030
6030
30E0
0F80
ENDCHAR
STARTCHAR 00F4
ENCODING 244
SWIDTH 571 0
DWIDTH 16 0
BBX 13 20 2 0
BITMAP
0600
0F00
1880
0000
0000
0000
0F80
30E0
6030
6030
C018
C018
C018
C018
C018
C018
6030
6030
30E0
0F80
ENDCHAR
STARTCHAR 00F5
ENCODING 245
SWIDTH 571 0
DWIDTH 16 0
BBX 13 20 2 0
BITMAP
1C00
1240
01C0
0000
0000
0000
0F80
30E0
6030
6030
C018
C018
C018
C018
C018
C018
6030
6030
30E0
0F80
ENDCHAR
STARTCHAR 00F6
ENCODING 246
SWIDTH 571 0
DWIDTH 16 0
BBX 13 20 2 0
BITMAP
1D80
1D80
1C00
0000
0000
0000
0F80
30E0
6030
6030
C018
C018
C018
C018
C018
C018
6030
6030
30E0
0F80
ENDCHAR
STARTCHAR 00F7
ENCODING 247
SWIDTH 678 0
DWIDTH 19 0
BBX 15 12 2 3
BITMAP
0180
03C0
03C0
0180
0000
FFFE
0000
0000
0180
03C0
03C0
0180
ENDCHAR
STARTCHAR 00F8
ENCODING 248
SWIDTH 571 0
DWIDTH 16 0
BBX 13 14 2 0
BITMAP
0FB0
3060
6070
60B0
C198
C318
C218
C418
C818
D818
7030
6030
70E0
9F80
ENDCHAR
STARTCHAR 00F9
ENCODING 249
SWIDTH 607 0
DWIDTH 17 0
BBX 15 20 1 1
BITMAP
0C00
0600
0300
0000
0000
0000
F078
3018
3018
3018
3018
3018
3018
3018
3018
3018
3018
3038
1858
0F9E
ENDCHAR
STARTCHAR 00FA
ENCODING 250
SWIDTH 607 0
DWIDTH 17 0
BBX 15 20 1 1
BITMAP
00C0
0180
0300
0200
0000
0000
F078
3018
3018
3018
3018
3018
3018
3018
3018
3018
3018
3038
1858
0F9E
ENDCHAR
STARTCHAR 00FB
ENCODING 251
SWIDTH 607 0
DWIDTH 17 0
BBX 15 19 1 1
BITMAP
0380
04C0
0840
0000
0000
F078
3018
3018
3018
3018
3018
3018
3018
3018
3018
3018
3038
1858
0F9E
ENDCHAR
STARTCHAR 00FC
ENCODING 252
SWIDTH 607 0
DWIDTH 17 0
BBX 15 20 1 0
BITMAP
0CE0
0CE0
00E0
0000
0000
0000
F078
3018
3018
3018
3018
3018
3018
3018
3018
3018
3018
3038
1858
0F9E
ENDCHAR
STARTCHAR 00FD
ENCODING 253
SWIDTH 535 0
DWIDTH 15 0
BBX 15 25 0 -4
BITMAP
0060
00C0
0180
0000
0000
0000
FC3E
3008
3008
1810
1810
0C20
0C20
0420
0640
0640
0380
0380
0180
0100
0100
0200
0200
3C00
3C00
ENDCHAR
STARTCHAR 00FE
ENCODING 254
SWIDTH 607 0
DWIDTH 17 0
BBX 15 26 1 -5
BITMAP
3000
F000
3000
3000
3000
3000
3000
33E0
3438
380C
300C
3006
3006
3006
3006
3006
3006
300C
380C
3418
33E0
3000
3000
3000
3000
FE00
ENDCHAR
STARTCHAR 00FF
ENCODING 255
SWIDTH 535 0
DWIDTH 15 0
BBX 15 25 0 -5
BITMAP
0C60
0C60
0000
0000
0000
0000
FC3E
3008
3008
1810
1810
0C20
0C20
0420
0640
0640
0380
0380
0180
0100
0100
0200
0200
3C00
3C00
ENDCHAR
STARTCHAR 0100
ENCODING 256
SWIDTH 714 0
DWIDTH 20 0
BBX 20 24 0 0
BITMAP
01FC00
000000
000000
000000
006000
006000
007000
00F000
00B000
009800
011800
010C00
030C00
020C00
020600
060600
07FF00
0C0300
080100
080180
180180
1000C0
3000C0
FE07F0
ENDCHAR
STARTCHAR 0101
ENCODING 257
SWIDTH 535 0
DWIDTH 15 0
BBX 13 19 1 0
BITMAP
3FC0
0000
0000
0000
0000
1F80
20C0
6060
6060
0060
03E0
3C60
6060
C060
C060
C060
C0E0
6160
3E38
ENDCHAR
STARTCHAR 0102
ENCODING 258
SWIDTH 714 0
DWIDTH 20 0
BBX 20 25 0 0
BITMAP
020400
010C00
00F000
000000
000000
002000
006000
007000
00F000
00B000
009800
019800
010C00
030C00
020C00
020600
060600
07FF00
0C0300
080100
080180
180180
1000C0
3000C0
FE07F0
ENDCHAR
STARTCHAR 0103
ENCODING 259
SWIDTH 535 0
DWIDTH 15 0
BBX 13 20 1 1
BITMAP
1040
1080
0F00
0000
0000
0000
1F80
20C0
6060
6060
0060
03E0
3C60
6060
C060
C060
C060
C0E0
6160
3E38
ENDCHAR
STARTCHAR 0104
ENCODING 260
SWIDTH 714 0
DWIDTH 20 0
BBX 20 26 0 -5
BITMAP
002000
006000
007000
00F000
00B000
009800
019800
010C00
030C00
020C00
020600
060600
07FF00
0C0300
080100
080180
180180
1000C0
3000C0
FE07F0
0000C0
000180
000300
000600
000620
0003C0
ENDCHAR
STARTCHAR 0105
ENCODING 261
SWIDTH 535 0
DWIDTH 15 0
BBX 13 20 1 -6
BITMAP
1F80
20C0
6060
6060
0060
01E0
1E60
6060
C060
C060
C060
C0E0
61E0
3E28
0030
0040
00C0
0180
0188
00F0
ENDCHAR
STARTCHAR 0106
ENCODING 262
SWIDTH 714 0
DWIDTH 20 0
BBX 18 25 2 1
BITMAP
003800
007000
00C000
008000
000000
03FC80
0E0F80
180380
300180
600080
600080
600000
C00000
C00000
C00000
C00000
C00000
C00000
C00040
600080
600080
300100
180300
0E0C00
03F800
ENDCHAR
STARTCHAR 0107
ENCODING 263
SWIDTH 535 0
DWIDTH 15 0
BBX 12 20 2 1
BITMAP
0180
0300
0600
0000
0000
0000
0F80
3840
6060
6060
C000
C000
C000
C000
C000
C000
6010
6020
3840
0F80
ENDCHAR
STARTCHAR 0108
ENCODING 264
SWIDTH 714 0
DWIDTH 20 0
BBX 18 25 2 1
BITMAP
00E000
01B000
021800
000000
000000
03FC80
0E0F80
180380
300180
600080
600080
600000
C00000
C00000
C00000
C00000
C00000
C00000
C00040
600080
600080
300100
180300
0E0C00
03F800
ENDCHAR
STARTCHAR 0109
ENCODING 265
SWIDTH 535 0
DWIDTH 15 0
BBX 12 20 2 0
BITMAP
0600
0F00
1880
0000
0000
0000
0F80
3840
6060
6060
C000
C000
C000
C000
C000
C000
6010
6020
3840
0F80
ENDCHAR
STARTCHAR 010C
ENCODING 268
SWIDTH 714 0
DWIDTH 20 0
BBX 18 25 2 1
BITMAP
020800
01B000
00E000
000000
000000
03FC80
0E0F80
180380
300180
600080
600080
600000
C00000
C00000
C00000
C00000
C00000
C00000
C00040
600080
600080
300100
180300
0E0C00
03F800
ENDCHAR
STARTCHAR 010D
ENCODING 269
SWIDTH 535 0
DWIDTH 15 0
BBX 12 20 2 1
BITMAP
1080
0F00
0600
0000
0000
0000
0F80
3840
6060
6060
C000
C000
C000
C000
C000
C000
6010
6020
3840
0F80
ENDCHAR
STARTCHAR 010E
ENCODING 270
SWIDTH 785 0
DWIDTH 22 0
BBX 19 25 1 1
BITMAP
020800
01B000
00E000
000000
000000
FFF800
180E00
180300
180180
1800C0
1800C0
180060
180060
180060
180060
180060
180060
180060
180060
1800C0
1800C0
180180
180300
1C0E00
FFF800
ENDCHAR
STARTCHAR 010F
ENCODING 271
SWIDTH 607 0
DWIDTH 17 0
BBX 18 21 1 0
BITMAP
0001C0
0079C0
0018C0
0018C0
001980
001800
001800
0F9800
305800
603800
601800
C01800
C01800
C01800
C01800
C01800
C01800
603800
603800
385800
0F9E00
ENDCHAR
STARTCHAR 0111
ENCODING 273
SWIDTH 607 0
DWIDTH 17 0
BBX 15 21 1 0
BITMAP
0008
0078
0018
0018
01FE
0018
0018
0F98
3058
6038
6018
C018
C018
C018
C018
C018
C018
6038
6038
38D8
0F9E
ENDCHAR
STARTCHAR 0112
ENCODING 274
SWIDTH 714 0
DWIDTH 20 0
BBX 17 24 1 0
BITMAP
03F800
000000
000000
000000
FFFF00
180300
180100
180100
180100
180080
181000
181000
183000
1FF000
183000
181000
181000
180000
180080
180080
180080
180180
180380
FFFF80
ENDCHAR
STARTCHAR 0113
ENCODING 275
SWIDTH 571 0
DWIDTH 16 0
BBX 12 19 2 0
BITMAP
1FC0
0000
0000
0000
0000
0F80
30C0
6060
4030
C030
FFF0
C000
C000
C000
C000
6010
6020
3860
0F80
ENDCHAR
STARTCHAR 0118
ENCODING 280
SWIDTH 714 0
DWIDTH 20 0
BBX 17 26 1 -6
BITMAP
FFFF00
180300
180100
180100
180100
180080
181000
181000
183000
1FF000
183000
181000
181000
180000
180080
180080
180080
180180
180380
FFFF80
00C000
018000
030000
060000
062000
03C000
ENDCHAR
STARTCHAR 0119
ENCODING 281
SWIDTH 571 0
DWIDTH 16 0
BBX 12 20 2 -6
BITMAP
0F80
30C0
6060
4030
C030
FFF0
C000
C000
C000
C000
6030
3060
1FC0
0700
0600
0C00
1800
1800
1880
0F00
ENDCHAR
STARTCHAR 011A
ENCODING 282
SWIDTH 714 0
DWIDTH 20 0
BBX 17 25 1 1
BITMAP
061800
01B000
00E000
000000
000000
FFFF00
180300
180100
180100
180100
180080
181000
181000
183000
1FF000
183000
181000
181000
180000
180080
180080
180080
180180
180380
FFFF80
ENDCHAR
STARTCHAR 011B
ENCODING 283
SWIDTH 571 0
DWIDTH 16 0
BBX 12 20 2 1
BITMAP
10C0
0D80
0600
0000
0000
0000
0F80
30C0
6060
4030
C030
FFF0
C000
C000
C000
C000
6010
6020
3860
0F80
ENDCHAR
STARTCHAR 011C
ENCODING 284
SWIDTH 785 0
DWIDTH 22 0
BBX 20 25 2 1
BITMAP
00E000
01B000
021800
000000
000000
03FC80
0E0F80
180380
300180
600080
600080
400000
C00000
C00000
C00000
C00000
C00FF0
C00180
C00180
600180
600180
300180
180380
0E0680
03F880
ENDCHAR
STARTCHAR 011D
ENCODING 285
SWIDTH 535 0
DWIDTH 15 0
BBX 14 25 1 -5
BITMAP
0300
0780
08C0
0000
001C
003C
0FC0
38E0
7070
6030
6030
6030
2030
3060
1F80
3000
3800
1FC0
1FF0
6078
C018
C018
C018
7070
1FC0
ENDCHAR
STARTCHAR 0124
ENCODING 292
SWIDTH 821 0
DWIDTH 23 0
BBX 21 25 1 1
BITMAP
007000
00D800
010400
000000
000000
FF07F8
1801C0
1800C0
1800C0
1800C0
1800C0
1800C0
1800C0
1800C0
1FFFC0
1800C0
1800C0
1800C0
1800C0
1800C0
1800C0
1800C0
1800C0
1800C0
FF07F8
ENDCHAR
STARTCHAR 0125
ENCODING 293
SWIDTH 607 0
DWIDTH 17 0
BBX 15 25 1 0
BITMAP
1000
3800
4400
0000
0000
F000
3000
3000
3000
3000
3000
33E0
3430
3838
3018
3018
3018
3018
3018
3018
3018
3018
3018
3018
FC7E
ENDCHAR
STARTCHAR 0127
ENCODING 295
SWIDTH 607 0
DWIDTH 17 0
BBX 15 21 1 0
BITMAP
1000
F000
3000
3000
FE00
3000
3000
33E0
3430
3838
3018
3018
3018
3018
3018
3018
3018
3018
3018
3018
FC7E
ENDCHAR
STARTCHAR 012A
ENCODING 298
SWIDTH 392 0
DWIDTH 11 0
BBX 8 24 1 0
BITMAP
FF
00
00
00
FF
18
18
18
18
18
18
18
18
18
18
18
18
18
18
18
18
18
18
FF
ENDCHAR
STARTCHAR 012B
ENCODING 299
SWIDTH 285 0
DWIDTH 8 0
BBX 7 19 1 0
BITMAP
FE
00
00
00
08
78
18
18
18
18
18
18
18
18
18
18
18
18
7E
ENDCHAR
STARTCHAR 0134
ENCODING 308
SWIDTH 464 0
DWIDTH 13 0
BBX 12 25 0 1
BITMAP
0380
06C0
0C20
0000
0000
0FF0
0180
0180
0180
0180
0180
0180
0180
0180
0180
0180
0180
0180
0180
0180
0180
E180
E180
C300
3E00
ENDCHAR
STARTCHAR 0135
ENCODING 309
SWIDTH 321 0
DWIDTH 9 0
BBX 9 26 -2 -6
BITMAP
0400
0E00
1180
0080
0000
0000
1E00
0600
0600
0600
0600
0600
0600
0600
0600
0600
0600
0600
0600
0600
0600
0600
E600
E600
CC00
7800
ENDCHAR
STARTCHAR 0139
ENCODING 313
SWIDTH 607 0
DWIDTH 17 0
BBX 16 25 1 1
BITMAP
0300
0600
0C00
0000
0000
FF00
1800
1800
1800
1800
1800
1800
1800
1800
1800
1800
1800
1800
1800
1801
1801
1803
1802
1806
FFFE
ENDCHAR
STARTCHAR 013A
ENCODING 314
SWIDTH 285 0
DWIDTH 8 0
BBX 6 25 1 1
BITMAP
0C
18
20
00
00
F0
30
30
30
30
30
30
30
30
30
30
30
30
30
30
30
30
30
30
FC
ENDCHAR
STARTCHAR 013D
ENCODING 317
SWIDTH 607 0
DWIDTH 17 0
BBX 16 21 1 0
BITMAP
0038
FF38
1838
1818
1810
1820
1800
1800
1800
1800
1800
1800
1800
1800
1800
1801
1801
1803
1802
1806
FFFE
ENDCHAR
STARTCHAR 013E
ENCODING 318
SWIDTH 321 0
DWIDTH 9 0
BBX 9 21 1 0
BITMAP
0380
F380
3380
3180
3300
3200
3000
3000
3000
3000
3000
3000
3000
3000
3000
3000
3000
3000
3000
3000
FC00
ENDCHAR
STARTCHAR 0141
ENCODING 321
SWIDTH 607 0
DWIDTH 17 0
BBX 16 20 1 0
BITMAP
FF00
1800
1800
1800
1800
1880
1980
1A00
1C00
1800
7800
D800
1800
1800
1801
1801
1803
1802
180E
FFFE
ENDCHAR
STARTCHAR 0142
ENCODING 322
SWIDTH 285 0
DWIDTH 8 0
BBX 8 21 0 0
BITMAP
08
78
18
18
18
18
18
19
1A
1C
18
78
D8
18
18
18
18
18
18
18
7E
ENDCHAR
STARTCHAR 0143
ENCODING 323
SWIDTH 821 0
DWIDTH 23 0
BBX 21 25 1 1
BITMAP
000C00
001800
007000
004000
000000
F803F8
1C0040
1E0040
160040
130040
138040
11C040
10C040
106040
107040
103040
101840
100C40
100E40
100640
100340
1001C0
1001C0
1000C0
FE0040
ENDCHAR
STARTCHAR 0144
ENCODING 324
SWIDTH 642 0
DWIDTH 18 0
BBX 15 20 2 1
BITMAP
0060
00C0
0100
0000
0000
0000
E3E0
2C30
3838
3018
3018
3018
3018
3018
3018
3018
3018
3018
3018
FC7E
ENDCHAR
STARTCHAR 0147
ENCODING 327
SWIDTH 821 0
DWIDTH 23 0
BBX 21 25 1 1
BITMAP
030C00
00D800
007000
000000
000000
F803F8
1C0040
1E0040
160040
130040
138040
11C040
10C040
106040
107040
103040
101840
100C40
100E40
100640
100340
1001C0
1001C0
1000C0
FE0040
ENDCHAR
STARTCHAR 0148
ENCODING 328
SWIDTH 642 0
DWIDTH 18 0
BBX 15 20 2 1
BITMAP
0C60
06C0
0380
0000
0000
0000
E3E0
2C30
3838
3018
3018
3018
3018
3018
3018
3018
3018
3018
3018
FC7E
ENDCHAR
STARTCHAR 014B
ENCODING 331
SWIDTH 642 0
DWIDTH 18 0
BBX 13 20 2 -5
BITMAP
E3E0
2C30
3838
3018
3018
3018
3018
3018
3018
3018
3018
3018
3018
FC18
0018
0018
0398
0398
0330
01E0
ENDCHAR
STARTCHAR 014C
ENCODING 332
SWIDTH 785 0
DWIDTH 22 0
BBX 19 24 2 0
BITMAP
03F800
000000
000000
000000
03F800
0C0E00
180300
300180
6000C0
6000C0
400040
C00060
C00060
C00060
C00060
C00060
C00060
6000C0
6000C0
6000C0
300180
180300
0E0E00
03F800
ENDCHAR
STARTCHAR 014D
ENCODING 333
SWIDTH 571 0
DWIDTH 16 0
BBX 13 19 2 0
BITMAP
1FC0
0000
0000
0000
0000
0F80
30E0
6030
4030
C018
C018
C018
C018
C018
C018
E030
6070
30E0
0F80
ENDCHAR
STARTCHAR 0150
ENCODING 336
SWIDTH 785 0
DWIDTH 22 0
BBX 19 25 2 1
BITMAP
00CC00
019800
013000
002000
000000
03F800
0C0E00
180300
300180
6000C0
6000C0
400040
C00060
C00060
C00060
C00060
C00060
C00060
6000C0
6000C0
6000C0
300180
180300
0E0E00
03F800
ENDCHAR
STARTCHAR 0151
ENCODING 337
SWIDTH 571 0
DWIDTH 16 0
BBX 13 20 2 1
BITMAP
0660
0CC0
0980
0000
0000
0000
0F80
30E0
6030
4030
C018
C018
C018
C018
C018
C018
E030
6070
30E0
0F80
ENDCHAR
STARTCHAR 0152
ENCODING 338
SWIDTH 1035 0
DWIDTH 29 0
BBX 26 20 2 0
BITMAP
01FFFF80
0E060180
18060080
30060080
60060080
60060080
C0060800
C0060800
C0061800
C007F800
C0061800
C0060800
C0060800
40060000
60060040
60060040
300600C0
18060080
0E060180
01FFFF80
ENDCHAR
STARTCHAR 0153
ENCODING 339
SWIDTH 928 0
DWIDTH 26 0
BBX 22 14 2 0
BITMAP
0F07E0
30CC30
607818
607008
C0300C
C0300C
C03FFC
C03000
C03000
C03000
E07000
60780C
70CC18
1F83E0
ENDCHAR
STARTCHAR 0154
ENCODING 340
SWIDTH 678 0
DWIDTH 19 0
BBX 19 25 1 1
BITMAP
003000
006000
00C000
000000
000000
FFF800
180C00
180600
180300
180300
180300
180300
180600
180E00
1FF800
19E000
183000
181800
181C00
180C00
180E00
180600
180700
180300
FF03E0
ENDCHAR
STARTCHAR 0155
ENCODING 341
SWIDTH 392 0
DWIDTH 11 0
BBX 10 21 2 0
BITMAP
0200
0700
0C00
1800
0000
0000
0000
E3C0
2CC0
3800
3800
3000
3000
3000
3000
3000
3000
3000
3000
3000
FE00
ENDCHAR
STARTCHAR 0158
ENCODING 344
SWIDTH 678 0
DWIDTH 19 0
BBX 19 25 1 1
BITMAP
041000
036000
01C000
000000
000000
FFF800
180C00
180600
180300
180300
180300
180300
180600
180E00
1FF800
19E000
183000
181800
181C00
180C00
180E00
180600
180700
180300
FF03E0
ENDCHAR
STARTCHAR 0159
ENCODING 345
SWIDTH 392 0
DWIDTH 11 0
BBX 10 20 2 1
BITMAP
4300
3600
3C00
0000
0000
0000
E3C0
2CC0
3800
3800
3000
3000
3000
3000
3000
3000
3000
3000
3000
FE00
ENDCHAR
STARTCHAR 015A
ENCODING 346
SWIDTH 607 0
DWIDTH 17 0
BBX 14 25 2 1
BITMAP
00C0
0180
0300
0000
0000
1FC8
3078
6018
C018
C008
C008
E000
7000
3C00
0F80
03E0
0078
0018
800C
800C
800C
C00C
E018
B830
87C0
ENDCHAR
STARTCHAR 015B
ENCODING 347
SWIDTH 464 0
DWIDTH 13 0
BBX 10 21 2 0
BITMAP
0200
0700
0E00
1800
0000
0000
0000
3F80
6380
C080
C080
C000
7000
3E00
0F80
01C0
80C0
80C0
C0C0
E180
9F00
ENDCHAR
STARTCHAR 015C
ENCODING 348
SWIDTH 607 0
DWIDTH 17 0
BBX 14 25 2 1
BITMAP
0700
0DC0
1860
0000
0000
1FC8
3078
6018
C018
C008
C008
E000
7000
3C00
0F80
03E0
0078
0018
800C
800C
800C
C00C
E018
B830
87C0
ENDCHAR
STARTCHAR 015D
ENCODING 349
SWIDTH 464 0
DWIDTH 13 0
BBX 10 20 2 0
BITMAP
0C00
1E00
2300
0000
0000
0000
3F80
6380
C080
C080
C000
7000
3E00
0F80
01C0
80C0
80C0
C0C0
E180
9F00
ENDCHAR
STARTCHAR 015E
ENCODING 350
SWIDTH 607 0
DWIDTH 17 0
BBX 14 26 2 -6
BITMAP
1FC8
3078
6018
C018
C008
C008
E000
7000
3C00
0F80
03E0
0078
0018
800C
800C
800C
C00C
E018
B830
8FC0
0000
0700
0700
0300
0100
0600
ENDCHAR
STARTCHAR 015F
ENCODING 351
SWIDTH 464 0
DWIDTH 13 0
BBX 10 20 2 -6
BITMAP
3F80
6380
C080
C080
C000
7000
3E00
0F80
01C0
80C0
80C0
C0C0
E180
9F00
0000
0C00
0C00
0400
0400
0800
ENDCHAR
STARTCHAR 0160
ENCODING 352
SWIDTH 607 0
DWIDTH 17 0
BBX 14 25 2 1
BITMAP
1040
0D80
0700
0000
0000
1FC8
3078
6018
C018
C008
C008
E000
7000
3C00
0F80
03E0
0078
0018
800C
800C
800C
C00C
E018
F830
9FC0
ENDCHAR
STARTCHAR 0161
ENCODING 353
SWIDTH 464 0
DWIDTH 13 0
BBX 10 20 2 0
BITMAP
6300
3600
1C00
0000
0000
0000
3F80
6380
C080
C080
C000
7000
3E00
0F80
01C0
80C0
80C0
C0C0
E180
9F00
ENDCHAR
STARTCHAR 0162
ENCODING 354
SWIDTH 607 0
DWIDTH 17 0
BBX 18 26 0 -7
BITMAP
7FFF80
60C180
40C080
40C0C0
80C040
00C000
00C000
00C000
00C000
00C000
00C000
00C000
00C000
00C000
00C000
00C000
00C000
00C000
00C000
07F800
000000
00C000
00C000
004000
004000
018000
ENDCHAR
STARTCHAR 0163
ENCODING 355
SWIDTH 321 0
DWIDTH 9 0
BBX 8 24 1 -7
BITMAP
10
10
30
30
FF
30
30
30
30
30
30
30
30
30
30
30
39
1E
00
1C
1C
0C
04
18
ENDCHAR
STARTCHAR 0164
ENCODING 356
SWIDTH 607 0
DWIDTH 17 0
BBX 18 25 0 1
BITMAP
061800
033000
01E000
000000
000000
7FFF80
60C180
40C080
40C0C0
80C040
00C000
00C000
00C000
00C000
00C000
00C000
00C000
00C000
00C000
00C000
00C000
00C000
00C000
00C000
07F800
ENDCHAR
STARTCHAR 0165
ENCODING 357
SWIDTH 357 0
DWIDTH 10 0
BBX 9 21 1 0
BITMAP
0380
0380
0180
1080
1100
3200
3000
FF00
3000
3000
3000
3000
3000
3000
3000
3000
3000
3000
3000
3900
1E00
ENDCHAR
STARTCHAR 016A
ENCODING 362
SWIDTH 785 0
DWIDTH 22 0
BBX 21 24 1 0
BITMAP
00FE00
000000
000000
000000
FF03F8
180040
180040
180040
180040
180040
180040
180040
180040
180040
180040
180040
180040
180040
180040
1C00C0
0C0080
0E0180
070300
01FC00
ENDCHAR
STARTCHAR 016B
ENCODING 363
SWIDTH 607 0
DWIDTH 17 0
BBX 15 19 1 0
BITMAP
0FE0
0000
0000
0000
1008
F078
3018
3018
3018
3018
3018
3018
3018
3018
3018
3018
3038
1858
0F9E
ENDCHAR
STARTCHAR 016C
ENCODING 364
SWIDTH 785 0
DWIDTH 22 0
BBX 21 25 1 1
BITMAP
010200
008400
007800
000000
000000
FF03F8
180040
180040
180040
180040
180040
180040
180040
180040
180040
180040
180040
180040
180040
180040
1C00C0
0C0080
0E0180
070300
01FC00
ENDCHAR
STARTCHAR 016D
ENCODING 365
SWIDTH 607 0
DWIDTH 17 0
BBX 15 20 1 0
BITMAP
0820
0C40
07C0
0000
0000
0000
F078
7038
3018
3018
3018
3018
3018
3018
3018
3018
3018
3038
1858
0F9E
ENDCHAR
STARTCHAR 016E
ENCODING 366
SWIDTH 785 0
DWIDTH 22 0
BBX 21 26 1 0
BITMAP
003000
004800
004800
004800
003000
000000
FF03F8
180040
180040
180040
180040
180040
180040
180040
180040
180040
180040
180040
180040
180040
180040
1C00C0
0C0080
0E0180
070300
01FC00
ENDCHAR
STARTCHAR 016F
ENCODING 367
SWIDTH 607 0
DWIDTH 17 0
BBX 15 20 1 0
BITMAP
0300
0480
0480
0300
0000
0000
F078
3018
3018
3018
3018
3018
3018
3018
3018
3018
3018
3038
1858
0F9E
ENDCHAR
STARTCHAR 0170
ENCODING 368
SWIDTH 785 0
DWIDTH 22 0
BBX 21 25 1 1
BITMAP
006600
006400
00C800
000000
000000
FF03F8
180040
180040
180040
180040
180040
180040
180040
180040
180040
180040
180040
180040
180040
180040
1C00C0
0C0080
0E0180
070300
01FC00
ENDCHAR
STARTCHAR 0171
ENCODING 369
SWIDTH 607 0
DWIDTH 17 0
BBX 15 20 1 1
BITMAP
0330
0260
04C0
0000
0000
0000
F078
3018
3018
3018
3018
3018
3018
3018
3018
3018
3018
3038
1858
0F9E
ENDCHAR
STARTCHAR 0179
ENCODING 377
SWIDTH 642 0
DWIDTH 18 0
BBX 15 26 1 0
BITMAP
0020
0070
00E0
0180
0100
0000
7FFE
700E
400C
4018
8030
0070
0060
00C0
01C0
0180
0300
0600
0E00
0C00
1802
3802
7002
6002
C00E
FFFE
ENDCHAR
STARTCHAR 017A
ENCODING 378
SWIDTH 464 0
DWIDTH 13 0
BBX 11 20 1 1
BITMAP
0180
0300
0600
0000
0000
0000
7FE0
40C0
C1C0
8180
0300
0600
0600
0C00
1800
3820
3020
6020
E060
FFE0
ENDCHAR
STARTCHAR 017B
ENCODING 379
SWIDTH 642 0
DWIDTH 18 0
BBX 15 25 1 0
BITMAP
01C0
01C0
01C0
0000
0000
7FFE
700E
400C
4018
8030
0070
0060
00C0
01C0
0180
0300
0600
0E00
0C00
1802
3802
7002
6002
C00E
FFFE
ENDCHAR
STARTCHAR 017C
ENCODING 380
SWIDTH 464 0
DWIDTH 13 0
BBX 11 20 1 0
BITMAP
0E00
0E00
0E00
0000
0000
0000
7FE0
40C0
C1C0
8180
0300
0600
0600
0C00
1800
3820
3020
6020
E060
FFE0
ENDCHAR
STARTCHAR 017D
ENCODING 381
SWIDTH 642 0
DWIDTH 18 0
BBX 15 25 1 1
BITMAP
0C30
06C0
0380
0000
0000
7FFE
700E
400C
4018
8030
0070
0060
00C0
01C0
0180
0300
0600
0E00
0C00
1802
3802
7002
6002
C00E
FFFE
ENDCHAR
STARTCHAR 017E
ENCODING 382
SWIDTH 464 0
DWIDTH 13 0
BBX 11 20 1 1
BITMAP
3080
0F00
0600
0000
0000
0000
7FE0
40C0
C1C0
8180
0300
0600
0600
0C00
1800
3820
3020
6020
E060
FFE0
ENDCHAR
STARTCHAR 0193
ENCODING 403
SWIDTH 785 0
DWIDTH 22 0
BBX 22 24 2 0
BITMAP
000078
0000CC
00008C
000080
03FC80
0E0F80
180380
300180
600080
600080
400000
C00000
C00000
C00000
C00000
C00FF0
C00180
C00180
600180
600180
300180
180380
0E0680
03F880
ENDCHAR
STARTCHAR 01C2
ENCODING 450
SWIDTH 500 0
DWIDTH 14 0
BBX 11 19 1 1
BITMAP
0400
0400
0400
0400
0400
0400
FFE0
0400
0400
0400
0400
FFE0
0400
0400
0400
0400
0400
0400
0400
ENDCHAR
STARTCHAR 01CD
ENCODING 461
SWIDTH 714 0
DWIDTH 20 0
BBX 21 25 0 0
BITMAP
010400
019800
00F000
006000
000000
002000
006000
007000
00F000
00B000
009800
011800
010C00
030C00
020C00
020600
040600
07FF00
0C0300
080100
080180
180180
1000C0
3000C0
FE07F8
ENDCHAR
STARTCHAR 01CE
ENCODING 462
SWIDTH 535 0
DWIDTH 15 0
BBX 13 20 1 1
BITMAP
1080
0F00
0600
0000
0000
0000
1F80
20C0
6060
6060
0060
03E0
3E60
6060
C060
C060
C060
C0E0
61E0
3E38
ENDCHAR
STARTCHAR 01D0
ENCODING 464
SWIDTH 285 0
DWIDTH 8 0
BBX 7 20 1 1
BITMAP
C2
6C
38
00
00
00
78
18
18
18
18
18
18
18
18
18
18
18
18
7E
ENDCHAR
STARTCHAR 01D1
ENCODING 465
SWIDTH 785 0
DWIDTH 22 0
BBX 19 25 2 1
BITMAP
021800
01B000
00E000
000000
000000
03F800
0E0E00
180300
300180
6000C0
6000C0
400040
C00060
C00060
C00060
C00060
C00060
C00060
400040
6000C0
6000C0
300180
180300
0E0E00
03F800
ENDCHAR
STARTCHAR 01D2
ENCODING 466
SWIDTH 571 0
DWIDTH 16 0
BBX 13 20 2 1
BITMAP
18C0
0D80
0700
0000
0000
0000
0F80
38E0
6030
6030
C018
C018
C018
C018
C018
C018
6030
6030
3860
0F80
ENDCHAR
STARTCHAR 01D4
ENCODING 468
SWIDTH 607 0
DWIDTH 17 0
BBX 15 20 1 1
BITMAP
0C60
06C0
0380
0000
0000
0000
F078
3018
3018
3018
3018
3018
3018
3018
3018
3018
3018
3038
1858
0F9E
ENDCHAR
STARTCHAR 01D6
ENCODING 470
SWIDTH 607 0
DWIDTH 17 0
BBX 15 22 1 0
BITMAP
0FE0
0000
0CE0
0CE0
00E0
0000
0000
0000
F078
3018
3018
3018
3018
3018
3018
3018
3018
3018
3018
3038
1858
0F9E
ENDCHAR
STARTCHAR 01D8
ENCODING 472
SWIDTH 607 0
DWIDTH 17 0
BBX 15 24 1 1
BITMAP
00C0
00C0
0180
0200
0CE0
0CE0
00E0
0000
0000
0000
F078
3018
3018
3018
3018
3018
3018
3018
3018
3018
3018
3038
1858
0F9E
ENDCHAR
STARTCHAR 01DA
ENCODING 474
SWIDTH 607 0
DWIDTH 17 0
BBX 15 24 1 0
BITMAP
0840
04C0
0380
0100
0CE0
0CE0
00E0
0000
0000
0000
F078
3018
3018
3018
3018
3018
3018
3018
3018
3018
3018
3038
1858
0F9E
ENDCHAR
STARTCHAR 01DC
ENCODING 476
SWIDTH 607 0
DWIDTH 17 0
BBX 15 24 1 1
BITMAP
0400
0600
0300
0100
0CE0
0CE0
00E0
0000
0000
0000
F078
3018
3018
3018
3018
3018
3018
3018
3018
3018
3018
3038
1858
0F9E
ENDCHAR
STARTCHAR 01F8
ENCODING 504
SWIDTH 821 0
DWIDTH 23 0
BBX 21 25 1 1
BITMAP
030000
018000
006000
002000
000000
F803F8
1C0040
1E0040
160040
130040
138040
11C040
10C040
106040
107040
103040
101840
100C40
100E40
100640
100340
1001C0
1001C0
1000C0
FE0040
ENDCHAR
STARTCHAR 01F9
ENCODING 505
SWIDTH 642 0
DWIDTH 18 0
BBX 15 20 2 1
BITMAP
1800
0C00
0200
0000
0000
0000
E3E0
2C30
3838
3018
3018
3018
3018
3018
3018
3018
3018
3018
3018
FC7E
ENDCHAR
STARTCHAR 01FD
ENCODING 509
SWIDTH 857 0
DWIDTH 24 0
BBX 21 20 2 1
BITMAP
000C00
001800
002000
000000
000000
000000
1F0F80
21D860
60F030
606030
606018
006018
0FFFF8
306000
606000
C06000
C06000
C0F010
619820
3E0FC0
ENDCHAR
STARTCHAR 0250
ENCODING 592
SWIDTH 535 0
DWIDTH 15 0
BBX 13 14 1 0
BITMAP
E3E0
3C30
3818
3018
3018
3038
3070
3FC0
3000
3030
3030
3830
1860
0FC0
ENDCHAR
STARTCHAR 0251
ENCODING 593
SWIDTH 571 0
DWIDTH 16 0
BBX 14 14 1 1
BITMAP
0F10
30F0
6070
6030
C030
C030
C030
C030
C030
C030
6070
6070
30B0
1F1C
ENDCHAR
STARTCHAR 0252
ENCODING 594
SWIDTH 571 0
DWIDTH 16 0
BBX 14 14 1 0
BITMAP
E3E0
3430
3818
3018
300C
300C
300C
300C
300C
300C
3018
3818
3430
23C0
ENDCHAR
STARTCHAR 0253
ENCODING 595
SWIDTH 607 0
DWIDTH 17 0
BBX 13 20 3 0
BITMAP
1F80
7040
6060
C060
C000
C000
CF80
D8E0
E030
E030
C018
C018
C018
C018
C018
C018
C030
E030
D860
8F80
ENDCHAR
STARTCHAR 0254
ENCODING 596
SWIDTH 535 0
DWIDTH 15 0
BBX 12 14 1 0
BITMAP
1F00
21C0
4060
0060
0030
0030
0030
0030
0030
E030
E060
C060
60C0
1F00
ENDCHAR
STARTCHAR 0255
ENCODING 597
SWIDTH 535 0
DWIDTH 15 0
BBX 12 16 2 -3
BITMAP
0F80
3840
6060
6060
C000
C000
C000
C000
C0E0
C310
6210
6410
3C20
1FC0
0800
1000
ENDCHAR
STARTCHAR 0256
ENCODING 598
SWIDTH 607 0
DWIDTH 17 0
BBX 18 27 1 -6
BITMAP
000800
007800
001800
001800
001800
001800
001800
0F9800
30D800
603800
601800
C01800
C01800
C01800
C01800
C01800
C01800
603800
603800
38D800
0F9800
001800
001800
0019C0
0019C0
000CC0
000780
ENDCHAR
STARTCHAR 0257
ENCODING 599
SWIDTH 607 0
DWIDTH 17 0
BBX 18 20 1 0
BITMAP
000780
000DC0
0019C0
001800
001800
001800
0F9800
305800
603800
601800
C01800
C01800
C01800
C01800
C01800
C01800
603800
603800
38D800
0F9E00
ENDCHAR
STARTCHAR 0258
ENCODING 600
SWIDTH 571 0
DWIDTH 16 0
BBX 12 14 2 0
BITMAP
1F80
70C0
C060
C020
C030
FFF0
0030
0030
0030
0030
8060
C0E0
61C0
1F00
ENDCHAR
STARTCHAR 0259
ENCODING 601
SWIDTH 571 0
DWIDTH 16 0
BBX 12 14 2 0
BITMAP
1F00
61C0
C060
0060
0030
0030
0030
FFF0
C030
C030
C060
4060
70C0
1F00
ENDCHAR
STARTCHAR 025A
ENCODING 602
SWIDTH 785 0
DWIDTH 22 0
BBX 20 14 2 0
BITMAP
1F8000
3FC000
60E200
C03F00
803900
807980
81D890
0318E0
0C1800
301800
701000
303000
186000
0F8000
ENDCHAR
STARTCHAR 025C
ENCODING 604
SWIDTH 535 0
DWIDTH 15 0
BBX 12 14 1 0
BITMAP
3F80
00C0
0060
0060
0060
00C0
1F80
0060
0030
0030
0030
0070
E0E0
1F80
ENDCHAR
STARTCHAR 025E
ENCODING 606
SWIDTH 571 0
DWIDTH 16 0
BBX 12 14 2 0
BITMAP
0FC0
3060
6030
4030
8030
8060
8F80
8060
8030
C030
4030
60F0
3FE0
1F80
ENDCHAR
STARTCHAR 025F
ENCODING 607
SWIDTH 321 0
DWIDTH 9 0
BBX 11 20 -2 -6
BITMAP
1FC0
0300
0300
0300
0300
0300
0300
0300
0300
0300
0300
0300
0300
3FE0
0300
0300
E300
E200
C600
7C00
ENDCHAR
STARTCHAR 0260
ENCODING 608
SWIDTH 607 0
DWIDTH 17 0
BBX 18 26 1 -6
BITMAP
000780
000DC0
0019C0
001800
001800
001800
0F9800
387800
603800
601800
C01800
C01800
C01800
C01800
C01800
C01800
603800
603800
385800
0F9800
701800
701800
701800
603000
306000
0FC000
ENDCHAR
STARTCHAR 0261
ENCODING 609
SWIDTH 607 0
DWIDTH 17 0
BBX 13 20 1 -5
BITMAP
0F88
3878
6038
6018
C018
C018
C018
C018
C018
C018
6038
6038
3858
0F98
7018
7018
7018
6030
3060
0FC0
ENDCHAR
STARTCHAR 0264
ENCODING 612
SWIDTH 571 0
DWIDTH 16 0
BBX 14 14 1 0
BITMAP
F01C
1830
0EC0
0780
0380
0780
04C0
08C0
1060
1060
1060
1060
08C0
0780
ENDCHAR
STARTCHAR 0265
ENCODING 613
SWIDTH 607 0
DWIDTH 17 0
BBX 15 20 1 -6
BITMAP
FC7E
3018
3018
3018
3018
3018
3018
3018
3018
3018
3018
3038
1858
0F98
0018
0018
0018
0018
001E
0010
ENDCHAR
STARTCHAR 0266
ENCODING 614
SWIDTH 607 0
DWIDTH 17 0
BBX 15 20 1 0
BITMAP
07E0
1C10
1838
3038
3000
3000
33E0
3430
3838
3018
3018
3018
3018
3018
3018
3018
3018
3018
3018
FC7E
ENDCHAR
STARTCHAR 0267
ENCODING 615
SWIDTH 607 0
DWIDTH 17 0
BBX 13 26 1 -6
BITMAP
07E0
1C10
1838
3038
3000
3000
33E0
3430
3838
3018
3018
3018
3018
3018
3018
3018
3018
3018
3018
FC18
0018
0018
0398
0398
0330
01E0
ENDCHAR
STARTCHAR 0268
ENCODING 616
SWIDTH 321 0
DWIDTH 9 0
BBX 8 20 1 0
BITMAP
1C
1C
1C
00
00
00
78
18
18
18
18
FF
18
18
18
18
18
18
18
7E
ENDCHAR
STARTCHAR 026C
ENCODING 620
SWIDTH 392 0
DWIDTH 11 0
BBX 11 20 0 1
BITMAP
0F00
0300
0300
0300
0300
7B00
8F00
8300
C300
3F00
03E0
0300
0300
0300
0300
0300
0300
0300
0300
0FC0
ENDCHAR
STARTCHAR 026D
ENCODING 621
SWIDTH 321 0
DWIDTH 9 0
BBX 9 26 1 -5
BITMAP
F000
3000
3000
3000
3000
3000
3000
3000
3000
3000
3000
3000
3000
3000
3000
3000
3000
3000
3000
3000
3000
3000
3380
3380
1980
0F00
ENDCHAR
STARTCHAR 026E
ENCODING 622
SWIDTH 607 0
DWIDTH 17 0
BBX 15 27 1 -6
BITMAP
1000
F000
3000
3000
3000
3000
3000
3FFE
300C
3018
3030
3060
30E0
31C0
3180
33F0
3018
300C
3006
3006
FC06
0006
1C06
1C06
180C
0C18
03E0
ENDCHAR
STARTCHAR 026F
ENCODING 623
SWIDTH 892 0
DWIDTH 25 0
BBX 23 14 1 -1
BITMAP
FEFE7E
301818
301818
301818
301818
301818
301818
301818
301818
301818
301818
303838
184C58
0F879E
ENDCHAR
STARTCHAR 0270
ENCODING 624
SWIDTH 892 0
DWIDTH 25 0
BBX 23 20 1 -7
BITMAP
FEFE7E
301818
301818
301818
301818
301818
301818
301818
301818
301818
301818
303838
184C58
0F8798
000018
000018
000018
000018
00001C
00001E
ENDCHAR
STARTCHAR 0271
ENCODING 625
SWIDTH 892 0
DWIDTH 25 0
BBX 20 20 2 -5
BITMAP
E7C3C0
2C6C60
383830
303030
303030
303030
303030
303030
303030
303030
303030
303030
303030
FCFC30
000030
000030
000730
000730
000660
0003C0
ENDCHAR
STARTCHAR 0272
ENCODING 626
SWIDTH 642 0
DWIDTH 18 0
BBX 18 20 -1 -5
BITMAP
1C7C00
058600
070700
060300
060300
060300
060300
060300
060300
060300
060300
060300
060300
060FC0
060000
060000
E60000
E60000
CC0000
780000
ENDCHAR
STARTCHAR 0273
ENCODING 627
SWIDTH 642 0
DWIDTH 18 0
BBX 18 20 2 -5
BITMAP
E3E000
2C3000
383800
301800
301800
301800
301800
301800
301800
301800
301800
301800
301800
FC1800
001800
001800
0019C0
0019C0
000CC0
000700
ENDCHAR
STARTCHAR 0275
ENCODING 629
SWIDTH 571 0
DWIDTH 16 0
BBX 13 14 2 0
BITMAP
0F80
30E0
6030
4030
C018
C018
FFF8
C018
C018
C038
4030
6060
30E0
0F80
ENDCHAR
STARTCHAR 0279
ENCODING 633
SWIDTH 428 0
DWIDTH 12 0
BBX 10 14 0 -1
BITMAP
1FC0
0300
0300
0300
0300
0300
0300
0300
0300
0300
0700
CB00
CB00
F3C0
ENDCHAR
STARTCHAR 027A
ENCODING 634
SWIDTH 428 0
DWIDTH 12 0
BBX 10 20 0 -1
BITMAP
1FC0
0300
0300
0300
0300
0300
0300
0300
0300
0300
0300
0300
0300
0300
0300
0300
0700
C700
CB00
F3C0
ENDCHAR
STARTCHAR 027B
ENCODING 635
SWIDTH 428 0
DWIDTH 12 0
BBX 13 20 0 -6
BITMAP
1FC0
0300
0300
0300
0300
0300
0300
0300
0300
0300
0700
CB00
CB00
F300
0300
0300
0338
0338
0198
00F0
ENDCHAR
STARTCHAR 027D
ENCODING 637
SWIDTH 392 0
DWIDTH 11 0
BBX 10 19 2 -4
BITMAP
E3C0
2CC0
3800
3000
3000
3000
3000
3000
3000
3000
3000
3000
3000
3000
3000
3000
3380
1B80
0F00
ENDCHAR
STARTCHAR 027E
ENCODING 638
SWIDTH 357 0
DWIDTH 10 0
BBX 9 14 2 0
BITMAP
0F00
1980
3180
3000
3000
3000
3000
3000
3000
3000
3000
3000
3000
FE00
ENDCHAR
STARTCHAR 0281
ENCODING 641
SWIDTH 535 0
DWIDTH 15 0
BBX 14 14 1 0
BITMAP
FC3C
3030
3030
3060
30E0
30C0
3F80
33C0
3060
3030
3030
3030
3060
FFC0
ENDCHAR
STARTCHAR 0282
ENCODING 642
SWIDTH 464 0
DWIDTH 13 0
BBX 10 20 2 -5
BITMAP
3F80
6380
C080
C080
C000
7000
3E00
0780
01C0
80C0
80C0
C0C0
E180
9F00
8000
8000
9C00
9C00
4C00
7800
ENDCHAR
STARTCHAR 0283
ENCODING 643
SWIDTH 428 0
DWIDTH 12 0
BBX 12 26 0 -6
BITMAP
01F0
0370
0600
0600
0600
0600
0600
0600
0600
0600
0600
0600
0600
0600
0600
0600
0600
0600
0600
0600
0600
0600
0600
E600
CC00
7800
ENDCHAR
STARTCHAR 0284
ENCODING 644
SWIDTH 321 0
DWIDTH 9 0
BBX 13 26 -2 -6
BITMAP
01F0
0338
0638
0600
0600
0600
0600
0600
0600
0600
0600
0600
0600
0600
0600
0600
0600
0600
0600
3FE0
0600
0600
E600
E600
CC00
7800
ENDCHAR
STARTCHAR 0288
ENCODING 648
SWIDTH 321 0
DWIDTH 9 0
BBX 9 24 1 -6
BITMAP
1000
1000
3000
3000
FF00
3000
3000
3000
3000
3000
3000
3000
3000
3000
3000
3000
3000
3000
3000
3000
3380
3380
1980
0F00
ENDCHAR
STARTCHAR 0289
ENCODING 649
SWIDTH 607 0
DWIDTH 17 0
BBX 16 14 0 1
BITMAP
783C
180C
180C
180C
180C
FFFF
180C
180C
180C
180C
180C
181C
0C2C
07CF
ENDCHAR
STARTCHAR 028A
ENCODING 650
SWIDTH 607 0
DWIDTH 17 0
BBX 14 14 2 0
BITMAP
F8FC
1040
2020
6030
4010
C018
C018
C018
C018
C018
6030
6030
3060
0F80
ENDCHAR
STARTCHAR 028B
ENCODING 651
SWIDTH 535 0
DWIDTH 15 0
BBX 13 15 1 0
BITMAP
0010
F018
3018
3008
3008
3008
3008
3008
3008
3010
3010
3010
3820
1840
0F80
ENDCHAR
STARTCHAR 028C
ENCODING 652
SWIDTH 535 0
DWIDTH 15 0
BBX 15 14 0 1
BITMAP
0100
0380
0380
02C0
04C0
0440
0860
0860
0830
1030
1030
2018
2018
F87E
ENDCHAR
STARTCHAR 028D
ENCODING 653
SWIDTH 785 0
DWIDTH 22 0
BBX 22 14 0 1
BITMAP
030300
030300
070380
058580
058580
088CC0
08C8C0
08C840
105060
107060
103020
203030
203030
F8FCFC
ENDCHAR
STARTCHAR 028E
ENCODING 654
SWIDTH 535 0
DWIDTH 15 0
BBX 15 20 0 0
BITMAP
0030
0078
00D8
0098
0180
0100
0100
0300
0380
0780
04C0
04C0
0860
0860
1020
1030
1030
2018
2018
F87E
ENDCHAR
STARTCHAR 0290
ENCODING 656
SWIDTH 571 0
DWIDTH 16 0
BBX 16 20 1 -6
BITMAP
7FE0
40C0
C1C0
8180
0300
0600
0600
0C00
1800
3820
3020
6020
C060
FFE0
0020
0020
0027
0027
0013
001E
ENDCHAR
STARTCHAR 0291
ENCODING 657
SWIDTH 500 0
DWIDTH 14 0
BBX 13 16 1 -3
BITMAP
7FE0
40C0
C1C0
8180
0300
0600
0600
0C00
1800
38F0
3188
6208
E618
FFF0
0C00
0800
ENDCHAR
STARTCHAR 0292
ENCODING 658
SWIDTH 500 0
DWIDTH 14 0
BBX 12 20 1 -6
BITMAP
7FF0
6060
40C0
4180
0300
0600
0C00
1F80
30C0
0060
0060
0030
0030
0030
0030
E030
E060
C060
60C0
3F00
ENDCHAR
STARTCHAR 0294
ENCODING 660
SWIDTH 500 0
DWIDTH 14 0
BBX 12 20 1 0
BITMAP
1F80
60E0
C060
E030
E030
0030
0030
0060
01C0
0600
0600
0600
0600
0600
0600
0600
0600
0600
0600
3F80
ENDCHAR
STARTCHAR 0295
ENCODING 661
SWIDTH 500 0
DWIDTH 14 0
BBX 12 20 2 0
BITMAP
1F80
7060
6030
C070
C070
C000
C000
6000
3800
0600
0600
0600
0600
0600
0600
0600
0600
0600
0600
1FC0
ENDCHAR
STARTCHAR 0298
ENCODING 664
SWIDTH 642 0
DWIDTH 18 0
BBX 14 14 2 0
BITMAP
0F80
1860
2010
4008
C008
8304
8784
8784
8304
C00C
4008
2010
1060
0FC0
ENDCHAR
STARTCHAR 029D
ENCODING 669
SWIDTH 321 0
DWIDTH 9 0
BBX 10 25 -3 -5
BITMAP
0380
0380
0380
0000
0000
0000
0F00
0300
0300
0300
0300
0300
0300
0300
0300
0300
0300
0300
0300
0300
7F00
8380
83C0
C700
3C00
ENDCHAR
STARTCHAR 02A1
ENCODING 673
SWIDTH 500 0
DWIDTH 14 0
BBX 12 20 1 0
BITMAP
1F80
60E0
C060
E030
E030
0030
0030
0060
00C0
0700
0600
0600
3FC0
0600
0600
0600
0600
0600
0600
3F80
ENDCHAR
STARTCHAR 02A2
ENCODING 674
SWIDTH 500 0
DWIDTH 14 0
BBX 12 20 2 0
BITMAP
1F80
7060
6030
C070
C070
C000
C000
6000
3000
0E00
0600
0600
3FC0
0600
0600
0600
0600
0600
0600
1FC0
ENDCHAR
STARTCHAR 02BB
ENCODING 699
SWIDTH 1000 0
DWIDTH 28 0
BBX 4 8 22 16
BITMAP
10
20
40
40
C0
F0
F0
60
ENDCHAR
STARTCHAR 02BC
ENCODING 700
SWIDTH 1000 0
DWIDTH 28 0
BBX 3 7 3 15
BITMAP
C0
E0
E0
60
40
C0
80
ENDCHAR
STARTCHAR 02C6
ENCODING 710
SWIDTH 500 0
DWIDTH 14 0
BBX 6 3 4 16
BITMAP
30
78
CC
ENDCHAR
STARTCHAR 02C7
ENCODING 711
SWIDTH 500 0
DWIDTH 14 0
BBX 6 3 4 17
BITMAP
84
78
30
ENDCHAR
STARTCHAR 02C8
ENCODING 712
SWIDTH 178 0
DWIDTH 5 0
BBX 1 11 2 10
BITMAP
80
80
80
80
80
80
80
80
80
80
80
ENDCHAR
STARTCHAR 02CC
ENCODING 716
SWIDTH 178 0
DWIDTH 5 0
BBX 1 11 2 -5
BITMAP
80
80
80
80
80
80
80
80
80
80
80
ENDCHAR
STARTCHAR 02D0
ENCODING 720
SWIDTH 285 0
DWIDTH 8 0
BBX 4 13 2 1
BITMAP
F0
60
40
00
00
00
00
00
00
00
40
60
F0
ENDCHAR
STARTCHAR 02D1
ENCODING 721
SWIDTH 285 0
DWIDTH 8 0
BBX 4 3 2 10
BITMAP
F0
60
40
ENDCHAR
STARTCHAR 02D8
ENCODING 728
SWIDTH 500 0
DWIDTH 14 0
BBX 6 2 4 18
BITMAP
84
78
ENDCHAR
STARTCHAR 02D9
ENCODING 729
SWIDTH 500 0
DWIDTH 14 0
BBX 3 3 6 17
BITMAP
E0
E0
E0
ENDCHAR
STARTCHAR 02DB
ENCODING 731
SWIDTH 500 0
DWIDTH 14 0
BBX 6 7 4 -6
BITMAP
18
30
60
C0
C0
C4
78
ENDCHAR
STARTCHAR 02DC
ENCODING 732
SWIDTH 500 0
DWIDTH 14 0
BBX 7 3 4 17
BITMAP
E0
B2
0C
ENDCHAR
STARTCHAR 02DD
ENCODING 733
SWIDTH 500 0
DWIDTH 14 0
BBX 7 3 4 17
BITMAP
66
4C
98
ENDCHAR
STARTCHAR 02DE
ENCODING 734
SWIDTH 500 0
DWIDTH 14 0
BBX 7 7 4 0
BITMAP
30
D0
10
30
32
34
1C
ENDCHAR
STARTCHAR 02E5
ENCODING 741
SWIDTH 500 0
DWIDTH 14 0
BBX 6 19 2 0
BITMAP
FC
04
04
04
04
04
04
04
04
04
04
04
04
04
04
04
04
04
04
ENDCHAR
STARTCHAR 02E6
ENCODING 742
SWIDTH 500 0
DWIDTH 14 0
BBX 6 20 2 0
BITMAP
04
04
04
04
04
FC
04
04
04
04
04
04
04
04
04
04
04
04
04
04
ENDCHAR
STARTCHAR 02E7
ENCODING 743
SWIDTH 500 0
DWIDTH 14 0
BBX 6 19 2 1
BITMAP
04
04
04
04
04
04
04
04
04
FC
04
04
04
04
04
04
04
04
04
ENDCHAR
STARTCHAR 02E8
ENCODING 744
SWIDTH 500 0
DWIDTH 14 0
BBX 6 20 2 0
BITMAP
04
04
04
04
04
04
04
04
04
04
04
04
04
04
FC
04
04
04
04
04
ENDCHAR
STARTCHAR 02E9
ENCODING 745
SWIDTH 500 0
DWIDTH 14 0
BBX 6 19 2 1
BITMAP
04
04
04
04
04
04
04
04
04
04
04
04
04
04
04
04
04
04
FC
ENDCHAR
STARTCHAR 0300
ENCODING 768
SWIDTH 500 0
DWIDTH 14 0
BBX 4 3 4 17
BITMAP
C0
60
30
ENDCHAR
STARTCHAR 0301
ENCODING 769
SWIDTH 500 0
DWIDTH 14 0
BBX 4 3 6 17
BITMAP
30
60
C0
ENDCHAR
STARTCHAR 0302
ENCODING 770
SWIDTH 500 0
DWIDTH 14 0
BBX 6 3 4 16
BITMAP
30
78
CC
ENDCHAR
STARTCHAR 0303
ENCODING 771
SWIDTH 500 0
DWIDTH 14 0
BBX 7 3 4 17
BITMAP
E0
B2
0C
ENDCHAR
STARTCHAR 0304
ENCODING 772
SWIDTH 500 0
DWIDTH 14 0
BBX 8 1 3 18
BITMAP
FF
ENDCHAR
STARTCHAR 0305
ENCODING 773
SWIDTH 500 0
DWIDTH 14 0
BBX 8 1 3 18
BITMAP
FF
ENDCHAR
STARTCHAR 0306
ENCODING 774
SWIDTH 500 0
DWIDTH 14 0
BBX 6 2 4 18
BITMAP
84
78
ENDCHAR
STARTCHAR 0308
ENCODING 776
SWIDTH 500 0
DWIDTH 14 0
BBX 8 3 3 17
BITMAP
E7
E7
E7
ENDCHAR
STARTCHAR 030B
ENCODING 779
SWIDTH 500 0
DWIDTH 14 0
BBX 7 3 4 17
BITMAP
66
4C
98
ENDCHAR
STARTCHAR 030C
ENCODING 780
SWIDTH 500 0
DWIDTH 14 0
BBX 6 3 4 17
BITMAP
84
78
30
ENDCHAR
STARTCHAR 030F
ENCODING 783
SWIDTH 500 0
DWIDTH 14 0
BBX 7 3 3 17
BITMAP
CC
64
32
ENDCHAR
STARTCHAR 0318
ENCODING 792
SWIDTH 500 0
DWIDTH 14 0
BBX 4 7 4 -8
BITMAP
10
10
10
F0
10
10
10
ENDCHAR
STARTCHAR 0319
ENCODING 793
SWIDTH 500 0
DWIDTH 14 0
BBX 4 7 6 -8
BITMAP
80
80
80
F0
80
80
80
ENDCHAR
STARTCHAR 031A
ENCODING 794
SWIDTH 500 0
DWIDTH 14 0
BBX 6 7 2 13
BITMAP
FC
04
04
04
04
04
04
ENDCHAR
STARTCHAR 031C
ENCODING 796
SWIDTH 500 0
DWIDTH 14 0
BBX 3 6 5 -8
BITMAP
20
40
80
80
80
60
ENDCHAR
STARTCHAR 031D
ENCODING 797
SWIDTH 500 0
DWIDTH 14 0
BBX 7 4 3 -5
BITMAP
10
10
10
FE
ENDCHAR
STARTCHAR 031E
ENCODING 798
SWIDTH 500 0
DWIDTH 14 0
BBX 7 4 3 -6
BITMAP
FE
10
10
10
ENDCHAR
STARTCHAR 031F
ENCODING 799
SWIDTH 500 0
DWIDTH 14 0
BBX 7 7 3 -8
BITMAP
10
10
10
FE
10
10
10
ENDCHAR
STARTCHAR 0320
ENCODING 800
SWIDTH 500 0
DWIDTH 14 0
BBX 8 1 3 -3
BITMAP
FF
ENDCHAR
STARTCHAR 0324
ENCODING 804
SWIDTH 500 0
DWIDTH 14 0
BBX 8 3 3 -3
BITMAP
E7
E7
E7
ENDCHAR
STARTCHAR 0325
ENCODING 805
SWIDTH 500 0
DWIDTH 14 0
BBX 4 4 5 -5
BITMAP
60
90
90
60
ENDCHAR
STARTCHAR 0327
ENCODING 807
SWIDTH 500 0
DWIDTH 14 0
BBX 6 7 4 -6
BITMAP
20
60
3C
0C
0C
F8
80
ENDCHAR
STARTCHAR 0329
ENCODING 809
SWIDTH 500 0
DWIDTH 14 0
BBX 1 7 6 -7
BITMAP
80
80
80
80
80
80
80
ENDCHAR
STARTCHAR 032A
ENCODING 810
SWIDTH 500 0
DWIDTH 14 0
BBX 8 4 3 -6
BITMAP
FF
81
81
81
ENDCHAR
STARTCHAR 032C
ENCODING 812
SWIDTH 500 0
DWIDTH 14 0
BBX 6 3 4 -3
BITMAP
CC
78
30
ENDCHAR
STARTCHAR 032F
ENCODING 815
SWIDTH 500 0
DWIDTH 14 0
BBX 7 3 3 -5
BITMAP
3C
42
82
ENDCHAR
STARTCHAR 0330
ENCODING 816
SWIDTH 500 0
DWIDTH 14 0
BBX 8 2 3 -4
BITMAP
71
8F
ENDCHAR
STARTCHAR 0332
ENCODING 818
SWIDTH 500 0
DWIDTH 14 0
BBX 14 1 0 -3
BITMAP
FFFC
ENDCHAR
STARTCHAR 0334
ENCODING 820
SWIDTH 500 0
DWIDTH 14 0
BBX 7 2 4 8
BITMAP
E2
1C
ENDCHAR
STARTCHAR 0336
ENCODING 822
SWIDTH 892 0
DWIDTH 25 0
BBX 25 1 0 10
BITMAP
FFFFFF80
ENDCHAR
STARTCHAR 0339
ENCODING 825
SWIDTH 500 0
DWIDTH 14 0
BBX 3 6 6 -8
BITMAP
80
40
20
20
20
C0
ENDCHAR
STARTCHAR 033A
ENCODING 826
SWIDTH 500 0
DWIDTH 14 0
BBX 8 4 3 -6
BITMAP
81
81
81
FF
ENDCHAR
STARTCHAR 033B
ENCODING 827
SWIDTH 500 0
DWIDTH 14 0
BBX 8 4 3 -6
BITMAP
FF
81
81
FF
ENDCHAR
STARTCHAR 033C
ENCODING 828
SWIDTH 500 0
DWIDTH 14 0
BBX 8 2 3 -4
BITMAP
7E
99
ENDCHAR
STARTCHAR 033D
ENCODING 829
SWIDTH 500 0
DWIDTH 14 0
BBX 6 5 4 16
BITMAP
CC
78
30
78
CC
ENDCHAR
STARTCHAR 0361
ENCODING 865
SWIDTH 0 0
DWIDTH 0 0
BBX 14 3 -7 21
BITMAP
0FC0
7038
8004
ENDCHAR
STARTCHAR 0391
ENCODING 913
SWIDTH 1000 0
DWIDTH 28 0
BBX 22 20 3 2
BITMAP
002000
003000
003000
005800
005800
008C00
008C00
018E00
010600
030600
020300
020300
07FF80
040180
0C01C0
0800C0
1800C0
100060
300070
FE03FC
ENDCHAR
STARTCHAR 0392
ENCODING 914
SWIDTH 1000 0
DWIDTH 28 0
BBX 18 19 5 2
BITMAP
FFF800
180E00
180600
180300
180300
180300
180300
180600
181C00
1FF000
180F00
180180
1800C0
1800C0
1800C0
1800C0
180180
180300
FFFC00
ENDCHAR
STARTCHAR 0393
ENCODING 915
SWIDTH 1000 0
DWIDTH 28 0
BBX 17 19 5 2
BITMAP
FFFF80
1C0380
180180
180080
180080
180080
180000
180000
180000
180000
180000
180000
180000
180000
180000
180000
180000
180000
FF0000
ENDCHAR
STARTCHAR 0394
ENCODING 916
SWIDTH 1000 0
DWIDTH 28 0
BBX 18 20 5 3
BITMAP
00C000
00C000
01E000
016000
036000
023000
023000
041800
041800
080C00
080C00
100600
100600
300300
200300
200300
400180
400180
FFFFC0
FFFFC0
ENDCHAR
STARTCHAR 0395
ENCODING 917
SWIDTH 1000 0
DWIDTH 28 0
BBX 17 19 5 2
BITMAP
FFFF00
180300
180100
180100
180100
180100
180800
180800
181800
1FF800
181800
180800
180800
180000
180080
180080
180180
180380
FFFF80
ENDCHAR
STARTCHAR 0396
ENCODING 918
SWIDTH 1000 0
DWIDTH 28 0
BBX 16 19 6 2
BITMAP
7FFF
7006
600E
401C
4018
0030
0060
00E0
01C0
0180
0300
0600
0E00
1C01
1801
3001
6003
E007
FFFF
ENDCHAR
STARTCHAR 0397
ENCODING 919
SWIDTH 1000 0
DWIDTH 28 0
BBX 20 19 4 2
BITMAP
FE07F0
180180
180180
180180
180180
180180
180180
180180
180180
1FFF80
180180
180180
180180
180180
180180
180180
180180
180180
FE07F0
ENDCHAR
STARTCHAR 0398
ENCODING 920
SWIDTH 1000 0
DWIDTH 28 0
BBX 18 21 5 0
BITMAP
03F000
0E1C00
180600
300300
600180
600180
600080
C804C0
C804C0
CFFCC0
CFFCC0
C804C0
C804C0
C000C0
600180
600180
600380
300700
180600
0C1C00
03F000
ENDCHAR
STARTCHAR 0399
ENCODING 921
SWIDTH 1000 0
DWIDTH 28 0
BBX 8 19 10 2
BITMAP
FF
18
18
18
18
18
18
18
18
18
18
18
18
18
18
18
18
18
FF
ENDCHAR
STARTCHAR 039A
ENCODING 922
SWIDTH 1000 0
DWIDTH 28 0
BBX 21 19 4 2
BITMAP
FF0FE0
180300
180600
180C00
181800
183000
186000
18C000
19C000
1B6000
1C3000
183800
181C00
180E00
180700
180300
180380
1801C0
FF07F8
ENDCHAR
STARTCHAR 039B
ENCODING 923
SWIDTH 1000 0
DWIDTH 28 0
BBX 20 20 4 2
BITMAP
006000
006000
006000
00B000
00B000
01B800
011800
011800
020C00
020C00
060E00
040600
0C0600
0C0700
080300
180380
100380
300180
3001C0
FE0FF0
ENDCHAR
STARTCHAR 039C
ENCODING 924
SWIDTH 1000 0
DWIDTH 28 0
BBX 24 19 2 2
BITMAP
FC001F
1C0038
1C0038
160058
160058
1300D8
130098
130098
118118
118118
10C218
10C218
106218
106418
106418
103818
103818
101818
FE10FF
ENDCHAR
STARTCHAR 039D
ENCODING 925
SWIDTH 1000 0
DWIDTH 28 0
BBX 22 20 3 1
BITMAP
FC01FC
1C0020
160020
170020
138020
11C020
10C020
106020
107020
103820
101C20
100E20
100620
100720
1003A0
1001E0
1000E0
100060
FE0060
000020
ENDCHAR
STARTCHAR 039E
ENCODING 926
SWIDTH 1000 0
DWIDTH 28 0
BBX 16 19 6 2
BITMAP
7FFE
7FFE
4002
4002
4002
0000
0000
1008
1008
1FF8
1FF8
1008
1008
0000
0000
8001
8001
FFFF
FFFF
ENDCHAR
STARTCHAR 039F
ENCODING 927
SWIDTH 1000 0
DWIDTH 28 0
BBX 18 21 5 0
BITMAP
03F000
0E1C00
180600
300300
600180
600180
600080
C000C0
C000C0
C000C0
C000C0
C000C0
C000C0
C000C0
600180
600180
600380
300700
180600
0C1C00
03F000
ENDCHAR
STARTCHAR 03A0
ENCODING 928
SWIDTH 1000 0
DWIDTH 28 0
BBX 20 19 4 2
BITMAP
FFFFF0
180180
180180
180180
180180
180180
180180
180180
180180
180180
180180
180180
180180
180180
180180
180180
180180
180180
FE07F0
ENDCHAR
STARTCHAR 03A1
ENCODING 929
SWIDTH 1000 0
DWIDTH 28 0
BBX 17 19 6 2
BITMAP
FFF800
180600
180300
180180
180180
180180
180180
180380
180300
180E00
1FF800
180000
180000
180000
180000
180000
180000
180000
FF0000
ENDCHAR
STARTCHAR 03A3
ENCODING 931
SWIDTH 1000 0
DWIDTH 28 0
BBX 18 19 4 2
BITMAP
7FFF80
700180
180080
0C0080
060080
030000
018000
00C000
007000
006000
00C000
010000
020000
040040
080040
1000C0
2001C0
7FFFC0
FFFFC0
ENDCHAR
STARTCHAR 03A4
ENCODING 932
SWIDTH 1000 0
DWIDTH 28 0
BBX 18 19 5 2
BITMAP
FFFFC0
E0C1C0
80C040
80C040
80C040
80C040
00C000
00C000
00C000
00C000
00C000
00C000
00C000
00C000
00C000
00C000
00C000
00C000
07F800
ENDCHAR
STARTCHAR 03A5
ENCODING 933
SWIDTH 1000 0
DWIDTH 28 0
BBX 18 19 5 2
BITMAP
1E1E00
7F3F80
63F180
C1E0C0
80C040
00C000
00C000
00C000
00C000
00C000
00C000
00C000
00C000
00C000
00C000
00C000
00C000
00C000
07F800
ENDCHAR
STARTCHAR 03A6
ENCODING 934
SWIDTH 1000 0
DWIDTH 28 0
BBX 18 19 5 2
BITMAP
07F800
00C000
00C000
07F800
18C600
70C300
60C180
C0C0C0
C0C0C0
C0C0C0
C0C0C0
C0C0C0
60C180
30C300
18C600
07F800
00C000
00C000
07F800
ENDCHAR
STARTCHAR 03A7
ENCODING 935
SWIDTH 1000 0
DWIDTH 28 0
BBX 21 19 4 2
BITMAP
FF0FE0
380380
0C0300
0C0600
060400
030800
019800
00F000
00E000
007000
00B000
011800
030C00
060E00
040700
080300
100180
3001C0
FE07F8
ENDCHAR
STARTCHAR 03A8
ENCODING 936
SWIDTH 1000 0
DWIDTH 28 0
BBX 22 19 3 2
BITMAP
70FC38
F8307C
983064
183060
183060
183060
083040
083040
0C30C0
0C30C0
0C30C0
063180
023300
01FE00
003000
003000
003000
003000
01FE00
ENDCHAR
STARTCHAR 03A9
ENCODING 937
SWIDTH 1000 0
DWIDTH 28 0
BBX 18 19 5 2
BITMAP
03F000
0C0C00
380700
700300
600180
C000C0
C000C0
C000C0
C000C0
C000C0
C000C0
600180
600180
300300
180600
861840
821040
FE1FC0
FE1FC0
ENDCHAR
STARTCHAR 03B1
ENCODING 945
SWIDTH 1000 0
DWIDTH 28 0
BBX 15 15 7 0
BITMAP
0384
0CCC
1848
1878
3070
6070
6060
6060
C060
C0E0
C0E0
C162
C262
6424
3838
ENDCHAR
STARTCHAR 03B2
ENCODING 946
SWIDTH 1000 0
DWIDTH 28 0
BBX 14 24 6 -3
BITMAP
00F0
03F8
071C
060C
0C0C
080C
080C
1818
17B0
17C0
3020
3030
2018
2018
2018
6018
6018
6030
6070
58E0
C780
C000
C000
C000
ENDCHAR
STARTCHAR 03B3
ENCODING 947
SWIDTH 1000 0
DWIDTH 28 0
BBX 15 18 6 -3
BITMAP
3806
7C0C
8C08
0618
0230
0220
0260
0140
01C0
0180
0180
0100
0100
0300
0300
0300
0300
0200
ENDCHAR
STARTCHAR 03B4
ENCODING 948
SWIDTH 1000 0
DWIDTH 28 0
BBX 12 21 8 0
BITMAP
1F80
20E0
2030
2000
1000
0C00
0200
0D80
30C0
2040
6060
6060
C060
C060
C060
C0E0
C0C0
C1C0
4180
6300
3E00
ENDCHAR
STARTCHAR 03B5
ENCODING 949
SWIDTH 1000 0
DWIDTH 28 0
BBX 11 15 8 0
BITMAP
1F80
3040
4020
4000
4000
2F00
3F00
6000
C000
C000
C000
C020
E040
7080
1F00
ENDCHAR
STARTCHAR 03B6
ENCODING 950
SWIDTH 1000 0
DWIDTH 28 0
BBX 13 24 7 -2
BITMAP
0C38
1870
18E0
1F80
0200
0400
0800
1800
3000
2000
6000
6000
C000
C000
C000
C000
E000
7800
1F00
03C0
0060
0C20
0C60
07C0
ENDCHAR
STARTCHAR 03B7
ENCODING 951
SWIDTH 1000 0
DWIDTH 28 0
BBX 13 17 6 -3
BITMAP
70F0
8B18
0A18
0C18
0C18
0C18
1830
1830
1830
3030
3030
3060
6060
0060
0060
0060
00C0
ENDCHAR
STARTCHAR 03B8
ENCODING 952
SWIDTH 1000 0
DWIDTH 28 0
BBX 13 21 7 0
BITMAP
03E0
0630
0C30
1818
3818
3018
7018
6018
6018
FFF8
E018
C030
C030
C030
C070
C060
C060
C0C0
6180
6300
1E00
ENDCHAR
STARTCHAR 03B9
ENCODING 953
SWIDTH 1000 0
DWIDTH 28 0
BBX 7 14 10 1
BITMAP
38
30
30
30
60
60
60
40
C0
C0
C2
C4
E4
78
ENDCHAR
STARTCHAR 03BA
ENCODING 954
SWIDTH 1000 0
DWIDTH 28 0
BBX 14 15 7 0
BITMAP
0C1C
183C
18E0
1980
1200
3400
3F00
3300
6300
6100
6100
C108
C108
C190
00E0
ENDCHAR
STARTCHAR 03BB
ENCODING 955
SWIDTH 1000 0
DWIDTH 28 0
BBX 15 21 6 0
BITMAP
0700
0F80
1180
0080
0080
0080
0080
0080
0180
0380
0380
0680
0C80
0C80
1880
3880
3082
60C4
E0CC
C078
0030
ENDCHAR
STARTCHAR 03BC
ENCODING 956
SWIDTH 1000 0
DWIDTH 28 0
BBX 17 18 5 -2
BITMAP
060400
060600
040400
0C0C00
080C00
080800
181800
101800
101000
301000
303080
307100
28D100
6F8E00
670E00
400000
400000
C00000
ENDCHAR
STARTCHAR 03BD
ENCODING 957
SWIDTH 1000 0
DWIDTH 28 0
BBX 14 14 7 0
BITMAP
7818
981C
0C04
0C04
0C04
0C0C
0C08
0C18
0830
08E0
19C0
1F00
1E00
3800
ENDCHAR
STARTCHAR 03BE
ENCODING 958
SWIDTH 1000 0
DWIDTH 28 0
BBX 11 25 8 -3
BITMAP
0800
10E0
11C0
0E00
0400
0C00
1800
1800
1800
19C0
0F80
1800
2000
6000
C000
C000
C000
C000
F000
7F00
0780
0180
3180
3380
1E00
ENDCHAR
STARTCHAR 03BF
ENCODING 959
SWIDTH 1000 0
DWIDTH 28 0
BBX 12 15 8 0
BITMAP
0F80
18C0
3060
6020
6030
C030
C030
C030
C030
C030
C060
4060
60C0
3180
1F00
ENDCHAR
STARTCHAR 03C0
ENCODING 960
SWIDTH 1000 0
DWIDTH 28 0
BBX 15 16 7 0
BITMAP
0002
7FFC
C440
0840
08C0
0880
0880
1080
1180
3180
3180
2188
6188
6188
C0F0
00E0
ENDCHAR
STARTCHAR 03C1
ENCODING 961
SWIDTH 1000 0
DWIDTH 28 0
BBX 14 17 6 -3
BITMAP
01E0
0638
0818
180C
100C
100C
300C
300C
3018
6818
6C30
67C0
4000
4000
C000
C000
C000
ENDCHAR
STARTCHAR 03C2
ENCODING 962
SWIDTH 500 0
DWIDTH 14 0
BBX 12 20 1 -6
BITMAP
0F80
1860
3020
6030
6070
6070
6000
6000
7000
3000
1C00
0E00
0700
0300
0180
0180
C180
C180
6300
3E00
ENDCHAR
STARTCHAR 03C3
ENCODING 963
SWIDTH 1000 0
DWIDTH 28 0
BBX 14 15 8 0
BITMAP
0FFC
1060
2060
6030
4030
C030
C030
C030
C030
C030
C060
6060
60C0
3180
1F00
ENDCHAR
STARTCHAR 03C4
ENCODING 964
SWIDTH 1000 0
DWIDTH 28 0
BBX 14 16 7 0
BITMAP
0004
7FF8
C100
8200
0200
0600
0400
0C00
0C00
0800
1800
1820
1840
1840
1C80
0F00
ENDCHAR
STARTCHAR 03C5
ENCODING 965
SWIDTH 1000 0
DWIDTH 28 0
BBX 14 15 6 0
BITMAP
3818
4C18
8C1C
0C0C
0C04
1C04
1804
1804
3004
3008
3008
3010
3010
1860
0F80
ENDCHAR
STARTCHAR 03C6
ENCODING 966
SWIDTH 1000 0
DWIDTH 28 0
BBX 14 22 7 -3
BITMAP
0060
0040
0040
00C0
0080
03C0
1CB0
3198
610C
410C
C10C
C20C
C20C
C20C
C218
6418
2470
1FC0
0C00
0800
0800
1800
ENDCHAR
STARTCHAR 03C7
ENCODING 967
SWIDTH 1000 0
DWIDTH 28 0
BBX 13 18 7 -3
BITMAP
3818
7C18
8C30
0660
0660
02C0
0280
0380
0300
0700
0500
0D00
1900
3100
3188
6188
C0F8
C070
ENDCHAR
STARTCHAR 03C8
ENCODING 968
SWIDTH 1000 0
DWIDTH 28 0
BBX 15 23 7 -3
BITMAP
0060
0060
0060
0040
00C0
08C8
108C
2084
6086
4106
C106
C106
C106
C20E
C20C
621C
6638
1DE0
0600
0C00
0C00
1800
1800
ENDCHAR
STARTCHAR 03C9
ENCODING 969
SWIDTH 1000 0
DWIDTH 28 0
BBX 18 15 5 1
BITMAP
020100
0C0100
180180
300080
2060C0
6060C0
C0E0C0
C0E0C0
C0C0C0
C0C0C0
C08180
E18100
634300
7E4600
3C3C00
ENDCHAR
STARTCHAR 0401
ENCODING 1025
SWIDTH 1000 0
DWIDTH 28 0
BBX 17 23 5 2
BITMAP
0E0E00
0E0E00
0E0E00
000000
FFFF00
180300
180100
180100
180100
180100
180800
180800
181800
1FF800
181800
180800
180800
180000
180080
180080
180180
180380
FFFF80
ENDCHAR
STARTCHAR 0410
ENCODING 1040
SWIDTH 1000 0
DWIDTH 28 0
BBX 22 20 3 2
BITMAP
002000
003000
003000
005800
005800
008C00
008C00
018E00
010600
030600
020300
020300
07FF80
040180
0C01C0
0800C0
1800C0
100060
300070
FE03FC
ENDCHAR
STARTCHAR 0411
ENCODING 1041
SWIDTH 1000 0
DWIDTH 28 0
BBX 17 19 5 2
BITMAP
FFFF00
180700
180100
180100
180100
180100
180000
180000
180000
1FF800
180E00
180300
180180
180180
180180
180180
180300
180600
FFF800
ENDCHAR
STARTCHAR 0412
ENCODING 1042
SWIDTH 1000 0
DWIDTH 28 0
BBX 18 19 5 2
BITMAP
FFF800
180E00
180600
180300
180300
180300
180300
180600
181C00
1FF000
180F00
180180
1800C0
1800C0
1800C0
1800C0
180180
180300
FFFC00
ENDCHAR
STARTCHAR 0413
ENCODING 1043
SWIDTH 1000 0
DWIDTH 28 0
BBX 17 19 5 2
BITMAP
FFFF80
1C0380
180180
180080
180080
180080
180000
180000
180000
180000
180000
180000
180000
180000
180000
180000
180000
180000
FF0000
ENDCHAR
STARTCHAR 0414
ENCODING 1044
SWIDTH 1000 0
DWIDTH 28 0
BBX 20 23 4 -2
BITMAP
1FFFF0
020180
020180
020180
020180
020180
020180
020180
040180
040180
040180
040180
080180
080180
180180
100180
200180
200180
FFFFF0
C00030
800010
800010
800010
ENDCHAR
STARTCHAR 0415
ENCODING 1045
SWIDTH 1000 0
DWIDTH 28 0
BBX 17 19 5 2
BITMAP
FFFF00
180300
180100
180100
180100
180100
180800
180800
181800
1FF800
181800
180800
180800
180000
180080
180080
180180
180380
FFFF80
ENDCHAR
STARTCHAR 0416
ENCODING 1046
SWIDTH 1000 0
DWIDTH 28 0
BBX 26 19 1 2
BITMAP
383F0700
740C0B80
740C0B80
040C1000
020C1000
020C1000
010C2000
018C2000
004CC000
00FFC000
00CCC000
018C6000
030C3000
070C3800
060C1800
0C0C0C00
1C0C0E00
380C0700
FE3F1FC0
ENDCHAR
STARTCHAR 0417
ENCODING 1047
SWIDTH 1000 0
DWIDTH 28 0
BBX 15 21 7 0
BITMAP
0FE0
3830
6018
400C
400C
000C
000C
0018
0030
0FC0
0070
000C
000C
0006
8006
8006
C006
C00C
E01C
3878
0FE0
ENDCHAR
STARTCHAR 0418
ENCODING 1048
SWIDTH 1000 0
DWIDTH 28 0
BBX 20 19 4 2
BITMAP
FE07F0
180180
180180
180180
180380
180580
180980
181180
182180
184180
188180
190180
1A0180
1C0180
180180
180180
180180
180180
FE07F0
ENDCHAR
STARTCHAR 0419
ENCODING 1049
SWIDTH 1000 0
DWIDTH 28 0
BBX 20 22 4 2
BITMAP
030C00
030C00
01F800
FE07F0
180180
180180
180180
180380
180580
180980
181180
182180
184180
188180
190180
1A0180
1C0180
180180
180180
180180
180180
FE07F0
ENDCHAR
STARTCHAR 041A
ENCODING 1050
SWIDTH 1000 0
DWIDTH 28 0
BBX 21 19 4 3
BITMAP
FF03C0
1806E0
1804E0
180CE0
180800
181000
183000
186000
1FC000
186000
183000
183800
181C00
180E00
180700
180300
180380
1801C0
FF07F8
ENDCHAR
STARTCHAR 041B
ENCODING 1051
SWIDTH 1000 0
DWIDTH 28 0
BBX 21 21 3 0
BITMAP
03FFF8
00C0C0
00C0C0
0080C0
0080C0
0080C0
0080C0
0080C0
0080C0
0080C0
0080C0
0080C0
0080C0
0180C0
7180C0
F180C0
8100C0
C100C0
C307F8
460000
3C0000
ENDCHAR
STARTCHAR 041C
ENCODING 1052
SWIDTH 1000 0
DWIDTH 28 0
BBX 24 19 2 2
BITMAP
7E003E
0E0070
0E0070
0B0090
0B0090
098090
098110
098118
18C218
10C218
106618
106418
106408
103808
103808
101008
101008
30000C
FE007F
ENDCHAR
STARTCHAR 041D
ENCODING 1053
SWIDTH 1000 0
DWIDTH 28 0
BBX 20 19 4 2
BITMAP
FE07F0
180180
180180
180180
180180
180180
180180
180180
180180
1FFF80
180180
180180
180180
180180
180180
180180
180180
180180
FE07F0
ENDCHAR
STARTCHAR 041E
ENCODING 1054
SWIDTH 1000 0
DWIDTH 28 0
BBX 18 21 5 0
BITMAP
03F000
0E1C00
180600
300300
600180
600180
600080
C000C0
C000C0
C000C0
C000C0
C000C0
C000C0
C000C0
600180
600180
600380
300700
180600
0C1C00
03F000
ENDCHAR
STARTCHAR 041F
ENCODING 1055
SWIDTH 1000 0
DWIDTH 28 0
BBX 20 19 4 2
BITMAP
FFFFF0
180180
180180
180180
180180
180180
180180
180180
180180
180180
180180
180180
180180
180180
180180
180180
180180
180180
FE07F0
ENDCHAR
STARTCHAR 0420
ENCODING 1056
SWIDTH 1000 0
DWIDTH 28 0
BBX 17 19 6 2
BITMAP
FFF800
180600
180300
180180
180180
180180
180180
180380
180300
180E00
1FF800
180000
180000
180000
180000
180000
180000
180000
FF0000
ENDCHAR
STARTCHAR 0421
ENCODING 1057
SWIDTH 1000 0
DWIDTH 28 0
BBX 19 21 4 0
BITMAP
01FE00
070380
0C00C0
180040
300040
600000
600000
C00000
C00000
C00000
C00000
C00000
C00000
C00020
600020
600060
300060
3800E0
1C01C0
070380
01FC00
ENDCHAR
STARTCHAR 0422
ENCODING 1058
SWIDTH 1000 0
DWIDTH 28 0
BBX 18 19 5 2
BITMAP
FFFFC0
E0C1C0
80C040
80C040
80C040
80C040
00C000
00C000
00C000
00C000
00C000
00C000
00C000
00C000
00C000
00C000
00C000
00C000
07F800
ENDCHAR
STARTCHAR 0423
ENCODING 1059
SWIDTH 1000 0
DWIDTH 28 0
BBX 19 21 5 0
BITMAP
FF0FE0
380300
180200
0C0600
0C0400
060400
060C00
030800
031800
019000
01D000
00E000
006000
004000
004000
708000
708000
710000
410000
220000
1C0000
ENDCHAR
STARTCHAR 0424
ENCODING 1060
SWIDTH 1000 0
DWIDTH 28 0
BBX 18 19 5 2
BITMAP
07F800
00C000
00C000
07F800
18C600
70C300
60C180
C0C0C0
C0C0C0
C0C0C0
C0C0C0
C0C0C0
60C180
30C300
18C600
07F800
00C000
00C000
07F800
ENDCHAR
STARTCHAR 0425
ENCODING 1061
SWIDTH 1000 0
DWIDTH 28 0
BBX 21 19 4 2
BITMAP
FF0FE0
380380
0C0300
0C0600
060400
030800
019800
00F000
00E000
007000
00B000
011800
030C00
060E00
040700
080300
100180
3001C0
FE07F8
ENDCHAR
STARTCHAR 0426
ENCODING 1062
SWIDTH 1000 0
DWIDTH 28 0
BBX 21 23 3 -2
BITMAP
FF07F8
1800C0
1800C0
1800C0
1800C0
1800C0
1800C0
1800C0
1800C0
1800C0
1800C0
1800C0
1800C0
1800C0
1800C0
1800C0
1800C0
1800C0
FFFFF8
000018
000008
000008
000008
ENDCHAR
STARTCHAR 0427
ENCODING 1063
SWIDTH 1000 0
DWIDTH 28 0
BBX 19 19 4 2
BITMAP
FE0FE0
180300
180300
180300
180300
180300
180300
180300
180300
180300
0C0700
0E1B00
03E300
000300
000300
000300
000300
000300
000FE0
ENDCHAR
STARTCHAR 0428
ENCODING 1064
SWIDTH 1000 0
DWIDTH 28 0
BBX 24 19 2 2
BITMAP
FE7E7F
181818
181818
181818
181818
181818
181818
181818
181818
181818
181818
181818
181818
181818
181818
181818
181818
181818
FFFFFF
ENDCHAR
STARTCHAR 0429
ENCODING 1065
SWIDTH 1000 0
DWIDTH 28 0
BBX 25 23 1 -2
BITMAP
FF3F3F80
180C0C00
180C0C00
180C0C00
180C0C00
180C0C00
180C0C00
180C0C00
180C0C00
180C0C00
180C0C00
180C0C00
180C0C00
180C0C00
180C0C00
180C0C00
180C0C00
180C0C00
FFFFFF80
00000180
00000080
00000080
00000080
ENDCHAR
STARTCHAR 042A
ENCODING 1066
SWIDTH 1000 0
DWIDTH 28 0
BBX 21 19 4 2
BITMAP
FFE000
C30000
830000
830000
830000
830000
030000
030000
030000
03FF80
0300E0
030030
030018
030018
030018
030018
030030
030060
0FFF80
ENDCHAR
STARTCHAR 042B
ENCODING 1067
SWIDTH 1000 0
DWIDTH 28 0
BBX 24 19 2 2
BITMAP
FF00FF
180018
180018
180018
180018
180018
180018
180018
180018
1FF818
180E18
180318
180198
180198
180198
180198
180318
180618
FFF8FF
ENDCHAR
STARTCHAR 042C
ENCODING 1068
SWIDTH 1000 0
DWIDTH 28 0
BBX 18 19 5 2
BITMAP
FF0000
180000
180000
180000
180000
180000
180000
180000
180000
1FFC00
180700
180180
1800C0
1800C0
1800C0
1800C0
180180
180300
FFFC00
ENDCHAR
STARTCHAR 042D
ENCODING 1069
SWIDTH 1000 0
DWIDTH 28 0
BBX 19 21 5 0
BITMAP
0FF000
781C00
600700
400380
400180
0001C0
0000C0
0780E0
0FE0E0
10FFE0
001EE0
0000E0
0000E0
8000E0
8001C0
C001C0
C00380
E00380
700700
381C00
07F000
ENDCHAR
STARTCHAR 042E
ENCODING 1070
SWIDTH 1000 0
DWIDTH 28 0
BBX 24 21 2 0
BITMAP
FF07E0
180C38
18180C
18300C
187006
186006
186003
186003
18E003
1FE003
18E003
18E003
186003
186003
186003
187006
183006
18380C
FF180C
000E38
0007E0
ENDCHAR
STARTCHAR 042F
ENCODING 1071
SWIDTH 1000 0
DWIDTH 28 0
BBX 19 20 4 1
BITMAP
03FFE0
0C0300
180300
300300
300300
300300
300300
180300
0E0300
03FF00
01C300
018300
038300
030300
060300
0E0300
1C0300
300300
E01FE0
800000
ENDCHAR
STARTCHAR 0430
ENCODING 1072
SWIDTH 1000 0
DWIDTH 28 0
BBX 15 15 7 0
BITMAP
1F80
60C0
60E0
6060
0060
03E0
1C60
3060
6060
C060
C060
C062
C0E4
2178
1E38
ENDCHAR
STARTCHAR 0431
ENCODING 1073
SWIDTH 1000 0
DWIDTH 28 0
BBX 14 21 7 1
BITMAP
0008
0018
07F0
1C00
3000
2000
47C0
5860
E010
E018
C008
C00C
C00C
C00C
C00C
C00C
601C
6018
3030
1870
0FC0
ENDCHAR
STARTCHAR 0432
ENCODING 1074
SWIDTH 1000 0
DWIDTH 28 0
BBX 14 13 7 2
BITMAP
FFE0
3030
3018
3018
3018
3030
3FE0
3038
300C
300C
300C
3018
FFE0
ENDCHAR
STARTCHAR 0433
ENCODING 1075
SWIDTH 1000 0
DWIDTH 28 0
BBX 13 13 8 2
BITMAP
FFF8
3018
3008
3008
3008
3000
3000
3000
3000
3000
3000
3000
FC00
ENDCHAR
STARTCHAR 0434
ENCODING 1076
SWIDTH 1000 0
DWIDTH 28 0
BBX 16 17 6 -2
BITMAP
1FFF
0418
0418
0418
0418
0818
0818
0818
1018
1018
2018
2018
FFFF
C003
8001
8001
8001
ENDCHAR
STARTCHAR 0435
ENCODING 1077
SWIDTH 1000 0
DWIDTH 28 0
BBX 13 15 7 0
BITMAP
0F80
1860
3030
6030
6018
E018
FFF8
C000
C000
E000
E008
6010
3010
3860
0F80
ENDCHAR
STARTCHAR 0436
ENCODING 1078
SWIDTH 1000 0
DWIDTH 28 0
BBX 22 13 3 2
BITMAP
70FC38
683058
043080
043080
023100
033300
06FD80
063080
0C30C0
083040
183060
303030
FCFCFC
ENDCHAR
STARTCHAR 0437
ENCODING 1079
SWIDTH 1000 0
DWIDTH 28 0
BBX 12 15 8 0
BITMAP
1F80
70C0
4060
4060
0060
00C0
0F00
00E0
0060
8030
8030
C030
C070
71E0
1F80
ENDCHAR
STARTCHAR 0438
ENCODING 1080
SWIDTH 1000 0
DWIDTH 28 0
BBX 16 13 6 2
BITMAP
FC3F
300C
300C
303C
306C
30CC
310C
320C
340C
380C
300C
300C
FC3F
ENDCHAR
STARTCHAR 0439
ENCODING 1081
SWIDTH 1000 0
DWIDTH 28 0
BBX 16 18 6 2
BITMAP
0C30
0C30
0830
03C0
0000
FC3F
300C
300C
303C
306C
30CC
310C
320C
340C
380C
300C
300C
FC3F
ENDCHAR
STARTCHAR 043A
ENCODING 1082
SWIDTH 1000 0
DWIDTH 28 0
BBX 16 13 7 2
BITMAP
FC0E
301E
3020
3040
30C0
3780
38C0
30E0
3060
3030
3038
301C
FC7F
ENDCHAR
STARTCHAR 043B
ENCODING 1083
SWIDTH 1000 0
DWIDTH 28 0
BBX 17 15 4 0
BITMAP
07FF80
010600
010600
010600
010600
010600
010600
010600
020600
E20600
E20600
C20600
C21F80
440000
380000
ENDCHAR
STARTCHAR 043C
ENCODING 1084
SWIDTH 1000 0
DWIDTH 28 0
BBX 18 13 5 2
BITMAP
F807C0
380700
280B00
2C0B00
241300
261300
261300
222300
232300
214300
21C300
218300
F88FC0
ENDCHAR
STARTCHAR 043D
ENCODING 1085
SWIDTH 1000 0
DWIDTH 28 0
BBX 16 13 6 2
BITMAP
FC3F
300C
300C
300C
300C
300C
3FFC
300C
300C
300C
300C
300C
FC3F
ENDCHAR
STARTCHAR 043E
ENCODING 1086
SWIDTH 1000 0
DWIDTH 28 0
BBX 14 15 7 0
BITMAP
0FC0
1860
3010
6018
4008
C00C
C00C
C00C
C00C
C00C
E01C
6018
3030
1860
0FC0
ENDCHAR
STARTCHAR 043F
ENCODING 1087
SWIDTH 1000 0
DWIDTH 28 0
BBX 16 13 6 2
BITMAP
FFFF
300C
300C
300C
300C
300C
300C
300C
300C
300C
300C
300C
FC3F
ENDCHAR
STARTCHAR 0440
ENCODING 1088
SWIDTH 1000 0
DWIDTH 28 0
BBX 14 19 7 -3
BITMAP
1000
F7C0
3830
3018
3018
300C
300C
300C
300C
300C
3018
3818
3C30
33E0
3000
3000
3000
3000
FE00
ENDCHAR
STARTCHAR 0441
ENCODING 1089
SWIDTH 1000 0
DWIDTH 28 0
BBX 13 15 7 0
BITMAP
0FC0
1820
3030
6030
4000
C000
C000
C000
C000
E000
E008
7010
3810
1C60
0F80
ENDCHAR
STARTCHAR 0442
ENCODING 1090
SWIDTH 1000 0
DWIDTH 28 0
BBX 14 13 7 2
BITMAP
FFFC
C30C
8304
8304
0300
0300
0300
0300
0300
0300
0300
0300
0FC0
ENDCHAR
STARTCHAR 0443
ENCODING 1091
SWIDTH 1000 0
DWIDTH 28 0
BBX 17 18 6 -3
BITMAP
FE3F80
380C00
180C00
0C0800
0C1800
061000
061000
032000
032000
01C000
01C000
008000
008000
008000
010000
390000
320000
1C0000
ENDCHAR
STARTCHAR 0444
ENCODING 1092
SWIDTH 1000 0
DWIDTH 28 0
BBX 16 25 6 -3
BITMAP
0180
0780
0180
0180
0180
0180
0180
1FF8
218C
6186
C182
C183
C183
C183
C183
C183
C183
6186
318C
1FF8
0180
0180
0180
0180
07E0
ENDCHAR
STARTCHAR 0445
ENCODING 1093
SWIDTH 1000 0
DWIDTH 28 0
BBX 17 13 5 2
BITMAP
7F3F80
0C0C00
061800
033000
032000
01C000
00C000
016000
023000
041800
081C00
180E00
FE1F80
ENDCHAR
STARTCHAR 0446
ENCODING 1094
SWIDTH 1000 0
DWIDTH 28 0
BBX 16 17 6 -2
BITMAP
FC7E
3018
3018
3018
3018
3018
3018
3018
3018
3018
3018
3018
FFFF
0003
0001
0001
0001
ENDCHAR
STARTCHAR 0447
ENCODING 1095
SWIDTH 1000 0
DWIDTH 28 0
BBX 15 13 6 2
BITMAP
FC7E
3018
3018
3018
3018
3018
3818
0FF8
0018
0018
0018
0018
007E
ENDCHAR
STARTCHAR 0448
ENCODING 1096
SWIDTH 1000 0
DWIDTH 28 0
BBX 20 13 4 2
BITMAP
FDFBF0
3060C0
3060C0
3060C0
3060C0
3060C0
3060C0
3060C0
3060C0
3060C0
3060C0
3060C0
FFFFF0
ENDCHAR
STARTCHAR 0449
ENCODING 1097
SWIDTH 1000 0
DWIDTH 28 0
BBX 21 17 4 -2
BITMAP
FDFBF0
3060C0
3060C0
3060C0
3060C0
3060C0
3060C0
3060C0
3060C0
3060C0
3060C0
3060C0
FFFFF8
000018
000008
000008
000008
ENDCHAR
STARTCHAR 044A
ENCODING 1098
SWIDTH 1000 0
DWIDTH 28 0
BBX 16 13 6 2
BITMAP
FF00
8C00
8C00
8C00
0C00
0C00
0FF8
0C0E
0C03
0C03
0C03
0C06
3FF8
ENDCHAR
STARTCHAR 044B
ENCODING 1099
SWIDTH 1000 0
DWIDTH 28 0
BBX 18 13 5 2
BITMAP
FC0FC0
300300
300300
300300
300300
300300
3FC300
306300
303300
303300
303300
306300
FFCFC0
ENDCHAR
STARTCHAR 044C
ENCODING 1100
SWIDTH 1000 0
DWIDTH 28 0
BBX 14 13 8 2
BITMAP
FC00
3000
3000
3000
3000
3000
3FE0
3038
300C
300C
300C
3018
FFE0
ENDCHAR
STARTCHAR 044D
ENCODING 1101
SWIDTH 1000 0
DWIDTH 28 0
BBX 13 15 8 0
BITMAP
3F80
E0E0
C070
8030
0038
3818
4638
01D8
0018
0038
0030
8030
C060
60C0
1F00
ENDCHAR
STARTCHAR 044E
ENCODING 1102
SWIDTH 1000 0
DWIDTH 28 0
BBX 20 15 4 0
BITMAP
FC1F00
3071C0
30E0C0
30C060
318030
318030
3F8030
318030
318030
318030
308070
30C060
FC60E0
0071C0
001F00
ENDCHAR
STARTCHAR 044F
ENCODING 1103
SWIDTH 1000 0
DWIDTH 28 0
BBX 15 14 6 1
BITMAP
0FFE
1818
3018
3018
3018
1818
0FF8
0618
0618
0C18
1818
3018
607E
8000
ENDCHAR
STARTCHAR 0451
ENCODING 1105
SWIDTH 1000 0
DWIDTH 28 0
BBX 13 20 7 0
BITMAP
3870
3870
3870
0000
0000
0F80
1860
3030
6030
6018
E018
FFF8
C000
C000
E000
E008
6010
3010
3860
0F80
ENDCHAR
STARTCHAR 1E3E
ENCODING 7742
SWIDTH 964 0
DWIDTH 27 0
BBX 25 26 1 0
BITMAP
00020000
00070000
000E0000
00180000
00000000
00000000
FC001F80
1C003C00
16002C00
16002C00
16006C00
13004C00
1300CC00
11808C00
11808C00
11818C00
10C10C00
10C10C00
10E30C00
10620C00
10660C00
10340C00
10340C00
103C0C00
10180C00
FE187F80
ENDCHAR
STARTCHAR 1E3F
ENCODING 7743
SWIDTH 892 0
DWIDTH 25 0
BBX 22 20 2 1
BITMAP
000C00
001800
002000
000000
000000
000000
E7C3C0
2C6C60
383830
303030
303030
303030
303030
303030
303030
303030
303030
303030
303030
FCFCFC
ENDCHAR
STARTCHAR 1F70
ENCODING 8048
SWIDTH 571 0
DWIDTH 16 0
BBX 14 20 1 1
BITMAP
1800
0C00
0600
0000
0000
0000
0F10
30F0
6070
6030
C030
C030
C030
C030
C030
C030
6070
6070
30B0
1F1C
ENDCHAR
STARTCHAR 1F71
ENCODING 8049
SWIDTH 571 0
DWIDTH 16 0
BBX 14 20 1 1
BITMAP
00C0
0180
0200
0000
0000
0000
0F10
30F0
6070
6030
C030
C030
C030
C030
C030
C030
6070
6070
30B0
1F1C
ENDCHAR
STARTCHAR 1F72
ENCODING 8050
SWIDTH 535 0
DWIDTH 15 0
BBX 11 20 2 1
BITMAP
3000
1800
0C00
0000
0000
0000
1FC0
6000
C000
C000
C000
6700
1F00
6000
C000
C000
C000
C000
6060
3F80
ENDCHAR
STARTCHAR 1F73
ENCODING 8051
SWIDTH 535 0
DWIDTH 15 0
BBX 11 20 2 1
BITMAP
0180
0300
0600
0000
0000
0000
1FC0
6000
C000
C000
C000
6700
1F00
6000
C000
C000
C000
C000
6060
3F80
ENDCHAR
STARTCHAR 2002
ENCODING 8194
SWIDTH 500 0
DWIDTH 14 0
BBX 0 0 0 0
BITMAP
ENDCHAR
STARTCHAR 2003
ENCODING 8195
SWIDTH 1000 0
DWIDTH 28 0
BBX 0 0 0 0
BITMAP
ENDCHAR
STARTCHAR 2010
ENCODING 8208
SWIDTH 285 0
DWIDTH 8 0
BBX 6 2 1 7
BITMAP
FC
FC
ENDCHAR
STARTCHAR 2011
ENCODING 8209
SWIDTH 285 0
DWIDTH 8 0
BBX 6 2 1 7
BITMAP
FC
FC
ENDCHAR
STARTCHAR 2012
ENCODING 8210
SWIDTH 285 0
DWIDTH 8 0
BBX 6 2 1 7
BITMAP
FC
FC
ENDCHAR
STARTCHAR 2013
ENCODING 8211
SWIDTH 535 0
DWIDTH 15 0
BBX 13 1 1 8
BITMAP
FFF8
ENDCHAR
STARTCHAR 2014
ENCODING 8212
SWIDTH 892 0
DWIDTH 25 0
BBX 25 1 0 10
BITMAP
FFFFFF80
ENDCHAR
STARTCHAR 2015
ENCODING 8213
SWIDTH 1000 0
DWIDTH 28 0
BBX 26 1 1 10
BITMAP
FFFFFFC0
ENDCHAR
STARTCHAR 2016
ENCODING 8214
SWIDTH 1000 0
DWIDTH 28 0
BBX 6 28 11 -4
BITMAP
84
84
84
84
84
84
84
84
84
84
84
84
84
84
84
84
84
84
84
84
84
84
84
84
84
84
84
84
ENDCHAR
STARTCHAR 2018
ENCODING 8216
SWIDTH 1000 0
DWIDTH 28 0
BBX 4 8 22 16
BITMAP
10
20
40
40
C0
F0
F0
60
ENDCHAR
STARTCHAR 2019
ENCODING 8217
SWIDTH 1000 0
DWIDTH 28 0
BBX 3 7 3 15
BITMAP
C0
E0
E0
60
40
C0
80
ENDCHAR
STARTCHAR 201C
ENCODING 8220
SWIDTH 1000 0
DWIDTH 28 0
BBX 10 8 16 16
BITMAP
0040
3080
6100
4100
C300
F3C0
F3C0
6180
ENDCHAR
STARTCHAR 201D
ENCODING 8221
SWIDTH 1000 0
DWIDTH 28 0
BBX 9 7 3 15
BITMAP
C300
E780
E780
6180
4100
C300
8600
ENDCHAR
STARTCHAR 2020
ENCODING 8224
SWIDTH 1000 0
DWIDTH 28 0
BBX 11 25 8 -2
BITMAP
0E00
0E00
0E00
0E00
64C0
FFE0
FFE0
75C0
0400
0E00
0E00
0E00
0400
0400
0400
0400
0400
0400
0400
0400
0400
0400
0400
0400
0400
ENDCHAR
STARTCHAR 2021
ENCODING 8225
SWIDTH 1000 0
DWIDTH 28 0
BBX 12 26 8 -2
BITMAP
0F00
0F00
0F00
0600
E6F0
FFF0
F4F0
0600
0600
0600
0600
0400
0400
0400
0400
0600
0600
0600
0600
E670
FDF0
FFF0
0600
0F00
0F00
0F00
ENDCHAR
STARTCHAR 2022
ENCODING 8226
SWIDTH 357 0
DWIDTH 10 0
BBX 4 4 3 7
BITMAP
60
F0
F0
60
ENDCHAR
STARTCHAR 2025
ENCODING 8229
SWIDTH 1000 0
DWIDTH 28 0
BBX 18 4 5 9
BITMAP
600180
F003C0
F003C0
600180
ENDCHAR
STARTCHAR 2026
ENCODING 8230
SWIDTH 1000 0
DWIDTH 28 0
BBX 22 3 3 9
BITMAP
E0701C
E0701C
E0701C
ENDCHAR
STARTCHAR 2030
ENCODING 8240
SWIDTH 1000 0
DWIDTH 28 0
BBX 24 25 2 -1
BITMAP
000400
380800
6C0800
C61000
C61000
C62000
C62000
C66000
C64000
C6C000
6C8000
398000
010000
03381C
026C36
06C663
04C663
0CC663
08C663
18C663
10C663
30C663
206C36
60381C
400000
ENDCHAR
STARTCHAR 2032
ENCODING 8242
SWIDTH 250 0
DWIDTH 7 0
BBX 4 7 1 16
BITMAP
30
30
20
60
40
40
80
ENDCHAR
STARTCHAR 2033
ENCODING 8243
SWIDTH 392 0
DWIDTH 11 0
BBX 8 7 1 16
BITMAP
31
33
23
62
42
44
84
ENDCHAR
STARTCHAR 203B
ENCODING 8251
SWIDTH 1000 0
DWIDTH 28 0
BBX 22 22 3 -1
BITMAP
003000
C0780C
607818
303830
180060
0C00C0
060180
030300
018600
60CC18
F0783C
F0303C
707818
00CC00
018600
030300
060180
0C00C0
183060
307830
607818
C0380C
ENDCHAR
STARTCHAR 203C
ENCODING 8252
SWIDTH 464 0
DWIDTH 13 0
BBX 8 20 2 0
BITMAP
63
63
63
63
63
63
63
63
63
63
63
63
21
22
00
00
00
E7
E7
E7
ENDCHAR
STARTCHAR 203E
ENCODING 8254
SWIDTH 500 0
DWIDTH 14 0
BBX 8 1 3 18
BITMAP
FF
ENDCHAR
STARTCHAR 203F
ENCODING 8255
SWIDTH 428 0
DWIDTH 12 0
BBX 12 3 0 -3
BITMAP
8000
6070
1F80
ENDCHAR
STARTCHAR 2042
ENCODING 8258
SWIDTH 1000 0
DWIDTH 28 0
BBX 20 21 4 0
BITMAP
006000
006000
036C00
01D800
006000
01F800
036C00
006000
006000
000000
000000
180180
180180
DB0DB0
6E0760
140380
3C02C0
EF0D70
DB0DB0
180180
180180
ENDCHAR
STARTCHAR 2047
ENCODING 8263
SWIDTH 964 0
DWIDTH 27 0
BBX 24 20 1 0
BITMAP
1F80F8
30C30E
606606
C03403
E03603
E03703
E03703
006006
00C00E
018018
030030
060020
040060
040040
040040
000000
000000
0E00E0
0E00E0
0E00E0
ENDCHAR
STARTCHAR 2048
ENCODING 8264
SWIDTH 714 0
DWIDTH 20 0
BBX 16 20 1 0
BITMAP
1F83
30C3
6063
C033
E033
E033
E033
0063
00C3
0183
0303
0603
0401
0402
0400
0000
0000
0E07
0E07
0E07
ENDCHAR
STARTCHAR 2049
ENCODING 8265
SWIDTH 714 0
DWIDTH 20 0
BBX 16 20 2 0
BITMAP
60F8
610E
6206
6603
6703
6703
6703
6006
600E
601C
6030
6020
2020
2060
0060
0000
0000
E070
E070
E070
ENDCHAR
STARTCHAR 2051
ENCODING 8273
SWIDTH 1000 0
DWIDTH 28 0
BBX 8 22 10 0
BITMAP
18
18
DB
F7
3C
3C
FF
DB
18
00
00
00
00
18
18
DB
76
18
76
DB
18
18
ENDCHAR
STARTCHAR 205A
ENCODING 8282
SWIDTH 1000 0
DWIDTH 28 0
BBX 4 18 12 2
BITMAP
60
F0
F0
60
00
00
00
00
00
00
00
00
00
00
60
F0
F0
60
ENDCHAR
STARTCHAR 205D
ENCODING 8285
SWIDTH 1000 0
DWIDTH 28 0
BBX 3 21 12 0
BITMAP
E0
E0
E0
00
00
00
00
00
00
E0
E0
E0
00
00
00
00
00
00
E0
E0
E0
ENDCHAR
STARTCHAR 20AC
ENCODING 8364
SWIDTH 607 0
DWIDTH 17 0
BBX 15 20 0 1
BITMAP
01FA
070E
0C06
1802
1802
3002
3000
3000
FFE0
3000
3000
FFE0
3000
3000
3000
3802
1802
0C06
060C
03F0
ENDCHAR
STARTCHAR 2103
ENCODING 8451
SWIDTH 1000 0
DWIDTH 28 0
BBX 23 22 1 2
BITMAP
780000
CC1F80
847074
CCC01C
79800C
01800C
030004
030004
060000
060000
060000
060000
060000
060000
060000
030002
030002
038004
01800C
00C018
007070
001FC0
ENDCHAR
STARTCHAR 210F
ENCODING 8463
SWIDTH 535 0
DWIDTH 15 0
BBX 13 20 1 1
BITMAP
3C00
0C00
0FC0
3F00
0800
1800
18E0
1330
1430
3430
3830
3030
3060
6060
6060
6060
40C8
C0C8
C0D0
C0E0
ENDCHAR
STARTCHAR 2113
ENCODING 8467
SWIDTH 1000 0
DWIDTH 28 0
BBX 13 21 7 0
BITMAP
00E0
0190
0310
0210
0610
0410
0C30
0C20
0820
0860
1840
1880
1980
1100
1200
1C00
1808
7810
9830
0C60
0780
ENDCHAR
STARTCHAR 2116
ENCODING 8470
SWIDTH 1000 0
DWIDTH 28 0
BBX 25 20 1 1
BITMAP
F0F80000
30200000
38200000
28200000
2C200000
2C200000
2620E000
26231800
22220800
23240400
21240400
21A40400
21A40400
20A40400
20E40400
20640400
20640400
20620B80
F8231B80
0020E380
ENDCHAR
STARTCHAR 2121
ENCODING 8481
SWIDTH 1000 0
DWIDTH 28 0
BBX 25 19 1 2
BITMAP
FFC00000
C8C00000
88400000
88400000
08000000
087FBC00
08108800
08108800
08100800
08110800
08110800
081F0800
08110800
08110800
08100800
08100880
08108880
08108880
3F7FBF80
ENDCHAR
STARTCHAR 2127
ENCODING 8487
SWIDTH 857 0
DWIDTH 24 0
BBX 20 20 2 0
BITMAP
FF9FE0
FF1FE0
C20820
840630
880310
980190
100080
3000C0
2000C0
600060
600060
600060
600060
600060
600060
3000C0
3801C0
1C0380
060600
01F800
ENDCHAR
STARTCHAR 212B
ENCODING 8491
SWIDTH 1000 0
DWIDTH 28 0
BBX 20 22 4 2
BITMAP
006000
009000
011000
00B000
004000
006000
00E000
00B000
00B000
011800
011800
021800
020C00
060C00
040600
07FE00
080600
080300
180300
100180
300180
FC0FF0
ENDCHAR
STARTCHAR 2135
ENCODING 8501
SWIDTH 678 0
DWIDTH 19 0
BBX 16 20 2 0
BITMAP
2008
6010
C018
C00C
C00E
E009
7011
3822
1E20
3740
63C0
60F0
6078
601C
300E
3006
3006
3006
700C
C008
ENDCHAR
STARTCHAR 2153
ENCODING 8531
SWIDTH 750 0
DWIDTH 21 0
BBX 17 20 2 0
BITMAP
E00300
200600
200400
200800
201800
201000
202000
206000
204000
F88F00
01B180
013080
023080
060100
040E00
080100
180180
303180
202380
401F00
ENDCHAR
STARTCHAR 2154
ENCODING 8532
SWIDTH 750 0
DWIDTH 21 0
BBX 19 20 1 0
BITMAP
3C0080
460180
660100
660200
0C0600
180C00
300800
611800
433000
FE2780
004C40
00CC20
008C20
010040
030380
060040
040060
080C60
1808E0
1007C0
ENDCHAR
STARTCHAR 2155
ENCODING 8533
SWIDTH 750 0
DWIDTH 21 0
BBX 17 20 2 0
BITMAP
E00300
200600
200400
200C00
201800
201000
202000
206000
204000
608000
119F80
011000
022000
062E00
043380
080180
180180
303180
202300
401E00
ENDCHAR
STARTCHAR 2160
ENCODING 8544
SWIDTH 1000 0
DWIDTH 28 0
BBX 8 19 10 2
BITMAP
FF
18
18
18
18
18
18
18
18
18
18
18
18
18
18
18
18
18
FF
ENDCHAR
STARTCHAR 2161
ENCODING 8545
SWIDTH 1000 0
DWIDTH 28 0
BBX 18 19 5 2
BITMAP
FFFFC0
180600
180600
180600
180600
180600
180600
180600
180600
180600
180600
180600
180600
180600
180600
180600
180600
180600
FFFFC0
ENDCHAR
STARTCHAR 2162
ENCODING 8546
SWIDTH 1000 0
DWIDTH 28 0
BBX 24 19 2 2
BITMAP
FFFFFF
181818
181818
181818
181818
181818
181818
181818
181818
181818
181818
181818
181818
181818
181818
181818
181818
181818
FFFFFF
ENDCHAR
STARTCHAR 2163
ENCODING 8547
SWIDTH 1000 0
DWIDTH 28 0
BBX 24 20 2 1
BITMAP
FFFC3F
18E006
186004
186004
183008
183008
183808
181810
181810
180C20
180C20
180C20
180640
180640
180640
180380
180380
180380
FF0100
000100
ENDCHAR
STARTCHAR 2164
ENCODING 8548
SWIDTH 1000 0
DWIDTH 28 0
BBX 20 20 4 1
BITMAP
FE07F0
3000C0
1000C0
180080
180180
0C0100
0C0300
040200
060200
060600
030400
030400
018800
018800
00C800
00D000
00F000
006000
006000
002000
ENDCHAR
STARTCHAR 2165
ENCODING 8549
SWIDTH 1000 0
DWIDTH 28 0
BBX 24 20 2 1
BITMAP
FE1FFF
700318
300218
300218
180418
180418
1C0C18
0C0818
0C0818
061018
061018
061018
032018
032018
032018
01C018
01C018
01C018
0080FF
008000
ENDCHAR
STARTCHAR 2166
ENCODING 8550
SWIDTH 1000 0
DWIDTH 28 0
BBX 26 20 0 1
BITMAP
FE1FFFC0
38066300
18046300
18046300
1C0C6300
0C086300
0C086300
0C186300
06106300
06106300
06306300
03206300
03206300
03206300
03406300
01C06300
01C06300
01806300
0081FFC0
00800000
ENDCHAR
STARTCHAR 2167
ENCODING 8551
SWIDTH 1000 0
DWIDTH 28 0
BBX 26 20 1 1
BITMAP
FC7FFFC0
3019B300
3011B300
3011B300
1831B300
1831B300
1821B300
0821B300
0C61B300
0C41B300
0C41B300
0641B300
06C1B300
0681B300
0281B300
0381B300
0301B300
0301B300
0107FFC0
01000000
ENDCHAR
STARTCHAR 2168
ENCODING 8552
SWIDTH 1000 0
DWIDTH 28 0
BBX 24 19 2 2
BITMAP
FFFE7F
183818
181810
180C30
180C20
180640
180640
180380
180380
180180
1802C0
1802C0
180460
180860
180830
181038
182018
18201C
FFFC7F
ENDCHAR
STARTCHAR 2169
ENCODING 8553
SWIDTH 1000 0
DWIDTH 28 0
BBX 21 19 4 2
BITMAP
FF0FE0
380380
0C0300
0C0600
060400
030800
019800
00F000
00E000
007000
00B000
011800
030C00
060E00
040700
080300
100180
3001C0
FE07F8
ENDCHAR
STARTCHAR 216A
ENCODING 8554
SWIDTH 1000 0
DWIDTH 28 0
BBX 24 19 2 2
BITMAP
FF3FFF
180818
080818
0C1018
063018
062018
034018
034018
018018
01C018
01C018
026018
066018
043018
081818
081818
100C18
300E18
FC3FFF
ENDCHAR
STARTCHAR 216B
ENCODING 8555
SWIDTH 1000 0
DWIDTH 28 0
BBX 26 19 0 2
BITMAP
7F3FFFC0
1C086300
0C086300
0E106300
06106300
03206300
03406300
01C06300
01806300
00C06300
01C06300
02606300
02706300
04306300
04186300
08186300
100C6300
300E6300
FE3FFFC0
ENDCHAR
STARTCHAR 2170
ENCODING 8560
SWIDTH 1000 0
DWIDTH 28 0
BBX 6 20 11 2
BITMAP
30
70
70
00
00
00
10
F0
30
30
30
30
30
30
30
30
30
30
30
FC
ENDCHAR
STARTCHAR 2171
ENCODING 8561
SWIDTH 1000 0
DWIDTH 28 0
BBX 14 20 7 2
BITMAP
3030
7070
7070
0000
0000
0000
1010
F0F0
3030
3030
3030
3030
3030
3030
3030
3030
3030
3030
3030
FCFC
ENDCHAR
STARTCHAR 2172
ENCODING 8562
SWIDTH 1000 0
DWIDTH 28 0
BBX 20 20 4 2
BITMAP
3060C0
70E1C0
70E1C0
000000
000000
000000
102040
F1E3C0
3060C0
3060C0
3060C0
3060C0
3060C0
3060C0
3060C0
3060C0
3060C0
3060C0
3060C0
FFFFF0
ENDCHAR
STARTCHAR 2173
ENCODING 8563
SWIDTH 1000 0
DWIDTH 28 0
BBX 21 21 5 1
BITMAP
300000
700000
700000
000000
000000
000000
100000
F3F1F8
30C020
30C020
306040
306040
303080
303080
301100
301900
301A00
300E00
300E00
FC0400
000400
ENDCHAR
STARTCHAR 2174
ENCODING 8564
SWIDTH 1000 0
DWIDTH 28 0
BBX 16 13 6 1
BITMAP
FC3F
300C
1008
1808
0810
0C10
0C30
0620
0660
0340
0340
0180
0180
ENDCHAR
STARTCHAR 2175
ENCODING 8565
SWIDTH 1000 0
DWIDTH 28 0
BBX 22 20 2 1
BITMAP
000030
000070
000070
000000
000000
000000
000010
FE3FF0
380C30
180830
1C1830
0C1030
0C1030
062030
062030
024030
034030
034030
018030
0180FC
ENDCHAR
STARTCHAR 2176
ENCODING 8566
SWIDTH 1000 0
DWIDTH 28 0
BBX 25 21 1 1
BITMAP
0000C600
0001CE00
0001CE00
00000000
00000000
00000000
00004000
FC7FDE00
3008C600
1008C600
1810C600
0810C600
0C20C600
0C20C600
0620C600
0640C600
0240C600
0380C600
0180C600
0103FF80
01000000
ENDCHAR
STARTCHAR 2177
ENCODING 8567
SWIDTH 1000 0
DWIDTH 28 0
BBX 26 20 1 1
BITMAP
00077700
00077700
00077700
00000000
00000000
00000000
00010000
FC7FFF00
301B3300
30133300
18333300
18233300
08233300
0C433300
0C433300
04833300
06833300
06833300
03033300
030FFFC0
ENDCHAR
STARTCHAR 2178
ENCODING 8568
SWIDTH 1000 0
DWIDTH 28 0
BBX 21 20 5 2
BITMAP
300000
700000
700000
000000
000000
000000
000000
F1F9F0
3060C0
303180
301900
300B00
300E00
300600
300B00
301300
302180
3060C0
30C0E0
FFF1F8
ENDCHAR
STARTCHAR 2179
ENCODING 8569
SWIDTH 1000 0
DWIDTH 28 0
BBX 17 13 5 2
BITMAP
7F3F80
0C0C00
061800
033000
032000
01C000
00C000
016000
023000
041800
081C00
180E00
FE1F80
ENDCHAR
STARTCHAR 217A
ENCODING 8570
SWIDTH 1000 0
DWIDTH 28 0
BBX 22 20 2 2
BITMAP
000030
000070
000070
000000
000000
000000
000000
7E7EF0
0C1030
062030
062030
034030
018030
018030
02C030
066030
0C3030
083030
101830
FC7FFC
ENDCHAR
STARTCHAR 217B
ENCODING 8571
SWIDTH 1000 0
DWIDTH 28 0
BBX 25 20 1 2
BITMAP
0000C600
0001CE00
0001CE00
00000000
00000000
00000000
00004000
7E7FDE00
1810C600
0C20C600
0640C600
03C0C600
0380C600
0180C600
02C0C600
0460C600
0820C600
1830C600
3018C600
FC7FFF80
ENDCHAR
STARTCHAR 2190
ENCODING 8592
SWIDTH 1000 0
DWIDTH 28 0
BBX 24 9 2 6
BITMAP
060000
1C0000
300000
600000
FFFFFF
600000
300000
1C0000
060000
ENDCHAR
STARTCHAR 2191
ENCODING 8593
SWIDTH 1000 0
DWIDTH 28 0
BBX 9 24 9 -1
BITMAP
0800
1C00
3E00
2A00
6B00
C980
8880
0800
0800
0800
0800
0800
0800
0800
0800
0800
0800
0800
0800
0800
0800
0800
0800
0800
ENDCHAR
STARTCHAR 2192
ENCODING 8594
SWIDTH 1000 0
DWIDTH 28 0
BBX 24 9 2 6
BITMAP
000060
000038
00000C
000006
FFFFFF
000006
00000C
000038
000060
ENDCHAR
STARTCHAR 2193
ENCODING 8595
SWIDTH 1000 0
DWIDTH 28 0
BBX 10 25 8 -2
BITMAP
0400
0400
0400
0400
0400
0400
0400
0400
0400
0400
0400
0400
0400
0400
0400
0400
0400
8440
4440
64C0
3580
1F00
0E00
0E00
0400
ENDCHAR
STARTCHAR 2194
ENCODING 8596
SWIDTH 750 0
DWIDTH 21 0
BBX 17 11 2 3
BITMAP
081000
180800
300400
600600
400300
FFFF80
C00300
600200
300400
180C00
0C1800
ENDCHAR
STARTCHAR 2196
ENCODING 8598
SWIDTH 1000 0
DWIDTH 28 0
BBX 20 19 4 1
BITMAP
FF0000
618000
700000
580000
4C0000
460000
430000
418000
20C000
006000
003000
001800
000C00
000600
000300
000180
0000C0
000060
000030
ENDCHAR
STARTCHAR 2197
ENCODING 8599
SWIDTH 1000 0
DWIDTH 28 0
BBX 20 19 4 1
BITMAP
000FF0
001870
0000E0
0001A0
000320
000620
000C20
001820
003040
006000
00C000
018000
030000
060000
0C0000
180000
300000
600000
C00000
ENDCHAR
STARTCHAR 2198
ENCODING 8600
SWIDTH 1000 0
DWIDTH 28 0
BBX 20 19 4 1
BITMAP
C00000
600000
300000
180000
0C0000
060000
030000
018000
00C000
006000
003040
001820
000C20
000620
000320
0001A0
0000E0
001F70
0007F0
ENDCHAR
STARTCHAR 2199
ENCODING 8601
SWIDTH 1000 0
DWIDTH 28 0
BBX 20 19 4 1
BITMAP
000030
000060
0000C0
000180
000300
000600
000C00
001800
003000
006000
20C000
418000
430000
460000
4C0000
580000
700000
EF8000
FE0000
ENDCHAR
STARTCHAR 21C4
ENCODING 8644
SWIDTH 1000 0
DWIDTH 28 0
BBX 24 21 2 0
BITMAP
000060
000018
00000C
000006
FFFFFF
000006
00000C
000018
000030
000060
000000
060000
0C0000
180000
300000
600000
FFFFFF
600000
300000
180000
060000
ENDCHAR
STARTCHAR 21D2
ENCODING 8658
SWIDTH 750 0
DWIDTH 21 0
BBX 17 12 2 3
BITMAP
001000
000800
000C00
FFFE00
000300
000180
000180
000300
FFFE00
000C00
001800
001000
ENDCHAR
STARTCHAR 21D4
ENCODING 8660
SWIDTH 750 0
DWIDTH 21 0
BBX 17 12 2 3
BITMAP
0C1000
180800
100C00
3FFE00
400300
C00180
C00180
400300
3FFE00
100C00
080800
0C1000
ENDCHAR
STARTCHAR 21E6
ENCODING 8678
SWIDTH 1000 0
DWIDTH 28 0
BBX 22 9 3 6
BITMAP
020000
0E0000
320000
41FFFC
C00004
21FFFC
1A0000
060000
020000
ENDCHAR
STARTCHAR 21E7
ENCODING 8679
SWIDTH 1000 0
DWIDTH 28 0
BBX 8 22 10 1
BITMAP
10
18
24
24
42
42
81
6E
28
28
28
28
28
28
28
28
28
28
28
28
28
18
ENDCHAR
STARTCHAR 21E8
ENCODING 8680
SWIDTH 1000 0
DWIDTH 28 0
BBX 22 9 3 6
BITMAP
000100
0002C0
000230
FFFC08
80000C
FFFE10
000260
000280
000100
ENDCHAR
STARTCHAR 21E9
ENCODING 8681
SWIDTH 1000 0
DWIDTH 28 0
BBX 8 22 10 -1
BITMAP
18
28
28
28
28
28
28
28
28
28
28
28
28
28
28
E7
82
42
44
24
28
18
ENDCHAR
STARTCHAR 2200
ENCODING 8704
SWIDTH 750 0
DWIDTH 21 0
BBX 19 20 1 0
BITMAP
C00060
C00040
4000C0
600080
200180
300100
100300
1FFE00
080600
0C0400
040C00
060800
020800
031800
011000
013000
00A000
00E000
004000
004000
ENDCHAR
STARTCHAR 2202
ENCODING 8706
SWIDTH 571 0
DWIDTH 16 0
BBX 13 21 2 0
BITMAP
07C0
0860
1030
0030
0018
0018
0018
0018
0018
0F18
3898
6078
6038
C030
C030
C070
C060
C0E0
60C0
6380
1E00
ENDCHAR
STARTCHAR 2203
ENCODING 8707
SWIDTH 750 0
DWIDTH 21 0
BBX 14 20 3 0
BITMAP
FFFC
0004
0004
0004
0004
0004
0004
0004
0004
FFFC
0004
0004
0004
0004
0004
0004
0004
0004
0004
FFFC
ENDCHAR
STARTCHAR 2205
ENCODING 8709
SWIDTH 785 0
DWIDTH 22 0
BBX 18 17 2 2
BITMAP
03F080
0C0D80
100300
200700
400C80
4018C0
803040
806040
80C040
818040
830040
C60080
4C0080
780100
300200
7C0C00
43F000
ENDCHAR
STARTCHAR 2207
ENCODING 8711
SWIDTH 750 0
DWIDTH 21 0
BBX 18 20 1 -1
BITMAP
FFFFC0
7FFFC0
600080
300080
300180
180100
180300
0C0200
0C0600
0E0400
060C00
070800
030800
031000
019000
01B000
00E000
00E000
00C000
004000
ENDCHAR
STARTCHAR 2208
ENCODING 8712
SWIDTH 678 0
DWIDTH 19 0
BBX 15 14 2 2
BITMAP
0FFE
1800
6000
4000
C000
8000
FFFE
8000
8000
C000
4000
6000
3800
0FFE
ENDCHAR
STARTCHAR 2209
ENCODING 8713
SWIDTH 678 0
DWIDTH 19 0
BBX 15 18 2 0
BITMAP
0010
0030
0FFE
1860
2040
40C0
80C0
8080
FFFE
8100
8300
C300
4200
6600
3600
0FFE
0C00
0800
ENDCHAR
STARTCHAR 220B
ENCODING 8715
SWIDTH 678 0
DWIDTH 19 0
BBX 15 14 2 2
BITMAP
FFC0
0030
0008
0004
0006
0002
FFFE
0002
0002
0006
0004
000C
0038
FFE0
ENDCHAR
STARTCHAR 2212
ENCODING 8722
SWIDTH 678 0
DWIDTH 19 0
BBX 15 1 2 9
BITMAP
FFFE
ENDCHAR
STARTCHAR 2213
ENCODING 8723
SWIDTH 678 0
DWIDTH 19 0
BBX 15 15 2 1
BITMAP
FFFE
0000
0100
0100
0100
0100
0100
0100
FFFE
0100
0100
0100
0100
0100
0100
ENDCHAR
STARTCHAR 2219
ENCODING 8729
SWIDTH 250 0
DWIDTH 7 0
BBX 3 3 2 7
BITMAP
E0
E0
E0
ENDCHAR
STARTCHAR 221A
ENCODING 8730
SWIDTH 535 0
DWIDTH 15 0
BBX 14 26 1 -2
BITMAP
0004
0004
000C
0008
0008
0010
0010
0030
0020
0020
0060
0040
0040
00C0
2080
2080
2180
7100
7100
9300
9A00
1A00
0C00
0C00
0C00
0800
ENDCHAR
STARTCHAR 221D
ENCODING 8733
SWIDTH 678 0
DWIDTH 19 0
BBX 13 9 3 5
BITMAP
3C38
4668
82C0
8380
8180
8180
8280
46C0
3C38
ENDCHAR
STARTCHAR 221E
ENCODING 8734
SWIDTH 678 0
DWIDTH 19 0
BBX 17 9 1 5
BITMAP
3C1E00
463100
836180
814080
818080
81C080
814080
426100
3C1E00
ENDCHAR
STARTCHAR 221F
ENCODING 8735
SWIDTH 678 0
DWIDTH 19 0
BBX 14 16 3 3
BITMAP
8000
8000
8000
8000
8000
8000
8000
8000
8000
8000
8000
8000
8000
8000
8000
FFFC
ENDCHAR
STARTCHAR 2220
ENCODING 8736
SWIDTH 678 0
DWIDTH 19 0
BBX 17 17 1 2
BITMAP
004000
004000
00C000
008000
018000
010000
030000
060000
060000
0C0000
080000
180000
100000
300000
200000
600000
FFFF80
ENDCHAR
STARTCHAR 2225
ENCODING 8741
SWIDTH 678 0
DWIDTH 19 0
BBX 13 25 3 -1
BITMAP
0088
0088
0118
0110
0310
0220
0220
0620
0440
0440
0CC0
0880
0880
1980
1100
1100
3300
2200
2200
6600
4400
4400
CC00
8800
8800
ENDCHAR
STARTCHAR 2226
ENCODING 8742
SWIDTH 678 0
DWIDTH 19 0
BBX 13 25 3 -1
BITMAP
0088
0198
0110
0110
0330
8220
C220
6660
3440
1C40
0CC0
0E80
0B80
1980
11C0
1140
3320
2210
2208
6600
4400
4400
CC00
8800
8800
ENDCHAR
STARTCHAR 2227
ENCODING 8743
SWIDTH 678 0
DWIDTH 19 0
BBX 15 15 2 1
BITMAP
0100
0380
0280
06C0
0440
0C60
0820
1830
1010
3010
2008
2008
600C
4004
C006
ENDCHAR
STARTCHAR 2228
ENCODING 8744
SWIDTH 678 0
DWIDTH 19 0
BBX 15 15 2 2
BITMAP
C006
4004
600C
2008
3018
1010
1030
1830
0820
0C60
0440
06C0
0280
0380
0100
ENDCHAR
STARTCHAR 2229
ENCODING 8745
SWIDTH 678 0
DWIDTH 19 0
BBX 13 16 3 1
BITMAP
0F80
3060
6030
4010
8008
8008
8008
8008
8008
8008
8008
8008
8008
8008
8008
8008
ENDCHAR
STARTCHAR 222A
ENCODING 8746
SWIDTH 678 0
DWIDTH 19 0
BBX 13 17 3 0
BITMAP
8008
8008
8008
8008
8008
8008
8008
8008
8008
8008
8008
8008
8018
4010
6030
3060
0F80
ENDCHAR
STARTCHAR 222B
ENCODING 8747
SWIDTH 571 0
DWIDTH 16 0
BBX 14 25 1 -5
BITMAP
0078
00CC
008C
0180
0180
0100
0100
0300
0300
0300
0300
0300
0300
0300
0300
0300
0300
0300
0200
0600
0600
C600
C400
CC00
7800
ENDCHAR
STARTCHAR 222C
ENCODING 8748
SWIDTH 892 0
DWIDTH 25 0
BBX 23 25 1 -5
BITMAP
00783C
00CC66
008C46
0180C0
0180C0
010080
010180
030180
030180
030180
030180
030180
030180
030180
030180
030180
030180
030100
020100
060300
060300
C66300
C46200
CC6600
783C00
ENDCHAR
STARTCHAR 222E
ENCODING 8750
SWIDTH 571 0
DWIDTH 16 0
BBX 14 25 1 -5
BITMAP
0078
00CC
008C
0180
0180
0100
0100
0300
0700
0BC0
1320
1320
1320
1320
0B40
0780
0300
0200
0200
0200
0600
C600
C400
CC00
7800
ENDCHAR
STARTCHAR 2234
ENCODING 8756
SWIDTH 678 0
DWIDTH 19 0
BBX 15 14 2 2
BITMAP
0180
03C0
03C0
0180
0000
0000
0000
0000
0000
0000
600C
F01E
F01E
600C
ENDCHAR
STARTCHAR 2235
ENCODING 8757
SWIDTH 678 0
DWIDTH 19 0
BBX 15 14 2 2
BITMAP
600C
F01E
F01E
600C
0000
0000
0000
0000
0000
0000
0180
03C0
03C0
0180
ENDCHAR
STARTCHAR 223C
ENCODING 8764
SWIDTH 500 0
DWIDTH 14 0
BBX 7 3 4 17
BITMAP
E0
B2
0C
ENDCHAR
STARTCHAR 223D
ENCODING 8765
SWIDTH 678 0
DWIDTH 19 0
BBX 17 9 1 5
BITMAP
001E00
387100
406080
80C080
808080
818080
830180
470100
3C0E00
ENDCHAR
STARTCHAR 2243
ENCODING 8771
SWIDTH 678 0
DWIDTH 19 0
BBX 15 7 2 6
BITMAP
3E02
C3C4
8078
0000
0000
0000
FFFE
ENDCHAR
STARTCHAR 2245
ENCODING 8773
SWIDTH 678 0
DWIDTH 19 0
BBX 15 11 2 4
BITMAP
3C02
4702
81C4
0078
0000
0000
FFFE
0000
0000
0000
FFFE
ENDCHAR
STARTCHAR 2248
ENCODING 8776
SWIDTH 678 0
DWIDTH 19 0
BBX 15 9 2 4
BITMAP
3C02
4702
81C4
0078
0000
3C02
4702
81C4
0078
ENDCHAR
STARTCHAR 2252
ENCODING 8786
SWIDTH 678 0
DWIDTH 19 0
BBX 15 18 2 0
BITMAP
3000
7800
7800
3000
0000
0000
FFFE
0000
0000
0000
0000
FFFE
0000
0000
0018
003C
003C
0018
ENDCHAR
STARTCHAR 2260
ENCODING 8800
SWIDTH 678 0
DWIDTH 19 0
BBX 15 16 2 1
BITMAP
0060
0060
0040
00C0
00C0
FFFE
0180
0100
0100
0300
FFFE
0600
0600
0400
0400
0C00
ENDCHAR
STARTCHAR 2261
ENCODING 8801
SWIDTH 678 0
DWIDTH 19 0
BBX 15 10 2 4
BITMAP
FFFE
0000
0000
0000
FFFE
0000
0000
0000
0000
FFFE
ENDCHAR
STARTCHAR 2262
ENCODING 8802
SWIDTH 678 0
DWIDTH 19 0
BBX 15 16 2 1
BITMAP
0060
0060
0040
FFFE
0080
0080
0180
FFFE
0300
0300
0200
0200
FFFE
0400
0400
0C00
ENDCHAR
STARTCHAR 2266
ENCODING 8806
SWIDTH 678 0
DWIDTH 19 0
BBX 15 17 2 2
BITMAP
0006
007C
03C0
1E00
F000
C000
3800
0780
00F0
001E
0002
0000
FFFE
0000
0000
0000
FFFE
ENDCHAR
STARTCHAR 2267
ENCODING 8807
SWIDTH 678 0
DWIDTH 19 0
BBX 15 17 2 2
BITMAP
C000
3C00
0780
00F0
001E
0006
0038
03C0
1E00
F000
8000
0000
FFFE
0000
0000
0000
FFFE
ENDCHAR
STARTCHAR 226A
ENCODING 8810
SWIDTH 678 0
DWIDTH 19 0
BBX 15 15 2 2
BITMAP
00C6
030C
0618
0C70
30C0
6180
C700
C600
6380
30C0
1C60
0638
030C
01C6
0002
ENDCHAR
STARTCHAR 226B
ENCODING 8811
SWIDTH 678 0
DWIDTH 19 0
BBX 15 15 2 2
BITMAP
C600
6180
30C0
1C60
0618
030C
01C6
00C6
038C
0618
0C70
38C0
6180
C700
8000
ENDCHAR
STARTCHAR 2276
ENCODING 8822
SWIDTH 678 0
DWIDTH 19 0
BBX 15 18 2 0
BITMAP
0002
001E
01F0
0F00
7800
C000
3C00
0780
0078
E00E
3E00
03C0
0038
0006
003C
03E0
1E00
F000
ENDCHAR
STARTCHAR 2277
ENCODING 8823
SWIDTH 678 0
DWIDTH 19 0
BBX 15 18 2 0
BITMAP
8000
F000
1E00
01E0
003C
0006
0078
03C0
3C00
E00E
00F8
0780
3800
C000
7800
0F80
00F0
001E
ENDCHAR
STARTCHAR 2282
ENCODING 8834
SWIDTH 678 0
DWIDTH 19 0
BBX 15 14 2 2
BITMAP
0FFE
1800
6000
4000
8000
8000
8000
8000
8000
8000
4000
6000
3000
0FFE
ENDCHAR
STARTCHAR 2283
ENCODING 8835
SWIDTH 678 0
DWIDTH 19 0
BBX 15 14 2 2
BITMAP
FFC0
0030
0008
0004
0002
0002
0002
0002
0002
0002
0004
000C
0018
FFE0
ENDCHAR
STARTCHAR 2284
ENCODING 8836
SWIDTH 678 0
DWIDTH 19 0
BBX 15 18 2 0
BITMAP
0018
0010
0FFE
1830
6020
4060
8040
8040
80C0
8080
8180
8180
4100
6300
3200
0FFE
0600
0400
ENDCHAR
STARTCHAR 2285
ENCODING 8837
SWIDTH 678 0
DWIDTH 19 0
BBX 15 18 2 0
BITMAP
0040
00C0
FFE0
00B8
018C
0104
0302
0202
0202
0602
0402
0C06
0C04
0808
1830
FFE0
3000
3000
ENDCHAR
STARTCHAR 2286
ENCODING 8838
SWIDTH 678 0
DWIDTH 19 0
BBX 15 16 2 2
BITMAP
1FFE
3000
4000
C000
8000
8000
8000
8000
8000
4000
3000
1FFE
0000
0000
0000
FFFE
ENDCHAR
STARTCHAR 2287
ENCODING 8839
SWIDTH 678 0
DWIDTH 19 0
BBX 15 16 2 2
BITMAP
FFF0
0018
0004
0006
0002
0002
0002
0002
0006
0004
0018
FFF0
0000
0000
0000
FFFE
ENDCHAR
STARTCHAR 228A
ENCODING 8842
SWIDTH 678 0
DWIDTH 19 0
BBX 15 19 2 -1
BITMAP
1FFE
3000
4000
C000
8000
8000
8000
8000
8000
4000
3000
1FFE
0000
0000
00C0
0080
FFFE
0300
0200
ENDCHAR
STARTCHAR 228B
ENCODING 8843
SWIDTH 678 0
DWIDTH 19 0
BBX 15 19 2 -1
BITMAP
FFE0
0018
0004
0004
0002
0002
0002
0002
0006
0004
0018
FFF0
0000
0000
00C0
0080
FFFE
0300
0200
ENDCHAR
STARTCHAR 2295
ENCODING 8853
SWIDTH 857 0
DWIDTH 24 0
BBX 21 20 1 0
BITMAP
01FC00
060300
080080
102040
202020
402010
402010
802008
802008
8FFF88
802008
802008
802018
402010
402030
202060
3020C0
080180
060700
01FC00
ENDCHAR
STARTCHAR 2296
ENCODING 8854
SWIDTH 857 0
DWIDTH 24 0
BBX 20 20 2 0
BITMAP
01F800
060600
080100
100080
200040
400020
400020
800010
800010
9FFF90
800010
800010
800010
400020
400020
600040
3000C0
180180
0E0700
01F800
ENDCHAR
STARTCHAR 2297
ENCODING 8855
SWIDTH 857 0
DWIDTH 24 0
BBX 20 20 2 0
BITMAP
01F800
060600
080100
100080
2C0340
460620
430C20
819810
80F010
806010
80F010
819810
830C10
460620
4C0320
600060
3000C0
180180
0E0700
03F800
ENDCHAR
STARTCHAR 22A5
ENCODING 8869
SWIDTH 678 0
DWIDTH 19 0
BBX 15 17 2 2
BITMAP
0100
0100
0100
0100
0100
0100
0100
0100
0100
0100
0100
0100
0100
0100
0100
0100
FFFE
ENDCHAR
STARTCHAR 22BF
ENCODING 8895
SWIDTH 678 0
DWIDTH 19 0
BBX 16 16 2 3
BITMAP
0001
0003
0007
000D
0019
0031
0061
00C1
0181
0301
0601
0C01
1801
3001
6001
FFFF
ENDCHAR
STARTCHAR 22DA
ENCODING 8922
SWIDTH 678 0
DWIDTH 19 0
BBX 15 20 2 0
BITMAP
0002
007E
0FC0
F000
F000
1F80
00FC
0006
0000
FFFE
0000
8000
F800
0F80
007C
0006
007C
07C0
FC00
C000
ENDCHAR
STARTCHAR 22DB
ENCODING 8923
SWIDTH 678 0
DWIDTH 19 0
BBX 15 20 2 0
BITMAP
8000
FC00
07E0
001E
001E
03F0
7E00
C000
0000
FFFE
0000
0002
003E
07E0
7C00
C000
7C00
07C0
007E
0006
ENDCHAR
STARTCHAR 2305
ENCODING 8965
SWIDTH 678 0
DWIDTH 19 0
BBX 15 12 2 2
BITMAP
FFFE
0380
0280
06C0
04C0
0440
0C60
0820
1830
1010
3018
0010
ENDCHAR
STARTCHAR 2306
ENCODING 8966
SWIDTH 678 0
DWIDTH 19 0
BBX 15 16 2 0
BITMAP
FFFE
0000
0000
0000
FFFE
0380
0280
0680
06C0
0440
0C60
0820
1820
1830
1010
3018
ENDCHAR
STARTCHAR 2312
ENCODING 8978
SWIDTH 1000 0
DWIDTH 28 0
BBX 26 6 1 16
BITMAP
007F8000
07807000
1C000C00
30000300
40000080
80000040
ENDCHAR
STARTCHAR 2318
ENCODING 8984
SWIDTH 1000 0
DWIDTH 28 0
BBX 24 25 2 -2
BITMAP
38001C
440022
820041
820041
820041
420042
3FFFFC
020040
020040
020040
020040
020040
020040
020040
020040
020040
020040
020040
3FFFFC
420043
820041
820041
820041
440022
38001C
ENDCHAR
STARTCHAR 23BE
ENCODING 9150
SWIDTH 1000 0
DWIDTH 28 0
BBX 14 28 13 -3
BITMAP
FFFC
8000
8000
8000
8000
8000
8000
8000
8000
8000
8000
8000
8000
8000
8000
8000
8000
8000
8000
8000
8000
8000
8000
8000
8000
8000
8000
8000
ENDCHAR
STARTCHAR 23BF
ENCODING 9151
SWIDTH 1000 0
DWIDTH 28 0
BBX 14 28 13 -3
BITMAP
8000
8000
8000
8000
8000
8000
8000
8000
8000
8000
8000
8000
8000
8000
8000
8000
8000
8000
8000
8000
8000
8000
8000
8000
8000
8000
8000
FFFC
ENDCHAR
STARTCHAR 23C0
ENCODING 9152
SWIDTH 1000 0
DWIDTH 28 0
BBX 21 28 3 -4
BITMAP
002000
002000
002000
002000
01FC00
062300
1820C0
302040
202020
402010
402010
802008
802008
802008
802008
802008
802008
802018
402010
402030
202020
102040
0C2180
072700
01FC00
002000
002000
002000
ENDCHAR
STARTCHAR 23C1
ENCODING 9153
SWIDTH 1000 0
DWIDTH 28 0
BBX 27 28 0 -3
BITMAP
FFFFFFE0
00040000
00040000
001F0000
0075C000
01843000
03040800
04040400
0C040600
08040200
18040200
10040100
10040100
10040100
10040100
10040100
10040100
08040200
08040200
04040400
06040C00
03041800
01843000
007FC000
00040000
00040000
00040000
00040000
ENDCHAR
STARTCHAR 23C2
ENCODING 9154
SWIDTH 1000 0
DWIDTH 28 0
BBX 27 28 0 -3
BITMAP
00040000
00040000
00040000
00040000
007FC000
01C43000
03041800
06040C00
04040400
08040200
08040200
10040100
10040100
10040100
10040100
10040100
10040100
08040300
08040200
0C040600
04040400
02041800
01843000
0075E000
000F0000
00040000
00040000
FFFFFFE0
ENDCHAR
STARTCHAR 23C3
ENCODING 9155
SWIDTH 1000 0
DWIDTH 28 0
BBX 23 27 2 -3
BITMAP
001000
001000
001000
001000
003800
003800
007C00
005400
009200
019300
011100
031180
021080
061040
0C1040
081020
181030
101010
301018
201008
401004
C01006
FFFFFE
001000
001000
001000
001000
ENDCHAR
STARTCHAR 23C4
ENCODING 9156
SWIDTH 1000 0
DWIDTH 28 0
BBX 27 28 0 -4
BITMAP
FFFFFFE0
00040000
00040000
00040000
00040000
000E0000
001E0000
00150000
00358000
00248000
0064C000
00444000
00842000
01842000
01041000
03041800
02040800
06040C00
04040400
0C040200
18040200
10040100
30040180
3FFFFF80
00040000
00040000
00040000
00040000
ENDCHAR
STARTCHAR 23C5
ENCODING 9157
SWIDTH 1000 0
DWIDTH 28 0
BBX 27 27 0 -2
BITMAP
00040000
00040000
00040000
00040000
000E0000
000E0000
001F0000
00150000
00248000
0064C000
00444000
00C46000
00842000
01841000
03041000
02040800
06040C00
04040400
0C040600
08040200
10040100
30040180
3FFFFF80
00040000
00040000
00040000
FFFFFFE0
ENDCHAR
STARTCHAR 23C6
ENCODING 9158
SWIDTH 1000 0
DWIDTH 28 0
BBX 25 28 1 -4
BITMAP
00080000
00080000
00080000
00080000
00080000
00080000
00080000
00080000
00080000
00080000
00080000
1F080000
60E80000
80380000
000C0000
000E0180
00098300
00087C00
00080000
00080000
00080000
00080000
00080000
00080000
00080000
00080000
00080000
00080000
ENDCHAR
STARTCHAR 23C7
ENCODING 9159
SWIDTH 1000 0
DWIDTH 28 0
BBX 27 28 0 -3
BITMAP
FFFFFFE0
00040000
00040000
00040000
00040000
00040000
00040000
00040000
00040000
00040000
00040000
0FC40000
30740000
000C0000
00070040
0005C180
00047E00
00040000
00040000
00040000
00040000
00040000
00040000
00040000
00040000
00040000
00040000
00040000
ENDCHAR
STARTCHAR 23C8
ENCODING 9160
SWIDTH 1000 0
DWIDTH 28 0
BBX 27 28 0 -3
BITMAP
00040000
00040000
00040000
00040000
00040000
00040000
00040000
00040000
00040000
00040000
00040000
0F840000
30740000
401C0000
00060000
0005C180
00047E00
00040000
00040000
00040000
00040000
00040000
00040000
00040000
00040000
00040000
00040000
FFFFFFE0
ENDCHAR
STARTCHAR 23C9
ENCODING 9161
SWIDTH 1000 0
DWIDTH 28 0
BBX 27 28 0 -3
BITMAP
FFFFFFE0
00040000
00040000
00040000
00040000
00040000
00040000
00040000
00040000
00040000
00040000
00040000
00040000
00040000
00040000
00040000
00040000
00040000
00040000
00040000
00040000
00040000
00040000
00040000
00040000
00040000
00040000
00040000
ENDCHAR
STARTCHAR 23CA
ENCODING 9162
SWIDTH 1000 0
DWIDTH 28 0
BBX 27 28 0 -3
BITMAP
00040000
00040000
00040000
00040000
00040000
00040000
00040000
00040000
00040000
00040000
00040000
00040000
00040000
00040000
00040000
00040000
00040000
00040000
00040000
00040000
00040000
00040000
00040000
00040000
00040000
00040000
00040000
FFFFFFE0
ENDCHAR
STARTCHAR 23CB
ENCODING 9163
SWIDTH 1000 0
DWIDTH 28 0
BBX 14 28 1 -3
BITMAP
FFFC
0004
0004
0004
0004
0004
0004
0004
0004
0004
0004
0004
0004
0004
0004
0004
0004
0004
0004
0004
0004
0004
0004
0004
0004
0004
0004
0004
ENDCHAR
STARTCHAR 23CC
ENCODING 9164
SWIDTH 1000 0
DWIDTH 28 0
BBX 14 28 1 -3
BITMAP
0004
0004
0004
0004
0004
0004
0004
0004
0004
0004
0004
0004
0004
0004
0004
0004
0004
0004
0004
0004
0004
0004
0004
0004
0004
0004
0004
FFFC
ENDCHAR
STARTCHAR 23CE
ENCODING 9166
SWIDTH 1000 0
DWIDTH 28 0
BBX 23 23 2 -2
BITMAP
0001FE
000102
000102
000102
000102
000102
000102
000102
008102
038102
068102
0C8102
18FE02
200002
400002
800002
600004
30000C
18FFF0
0C8000
028000
018000
008000
ENDCHAR
STARTCHAR 2423
ENCODING 9251
SWIDTH 1000 0
DWIDTH 28 0
BBX 22 6 3 -1
BITMAP
800004
800004
800004
800004
800004
FFFFFC
ENDCHAR
STARTCHAR 2460
ENCODING 9312
SWIDTH 1000 0
DWIDTH 28 0
BBX 26 25 1 -2
BITMAP
007F0000
0180E000
06001000
08000C00
100C0600
207C0300
200C0100
400C0080
400C0080
800C0040
800C0040
800C0040
800C0040
800C0040
800C0040
800C0040
400C0080
400C0080
400C0100
200C0100
107F8200
08000400
06001800
01806000
007F8000
ENDCHAR
STARTCHAR 2461
ENCODING 9313
SWIDTH 1000 0
DWIDTH 28 0
BBX 25 25 2 -2
BITMAP
007E0000
0181C000
06002000
0C001000
103E0800
30C38400
20818200
4180C100
41C0C100
C1C0C080
8001C080
80018080
80030080
80060080
800C0080
80180080
80304100
40604100
40C04200
4180C200
21FFC400
10000800
0C001000
0380E000
007F0000
ENDCHAR
STARTCHAR 2462
ENCODING 9314
SWIDTH 1000 0
DWIDTH 28 0
BBX 26 25 1 -2
BITMAP
007F8000
0180E000
06001800
08000C00
103E0600
20618300
60C0C100
40C0C080
40C0C080
8000C040
80018040
801F0040
801F0040
8000C040
80006040
80006040
41C06080
41C06080
2180C100
30C1C300
183F0200
0C000C00
06001800
01C0E000
007F8000
ENDCHAR
STARTCHAR 2463
ENCODING 9315
SWIDTH 1000 0
DWIDTH 28 0
BBX 26 25 1 -2
BITMAP
003F8000
01C0E000
02001800
0C000C00
18030600
30070300
200F0100
400B0080
40130080
80230040
80630040
80430040
80830040
81030040
82030040
83FFF040
40030080
40030080
20030100
30030100
181FC200
0C000400
06000800
01C07000
007F8000
ENDCHAR
STARTCHAR 2464
ENCODING 9316
SWIDTH 1000 0
DWIDTH 28 0
BBX 26 24 1 -1
BITMAP
007F8000
0180E000
06001800
08000C00
107FC200
20400100
60400180
40C00080
C0C00080
80DF0040
80A18040
80C0C040
80006040
80006040
80006040
41C06080
41C06080
21C0C100
21C0C100
10E18200
083E0400
06000800
01807000
007F8000
ENDCHAR
STARTCHAR 2465
ENCODING 9317
SWIDTH 1000 0
DWIDTH 28 0
BBX 26 25 1 -2
BITMAP
007F8000
0180E000
06001800
08000C00
101F0600
2030C300
6061C100
40C1C080
40C00080
81C00040
818F0040
81B1C040
81C0C040
81806040
81806040
81806040
41806080
40C06080
20C0C100
30718300
181F0200
0C000C00
06001800
01C0E000
007F8000
ENDCHAR
STARTCHAR 2466
ENCODING 9318
SWIDTH 1000 0
DWIDTH 28 0
BBX 26 25 1 -1
BITMAP
003F0000
00C0C000
03003000
04000800
08000400
10FFE200
20C04100
4080C080
40808080
C0818080
80010040
80030040
80030040
80020040
80060040
80060040
40040080
400C0080
200C0100
200C0100
100C0200
080C0400
06001800
01806000
007F8000
ENDCHAR
STARTCHAR 2467
ENCODING 9319
SWIDTH 1000 0
DWIDTH 28 0
BBX 26 25 1 -2
BITMAP
007F8000
0180E000
06001800
08000C00
103F0600
20618300
60C0C100
40C0C080
40C0C080
80E08040
80710040
801E0040
80370040
80618040
80C0C040
81806040
41806080
41806080
21C0C100
30E1C300
183F0200
0C000C00
06001800
01C0E000
007F8000
ENDCHAR
STARTCHAR 2468
ENCODING 9320
SWIDTH 1000 0
DWIDTH 28 0
BBX 26 25 1 -2
BITMAP
007F8000
0180E000
06001800
08000C00
101E0600
20718300
60E0C100
40C0C080
40C06080
80C06040
80C06040
8060E040
8071E040
801E6040
80006040
8000E040
40E0C080
40E0C080
20C18100
30638300
183E0200
0C000C00
06001800
01C0E000
007F8000
ENDCHAR
STARTCHAR 2469
ENCODING 9321
SWIDTH 1000 0
DWIDTH 28 0
BBX 26 26 1 -2
BITMAP
007F0000
0180E000
06001000
0C000800
1001C400
37822200
21863100
41841080
418C1880
C18C1880
818C1840
818C1840
818C1840
818C1840
818C1840
818C1840
818C18C0
41841080
41863180
21822100
37E1C300
18000600
0C000C00
06003800
01C0E000
007F8000
ENDCHAR
STARTCHAR 246A
ENCODING 9322
SWIDTH 1000 0
DWIDTH 28 0
BBX 26 26 1 -2
BITMAP
007F0000
0180E000
06001000
0C000C00
10000600
3781E200
21806100
41806080
41806080
C1806080
81806040
81806040
81806040
81806040
81806040
81806040
818060C0
41806080
41806080
21806100
37E1FB00
18000600
0C000C00
06003800
01C0E000
007F8000
ENDCHAR
STARTCHAR 246B
ENCODING 9323
SWIDTH 1000 0
DWIDTH 28 0
BBX 26 25 1 -2
BITMAP
007F8000
0380F000
04001800
08000C00
1081E200
27823300
61841900
41861880
41861880
81801840
81803040
81803040
81806040
8180C040
81808040
818100C0
41830880
41820880
21841900
27EFFB00
10000600
0C000C00
06003800
01C0E000
007F8000
ENDCHAR
STARTCHAR 246C
ENCODING 9324
SWIDTH 1000 0
DWIDTH 28 0
BBX 26 26 1 -2
BITMAP
007F0000
0180E000
06001000
0C000800
1003C400
37866200
218C3100
418E3080
418E3080
C1803080
81803040
81806040
81818040
81807040
81803040
81801840
818018C0
418E1880
418E1980
21843100
37E3E300
18000600
0C000C00
06003800
01C0E000
007F8000
ENDCHAR
STARTCHAR 246D
ENCODING 9325
SWIDTH 1000 0
DWIDTH 28 0
BBX 26 25 1 -2
BITMAP
007F8000
0180E000
06001800
08000C00
10806200
27806300
6180E100
4181E080
41816080
81826040
81826040
81846040
81846040
81886040
81986040
819FFCC0
41806080
41806080
21806100
27E1FB00
10000600
0C000C00
06001800
01C0E000
007F8000
ENDCHAR
STARTCHAR 246E
ENCODING 9326
SWIDTH 1000 0
DWIDTH 28 0
BBX 26 26 1 -2
BITMAP
003F0000
01C0C000
03003000
04000800
08000400
1787F200
21840100
41840080
41840080
81840080
8185E040
81863040
81843040
81801840
81801840
81801840
C18E18C0
418E1880
418C3180
21847100
37E3C300
18000600
0C000C00
06003800
01C0E000
007F8000
ENDCHAR
STARTCHAR 246F
ENCODING 9327
SWIDTH 1000 0
DWIDTH 28 0
BBX 26 26 1 -2
BITMAP
003F0000
01C0E000
02001000
0C000800
1801E600
37833200
21821900
41863880
41863880
C18C0080
818C0040
818DE040
818E3040
818C1840
818C1840
818C1840
C18C18C0
418C1880
41863180
21863100
37E1E300
18000600
0C000C00
06003800
01C0E000
007F8000
ENDCHAR
STARTCHAR 2470
ENCODING 9328
SWIDTH 1000 0
DWIDTH 28 0
BBX 25 26 1 -2
BITMAP
007F0000
0180C000
02002000
0C001800
18000400
178FF600
218C1200
41881100
41882100
81882100
81806080
81804080
81804080
8180C080
81808080
81808080
81818180
41818100
41818100
21818200
37E18600
10000400
0C001800
06003000
0180C000
007F0000
ENDCHAR
STARTCHAR 2471
ENCODING 9329
SWIDTH 1000 0
DWIDTH 28 0
BBX 26 26 1 -2
BITMAP
007F0000
0180E000
06001000
0C000800
1001C400
37836200
21863100
41863080
41863080
C1863080
81836040
81834040
8181C040
81826040
81863040
818C1840
818C18C0
418C1880
418C1980
21863100
37E3E300
18000600
0C000C00
06003800
01C0E000
007F8000
ENDCHAR
STARTCHAR 2472
ENCODING 9330
SWIDTH 1000 0
DWIDTH 28 0
BBX 26 26 1 -2
BITMAP
007F0000
0180E000
06001000
0C000800
1003C400
37862200
21863100
418C1080
418C1880
C18C1880
818C1840
818C1840
818E1840
81863840
8183D840
81801840
818010C0
418E3080
418E3180
218C6100
37E3C300
18000600
0C000C00
06003800
01C0E000
007F8000
ENDCHAR
STARTCHAR 2473
ENCODING 9331
SWIDTH 1000 0
DWIDTH 28 0
BBX 25 25 1 -2
BITMAP
007F0000
0380E000
04003000
08000800
13C0E400
2661B200
6C311300
4E331900
4E331900
80331880
80631880
80631880
80C31880
80831880
81831880
81031880
42131900
46111100
2411B200
2FF0E600
10000400
08001800
06003000
0180C000
007F0000
ENDCHAR
STARTCHAR 24D0
ENCODING 9424
SWIDTH 1000 0
DWIDTH 28 0
BBX 26 25 1 -2
BITMAP
007F8000
0180F000
06001800
08000C00
10000600
20000300
60000100
403E0080
40C10080
80E18040
80018040
800F8040
80318040
80618040
80C18040
80C18040
40C3A080
407DC080
20000100
30000100
10000200
0C000400
06001800
01C06000
007F8000
ENDCHAR
STARTCHAR 24D1
ENCODING 9425
SWIDTH 1000 0
DWIDTH 28 0
BBX 26 25 1 -2
BITMAP
007F8000
0180F000
06001800
08000C00
11E00600
20600300
60600100
40600080
40600080
806F8040
8070C040
80606040
80603040
80603040
80603040
80603040
40603080
40606080
2070C100
304F8100
10000200
0C000400
06001800
01C06000
007F8000
ENDCHAR
STARTCHAR 24D2
ENCODING 9426
SWIDTH 1000 0
DWIDTH 28 0
BBX 26 25 1 -2
BITMAP
007F8000
0180E000
06001800
08000C00
10000600
20000300
60000100
401F0080
40718080
80618040
80C00040
80C00040
80C00040
80C00040
80C00040
80608040
40718080
401E0080
20000100
30000300
18000200
0C000C00
06001800
01C0E000
007F8000
ENDCHAR
STARTCHAR 24D3
ENCODING 9427
SWIDTH 1000 0
DWIDTH 28 0
BBX 26 25 1 -2
BITMAP
007F8000
0180F000
06001800
08000C00
10078600
20018300
60018100
40018080
40018080
803D8040
80638040
80C18040
81818040
81818040
81818040
81818040
41818080
40C18080
20E38100
307DE100
18000200
0C000400
06001800
01C06000
007F8000
ENDCHAR
STARTCHAR 24D4
ENCODING 9428
SWIDTH 1000 0
DWIDTH 28 0
BBX 26 26 1 -2
BITMAP
003F0000
00C0C000
03003000
04000800
08000400
10000200
20000100
601E0080
40218080
40408080
80C0C040
80C0C040
80FFC040
80800040
80C00040
80C00040
804040C0
40218080
401F0080
20000100
30000300
18000600
0C000C00
06001800
01C0E000
007F8000
ENDCHAR
STARTCHAR 24D5
ENCODING 9429
SWIDTH 1000 0
DWIDTH 28 0
BBX 26 26 1 -2
BITMAP
007F0000
0180C000
06003000
0C000800
10000400
30078200
2008C100
4018C080
40180080
C0180080
80FF0040
80180040
80180040
80180040
80180040
80180040
801800C0
40180080
40180080
20180100
207E0300
10000600
08000C00
06001800
0180E000
007F8000
ENDCHAR
STARTCHAR 24D6
ENCODING 9430
SWIDTH 1000 0
DWIDTH 28 0
BBX 26 25 1 -2
BITMAP
007F8000
0180E000
06001800
08000C00
10000600
201CE300
60336100
40618080
40618080
80618040
80730040
803E0040
80600040
80700040
803FC040
80C0E040
40C06080
40C06080
2060C100
303F8300
18000200
0C000C00
06001800
01C0E000
007F8000
ENDCHAR
STARTCHAR 24D7
ENCODING 9431
SWIDTH 1000 0
DWIDTH 28 0
BBX 26 25 1 -2
BITMAP
007F8000
0180E000
06001800
08000C00
10E00200
20600300
60600100
40600080
40600080
80670040
80798040
8060C040
8060C040
8060C040
8060C040
C060C040
4060C080
4060C080
2060C100
31F1F300
18000600
0C000C00
06001800
01C0E000
007F8000
ENDCHAR
STARTCHAR 24D8
ENCODING 9432
SWIDTH 1000 0
DWIDTH 28 0
BBX 26 25 1 -2
BITMAP
007F8000
0380F000
04001800
081C0C00
101C0600
201C0300
40000180
40000080
C0000080
803C0040
800C0040
800C0040
800C0040
800C0040
800C0040
800C0040
400C0080
400C0080
200C0100
203F0300
10000200
0C000C00
06001800
0180E000
007F8000
ENDCHAR
STARTCHAR 24D9
ENCODING 9433
SWIDTH 1000 0
DWIDTH 28 0
BBX 26 25 1 -2
BITMAP
007F8000
0180F000
060E1800
080E0C00
100E0600
20000300
60000100
40000080
401E0080
80060040
80060040
80060040
80060040
80060040
80060040
80060040
40060080
40060080
20060100
20E60100
10CC0200
0C780400
06001800
01C06000
007F8000
ENDCHAR
STARTCHAR 24DA
ENCODING 9434
SWIDTH 1000 0
DWIDTH 28 0
BBX 26 25 1 -2
BITMAP
007F8000
0380E000
04001800
08000C00
11E00600
20600300
60600100
40600080
40600080
8063E040
80618040
80630040
80660040
806C0040
80760040
80630040
40610080
40618080
4060C100
21F9F100
10000200
08000400
06001800
01806000
007F8000
ENDCHAR
STARTCHAR 24DB
ENCODING 9435
SWIDTH 1000 0
DWIDTH 28 0
BBX 26 25 1 -2
BITMAP
007F8000
0380F000
04001800
08000C00
101C0600
200C0300
400C0180
400C0080
C00C0080
800C0040
800C0040
800C0040
800C0040
800C0040
800C0040
800C0040
400C0080
400C0080
200C0100
203F0300
10000200
0C000C00
06001800
0180E000
007F8000
ENDCHAR
STARTCHAR 24DC
ENCODING 9436
SWIDTH 1000 0
DWIDTH 28 0
BBX 26 25 1 -2
BITMAP
007F8000
0180E000
06001800
08000C00
10000600
30000300
60000100
4F78E080
438D3080
83061840
83061840
83061840
83061840
83061840
83061840
83061840
43061880
4FDF3E80
40000100
20000100
10000200
08000400
06001800
01806000
007F8000
ENDCHAR
STARTCHAR 24DD
ENCODING 9437
SWIDTH 1000 0
DWIDTH 28 0
BBX 26 25 1 -2
BITMAP
003F0000
01C0E000
06001000
0C000C00
10000600
30000300
20000100
41E70080
40798080
8060C040
8060C040
8060C040
8060C040
8060C040
8060C040
8060C040
4060C080
41F1F080
20000100
20000100
10000200
0C000400
06001800
01C06000
007F8000
ENDCHAR
STARTCHAR 24DE
ENCODING 9438
SWIDTH 1000 0
DWIDTH 28 0
BBX 26 25 1 -2
BITMAP
007F8000
0180E000
06001800
08000C00
10000600
20000300
60000100
401E0080
40210080
80408040
80C0C040
80C0C040
80C0C040
80C0C040
80C0C040
8060C040
40718080
401E0080
20000100
30000300
18000200
0C000C00
06001800
01C0E000
007F8000
ENDCHAR
STARTCHAR 24DF
ENCODING 9439
SWIDTH 1000 0
DWIDTH 28 0
BBX 26 26 1 -2
BITMAP
003F0000
01C0C000
02003000
04000800
18000400
10000200
20200100
41EF0080
4071C080
C060C080
80606040
80606040
80606040
80606040
8060C040
8071C040
806F00C0
40600080
40600080
20600100
21F80300
10000600
0C000C00
06001800
0180E000
007F8000
ENDCHAR
STARTCHAR 24E0
ENCODING 9440
SWIDTH 1000 0
DWIDTH 28 0
BBX 26 26 1 -2
BITMAP
003F0000
00C0E000
03001000
04000800
08000400
10000200
20000100
603F8080
40E18080
40C18080
81818040
81818040
81818040
81818040
80C18040
80E38040
C03D80C0
40018080
40018080
20018100
3007E300
18000200
0C000C00
06001800
01C06000
007F8000
ENDCHAR
STARTCHAR 24E1
ENCODING 9441
SWIDTH 1000 0
DWIDTH 28 0
BBX 26 25 1 -2
BITMAP
003F8000
01C0E000
02001800
0C000C00
10000600
30000300
20000100
4079C080
401A6080
801C6040
80180040
80180040
80180040
80180040
80180040
80180040
40180080
407E0080
20000100
30000100
18000200
0C000400
06000800
01C07000
007F8000
ENDCHAR
STARTCHAR 24E2
ENCODING 9442
SWIDTH 1000 0
DWIDTH 28 0
BBX 25 25 2 -2
BITMAP
007F0000
0380C000
04003000
08001800
10000400
20000600
60000200
407D0100
40C30100
80C10080
80E00080
80780080
801E0080
80038080
80818080
80818080
40E38100
40BE0100
40000200
20000600
10000400
08001800
06003000
0181C000
007F0000
ENDCHAR
STARTCHAR 24E3
ENCODING 9443
SWIDTH 1000 0
DWIDTH 28 0
BBX 26 25 1 -2
BITMAP
007F8000
0180F000
06001800
08000C00
10000600
20080300
60080180
40380080
407F8080
80180040
80180040
80180040
80180040
80180040
80180040
80180040
40180080
40188080
200F0100
30000100
18000200
0C000400
06000800
01C07000
007F8000
ENDCHAR
STARTCHAR 24E4
ENCODING 9444
SWIDTH 1000 0
DWIDTH 28 0
BBX 25 25 1 -2
BITMAP
007F0000
0380E000
04003000
08001800
10000400
20000200
60000300
43C38100
40C18100
80C18080
80C18080
80C18080
80C18080
80C18080
80C18080
80C18080
40638100
403DE100
40000200
20000200
10000400
08000800
06003000
0180C000
007F0000
ENDCHAR
STARTCHAR 24E5
ENCODING 9445
SWIDTH 1000 0
DWIDTH 28 0
BBX 26 25 1 -2
BITMAP
003F0000
01C0E000
02001000
0C000C00
18000600
30000200
20000100
40000080
43F1F080
C0C04040
80408040
80608040
80210040
80310040
80110040
801A0040
401A0080
400C0080
200C0100
20000100
10000200
08000400
06000800
01807000
007F8000
ENDCHAR
STARTCHAR 24E6
ENCODING 9446
SWIDTH 1000 0
DWIDTH 28 0
BBX 26 25 1 -2
BITMAP
003F0000
01C0E000
02001000
0C000C00
18000600
30000200
20000100
40000080
4F9F7C80
C3041040
81041040
818E2040
818A2040
80922040
80D34040
80D14040
4061C080
40618080
20208100
20000100
10000200
08000400
06000800
01807000
007F8000
ENDCHAR
STARTCHAR 24E7
ENCODING 9447
SWIDTH 1000 0
DWIDTH 28 0
BBX 26 25 1 -2
BITMAP
007F8000
0180E000
06001800
08000C00
10000600
20000300
60000100
41F3E080
40608080
80310040
801A0040
800C0040
800C0040
80160040
80330040
80618040
40C0C080
43F3F080
20000100
30000100
10000200
0C000400
06001800
01C06000
007F8000
ENDCHAR
STARTCHAR 24E8
ENCODING 9448
SWIDTH 1000 0
DWIDTH 28 0
BBX 26 25 1 -2
BITMAP
007F8000
0180F000
06001800
08000C00
10000200
20000300
61F1F100
40604080
40304080
80308040
80188040
80190040
800D0040
800E0040
80060040
C0040040
40040080
40E80080
20E80100
30700300
18000600
0C000C00
06001800
01C0E000
007F8000
ENDCHAR
STARTCHAR 24E9
ENCODING 9449
SWIDTH 1000 0
DWIDTH 28 0
BBX 25 25 2 -2
BITMAP
007F0000
0380E000
04003000
08001800
10000400
20000600
60000200
40FF8100
40C30100
80860080
80860080
800C0080
80180080
80300080
80208080
80608080
40C18100
40FF8100
40000200
20000200
10000400
08000800
04001000
0380E000
007F0000
ENDCHAR
STARTCHAR 24EB
ENCODING 9451
SWIDTH 1000 0
DWIDTH 28 0
BBX 26 26 1 -2
BITMAP
003F0000
01FFE000
03FFF000
0FFFF800
1FFFFC00
387E1E00
3E7F9F00
7E7F9F80
7E7F9F80
FE7F9F80
FE7F9FC0
FE7F9FC0
FE7F9FC0
FE7F9FC0
FE7F9FC0
FE7F9FC0
FE7F9FC0
7E7F9F80
7E7F9F80
3E7F9F00
381E0700
1FFFFE00
0FFFFC00
07FFF800
01FFE000
007F8000
ENDCHAR
STARTCHAR 24EC
ENCODING 9452
SWIDTH 1000 0
DWIDTH 28 0
BBX 26 25 1 -2
BITMAP
007F8000
01FFE000
07FFF800
0FFFFC00
1F7E1E00
387DCF00
7E79E700
7E78E780
7E78E780
FE7FE7C0
FE7FCFC0
FE7FCFC0
FE7F9FC0
FE7FBFC0
FE7F7FC0
FE7E7FC0
7E7EF780
7E7DF780
3E7BF700
38180700
1FFFFE00
0FFFFC00
07FFF800
01FFE000
007F8000
ENDCHAR
STARTCHAR 24ED
ENCODING 9453
SWIDTH 1000 0
DWIDTH 28 0
BBX 26 26 1 -2
BITMAP
003F0000
01FFE000
03FFF000
0FFFFC00
1FFE1E00
187DCE00
3E79E700
7E79E780
7E79E780
FE7FE780
FE7FEFC0
FE7FCFC0
FE7E3FC0
FE7FCFC0
FE7FE7C0
FE7FF7C0
FE7FF7C0
7E79F780
7E79F780
3E79EF00
381E1F00
1FFFFE00
0FFFFC00
07FFF800
01FFE000
007F8000
ENDCHAR
STARTCHAR 24EE
ENCODING 9454
SWIDTH 1000 0
DWIDTH 28 0
BBX 26 25 1 -2
BITMAP
007F8000
01FFE000
07FFF800
0FFFFC00
1F7F9E00
387F9F00
3E7F1F00
7E7F1F80
7E7E9F80
FE7F9FC0
FE7D9FC0
FE7F9FC0
FE7B9FC0
FE779FC0
FE779FC0
FE7003C0
7E7F9F80
7E7F9F80
3E7F9F00
381E0700
1FFFFE00
0FFFFC00
07FFF800
01FFE000
007F8000
ENDCHAR
STARTCHAR 24EF
ENCODING 9455
SWIDTH 1000 0
DWIDTH 28 0
BBX 26 26 1 -2
BITMAP
003F0000
00FFE000
03FFF000
07FFF800
0FFFFE00
1E7C0600
387C0700
7E7DFF80
7E79FF80
7E79FF80
FE7BFFC0
FE7B0FC0
FE79E7C0
FE7BE3C0
FE7FF3C0
FE7FF3C0
FE7FF3C0
7E79F380
7E79E780
3E79C700
381E1F00
1FFFFE00
0FFFFC00
07FFF800
01FFE000
007F8000
ENDCHAR
STARTCHAR 24F0
ENCODING 9456
SWIDTH 1000 0
DWIDTH 28 0
BBX 26 26 1 -2
BITMAP
003F8000
01FFE000
03FFF000
07FFFC00
1FFF0E00
187E6E00
3E7CE700
7E7DE780
7E7DE780
FE79FF80
FE79FFC0
FE790FC0
FE78E7C0
FE79F3C0
FE79F3C0
FE79F3C0
FE79F3C0
7E79F380
7E7DE780
3E7CE700
381F0F00
1FFFFE00
0FFFFC00
07FFF800
01FFE000
007F8000
ENDCHAR
STARTCHAR 24F1
ENCODING 9457
SWIDTH 1000 0
DWIDTH 28 0
BBX 26 26 1 -2
BITMAP
003F0000
00FFE000
03FFF000
07FFFC00
0FFFFE00
1E780600
38780700
7E79F780
7E7BFF80
FE7BEF80
FE7FEFC0
FE7FDFC0
FE7FDFC0
FE7F9FC0
FE7F9FC0
FE7FBFC0
FE7F3FC0
7E7F3F80
7E7F3F80
3E7F3F00
381F3F00
1FFFFE00
0FFFFC00
07FFF800
01FFE000
007F8000
ENDCHAR
STARTCHAR 24F2
ENCODING 9458
SWIDTH 1000 0
DWIDTH 28 0
BBX 26 26 1 -2
BITMAP
003F0000
01FFE000
03FFF000
0FFFFC00
1FFE1E00
187CCE00
3E79E700
7E79F780
7E79F780
FE79F780
FE7CEFC0
FE7E5FC0
FE7F3FC0
FE7C8FC0
FE79E7C0
FE73E3C0
FE73F3C0
7E73F380
7E73F380
3E79E700
381C1F00
1FFFFE00
0FFFFC00
07FFF800
01FFE000
007F8000
ENDCHAR
STARTCHAR 24F3
ENCODING 9459
SWIDTH 1000 0
DWIDTH 28 0
BBX 26 26 1 -2
BITMAP
003F0000
01FFE000
03FFF000
0FFFFC00
1FFE1E00
187DCE00
3E7DCF00
7E7BE780
7E7BE780
FE7BE780
FE7BE7C0
FE7BE7C0
FE79E7C0
FE7DD7C0
FE7E37C0
FE7FE7C0
FE7FEFC0
7E79EF80
7E79CF80
3E79DF00
381C3F00
1FFFFE00
0FFFFC00
07FFF800
01FFE000
007F8000
ENDCHAR
STARTCHAR 24F4
ENCODING 9460
SWIDTH 1000 0
DWIDTH 28 0
BBX 26 25 1 -2
BITMAP
007F8000
01FFE000
07FFF800
0FFFFC00
1C3F0E00
399E6700
73CE6700
71CCF380
71CCF380
FFCCF3C0
FF9CF3C0
FF9CF3C0
FF3CF3C0
FF7CF3C0
FE7CF3C0
FEFCF3C0
7DECF380
79EEF780
3BEE6700
300F6F00
1FFFFE00
0FFFFC00
07FFF800
01FFE000
007F8000
ENDCHAR
STARTCHAR 24F5
ENCODING 9461
SWIDTH 1000 0
DWIDTH 28 0
BBX 26 27 0 -3
BITMAP
007F0000
0180E000
067F9800
09806400
12001200
241C0900
28040500
50040280
50040280
90040240
A0040140
A0040140
A0040140
A0040140
A0040140
A0040140
90040240
50040280
50040280
68040500
241F8900
12001200
19002400
0CC0C800
023F3000
01C0E000
003F0000
ENDCHAR
STARTCHAR 24F6
ENCODING 9462
SWIDTH 1000 0
DWIDTH 28 0
BBX 27 27 1 -3
BITMAP
003F8000
01C07000
033F9800
04C06600
0B001B00
161F0D00
2C61C680
6840E2C0
50C06140
50E06140
A0E060A0
A000C0A0
A000C0A0
A00180A0
A00300A0
A00600A0
A0080120
50102140
50202240
68406280
24FFE500
12000900
19003200
0CC0C400
033F1800
01C06000
003F8000
ENDCHAR
STARTCHAR 24F7
ENCODING 9463
SWIDTH 1000 0
DWIDTH 28 0
BBX 26 27 1 -3
BITMAP
003F0000
01C0E000
023F1000
0CC0CC00
1B003600
143E0A00
28618500
70C0C480
60E0C280
60E0C280
C000C140
C0018140
C0070140
C01F0140
C000C140
C0006140
A0006140
61C06280
51C06280
71C0C580
28E1C900
143F1200
1B002600
0CC1CC00
023E1000
01C0E000
003F0000
ENDCHAR
STARTCHAR 24F8
ENCODING 9464
SWIDTH 1000 0
DWIDTH 28 0
BBX 26 26 2 -3
BITMAP
007F8000
03BF6000
04C0D800
0B003400
14021A00
28060D00
30060500
600A0280
60120280
C0320140
C0620140
C0420140
C0820140
C1020140
C3020140
A3FFC240
E0020280
50020480
70020500
280F8A00
34001200
1B006400
0CC18800
063E1000
01C0E000
007F0000
ENDCHAR
STARTCHAR 24F9
ENCODING 9465
SWIDTH 1000 0
DWIDTH 28 0
BBX 26 27 1 -3
BITMAP
003F0000
01C0E000
027F1800
0D80CC00
1E003600
187FCA00
30400500
70400480
60400280
60C00280
C0DF0140
C0E18140
C0C0C140
C0006140
C0006140
C0006140
A0C06240
60C06280
50C0C480
70C0C500
28618900
141F1200
1B006400
0CC18C00
023E1000
01C0E000
003F0000
ENDCHAR
STARTCHAR 24FA
ENCODING 9466
SWIDTH 1000 0
DWIDTH 28 0
BBX 26 27 1 -3
BITMAP
003F0000
01C0E000
023F1000
0CC0CC00
1B003600
141F0A00
2830C500
7061C480
60C1C280
60C00280
C1C00140
C19E0140
C1A38140
C1C18140
C180C140
C180C140
A180C140
6180C280
50C0C280
70C18580
28630900
143E1200
1B002600
0CC1CC00
023E1000
01C0E000
003F0000
ENDCHAR
STARTCHAR 24FB
ENCODING 9467
SWIDTH 1000 0
DWIDTH 28 0
BBX 26 26 1 -3
BITMAP
00FF8000
03006000
0CFF1800
1300C400
24003200
48FFE900
50C04500
A0808280
A0808280
40810240
40010140
40030140
40020140
40060140
40060140
40040240
A00C0280
A00C0280
500C0500
480C0900
240C1200
12006400
09818800
067E3000
0180E000
007F0000
ENDCHAR
STARTCHAR 24FC
ENCODING 9468
SWIDTH 1000 0
DWIDTH 28 0
BBX 26 27 1 -3
BITMAP
003F0000
01C0E000
023F1000
0CC0CC00
1B003600
143E0A00
28618500
70C0C480
60C04280
60C04280
C0E08140
C0710140
C03E0140
C0370140
C0418140
C080C140
A1006140
61006280
51006280
7180C580
28C1C900
143F1200
1B002600
0CC1CC00
023E1000
01C0E000
003F0000
ENDCHAR
STARTCHAR 24FD
ENCODING 9469
SWIDTH 1000 0
DWIDTH 28 0
BBX 26 27 1 -3
BITMAP
003F0000
01C0E000
023F1000
0CC0CC00
1B003600
141F0A00
28718500
70E0C480
60C0C280
60C06280
C0C06140
C0C06140
C0E0E140
C071E140
C01E6140
C0006140
A000E140
60E0C280
50E0C280
70C18580
28630900
143E1200
1B002600
0CC1CC00
023E1000
01C0E000
003F0000
ENDCHAR
STARTCHAR 24FE
ENCODING 9470
SWIDTH 1000 0
DWIDTH 28 0
BBX 26 27 1 -3
BITMAP
003F0000
01C0E000
023F1800
0CC0CC00
1B003600
1483DA00
2B866D00
70866480
60842280
608C3280
C08C3140
C08C3140
C08C3140
C08C3140
C08C3140
C08C3140
A08C3280
60842280
50866480
70866500
2BE3CA00
14001200
1B006400
0CC18800
063E1000
01C0E000
007F0000
ENDCHAR
STARTCHAR 2500
ENCODING 9472
SWIDTH 1000 0
DWIDTH 28 0
BBX 28 1 0 10
BITMAP
FFFFFFF0
ENDCHAR
STARTCHAR 2501
ENCODING 9473
SWIDTH 1000 0
DWIDTH 28 0
BBX 28 3 0 9
BITMAP
FFFFFFF0
FFFFFFF0
FFFFFFF0
ENDCHAR
STARTCHAR 2502
ENCODING 9474
SWIDTH 1000 0
DWIDTH 28 0
BBX 1 28 13 -4
BITMAP
80
80
80
80
80
80
80
80
80
80
80
80
80
80
80
80
80
80
80
80
80
80
80
80
80
80
80
80
ENDCHAR
STARTCHAR 2503
ENCODING 9475
SWIDTH 1000 0
DWIDTH 28 0
BBX 3 28 12 -3
BITMAP
E0
E0
E0
E0
E0
E0
E0
E0
E0
E0
E0
E0
E0
E0
E0
E0
E0
E0
E0
E0
E0
E0
E0
E0
E0
E0
E0
E0
ENDCHAR
STARTCHAR 250C
ENCODING 9484
SWIDTH 1000 0
DWIDTH 28 0
BBX 14 14 13 -4
BITMAP
FFFC
8000
8000
8000
8000
8000
8000
8000
8000
8000
8000
8000
8000
8000
ENDCHAR
STARTCHAR 250F
ENCODING 9487
SWIDTH 1000 0
DWIDTH 28 0
BBX 16 15 12 -3
BITMAP
FFFF
FFFF
FFFF
E000
E000
E000
E000
E000
E000
E000
E000
E000
E000
E000
E000
ENDCHAR
STARTCHAR 2510
ENCODING 9488
SWIDTH 1000 0
DWIDTH 28 0
BBX 14 14 1 -4
BITMAP
FFFC
0004
0004
0004
0004
0004
0004
0004
0004
0004
0004
0004
0004
0004
ENDCHAR
STARTCHAR 2513
ENCODING 9491
SWIDTH 1000 0
DWIDTH 28 0
BBX 16 15 0 -3
BITMAP
FFFF
FFFF
FFFF
0007
0007
0007
0007
0007
0007
0007
0007
0007
0007
0007
0007
ENDCHAR
STARTCHAR 2514
ENCODING 9492
SWIDTH 1000 0
DWIDTH 28 0
BBX 14 14 13 11
BITMAP
8000
8000
8000
8000
8000
8000
8000
8000
8000
8000
8000
8000
8000
FFFC
ENDCHAR
STARTCHAR 2517
ENCODING 9495
SWIDTH 1000 0
DWIDTH 28 0
BBX 16 16 12 9
BITMAP
E000
E000
E000
E000
E000
E000
E000
E000
E000
E000
E000
E000
E000
FFFF
FFFF
FFFF
ENDCHAR
STARTCHAR 2518
ENCODING 9496
SWIDTH 1000 0
DWIDTH 28 0
BBX 14 14 1 11
BITMAP
0004
0004
0004
0004
0004
0004
0004
0004
0004
0004
0004
0004
0004
FFFC
ENDCHAR
STARTCHAR 251B
ENCODING 9499
SWIDTH 1000 0
DWIDTH 28 0
BBX 16 16 0 9
BITMAP
0007
0007
0007
0007
0007
0007
0007
0007
0007
0007
0007
0007
0007
FFFF
FFFF
FFFF
ENDCHAR
STARTCHAR 251C
ENCODING 9500
SWIDTH 1000 0
DWIDTH 28 0
BBX 14 27 13 -3
BITMAP
8000
8000
8000
8000
8000
8000
8000
8000
8000
8000
8000
8000
8000
FFFC
8000
8000
8000
8000
8000
8000
8000
8000
8000
8000
8000
8000
8000
ENDCHAR
STARTCHAR 251D
ENCODING 9501
SWIDTH 1000 0
DWIDTH 28 0
BBX 15 27 13 -3
BITMAP
8000
8000
8000
8000
8000
8000
8000
8000
8000
8000
8000
8000
FFFE
FFFE
FFFE
8000
8000
8000
8000
8000
8000
8000
8000
8000
8000
8000
8000
ENDCHAR
STARTCHAR 2520
ENCODING 9504
SWIDTH 1000 0
DWIDTH 28 0
BBX 15 28 12 -3
BITMAP
E000
E000
E000
E000
E000
E000
E000
E000
E000
E000
E000
E000
E000
E000
FFFE
E000
E000
E000
E000
E000
E000
E000
E000
E000
E000
E000
E000
E000
ENDCHAR
STARTCHAR 2523
ENCODING 9507
SWIDTH 1000 0
DWIDTH 28 0
BBX 16 28 12 -3
BITMAP
E000
E000
E000
E000
E000
E000
E000
E000
E000
E000
E000
E000
E000
FFFF
FFFF
FFFF
E000
E000
E000
E000
E000
E000
E000
E000
E000
E000
E000
E000
ENDCHAR
STARTCHAR 2524
ENCODING 9508
SWIDTH 1000 0
DWIDTH 28 0
BBX 14 27 1 -3
BITMAP
0004
0004
0004
0004
0004
0004
0004
0004
0004
0004
0004
0004
0004
FFFC
0004
0004
0004
0004
0004
0004
0004
0004
0004
0004
0004
0004
0004
ENDCHAR
STARTCHAR 2525
ENCODING 9509
SWIDTH 1000 0
DWIDTH 28 0
BBX 15 27 0 -3
BITMAP
0002
0002
0002
0002
0002
0002
0002
0002
0002
0002
0002
0002
FFFE
FFFE
FFFE
0002
0002
0002
0002
0002
0002
0002
0002
0002
0002
0002
0002
ENDCHAR
STARTCHAR 2528
ENCODING 9512
SWIDTH 1000 0
DWIDTH 28 0
BBX 15 28 1 -3
BITMAP
000E
000E
000E
000E
000E
000E
000E
000E
000E
000E
000E
000E
000E
000E
FFFE
000E
000E
000E
000E
000E
000E
000E
000E
000E
000E
000E
000E
000E
ENDCHAR
STARTCHAR 252B
ENCODING 9515
SWIDTH 1000 0
DWIDTH 28 0
BBX 16 28 0 -3
BITMAP
0007
0007
0007
0007
0007
0007
0007
0007
0007
0007
0007
0007
0007
FFFF
FFFF
FFFF
0007
0007
0007
0007
0007
0007
0007
0007
0007
0007
0007
0007
ENDCHAR
STARTCHAR 252C
ENCODING 9516
SWIDTH 1000 0
DWIDTH 28 0
BBX 27 14 0 -4
BITMAP
FFFFFFE0
00040000
00040000
00040000
00040000
00040000
00040000
00040000
00040000
00040000
00040000
00040000
00040000
00040000
ENDCHAR
STARTCHAR 252F
ENCODING 9519
SWIDTH 1000 0
DWIDTH 28 0
BBX 28 15 0 -4
BITMAP
FFFFFFF0
FFFFFFF0
FFFFFFF0
00040000
00040000
00040000
00040000
00040000
00040000
00040000
00040000
00040000
00040000
00040000
00040000
ENDCHAR
STARTCHAR 2530
ENCODING 9520
SWIDTH 1000 0
DWIDTH 28 0
BBX 27 14 0 -3
BITMAP
FFFFFFE0
000E0000
000E0000
000E0000
000E0000
000E0000
000E0000
000E0000
000E0000
000E0000
000E0000
000E0000
000E0000
000E0000
ENDCHAR
STARTCHAR 2533
ENCODING 9523
SWIDTH 1000 0
DWIDTH 28 0
BBX 28 15 0 -3
BITMAP
FFFFFFF0
FFFFFFF0
FFFFFFF0
000E0000
000E0000
000E0000
000E0000
000E0000
000E0000
000E0000
000E0000
000E0000
000E0000
000E0000
000E0000
ENDCHAR
STARTCHAR 2534
ENCODING 9524
SWIDTH 1000 0
DWIDTH 28 0
BBX 27 14 0 11
BITMAP
00040000
00040000
00040000
00040000
00040000
00040000
00040000
00040000
00040000
00040000
00040000
00040000
00040000
FFFFFFE0
ENDCHAR
STARTCHAR 2537
ENCODING 9527
SWIDTH 1000 0
DWIDTH 28 0
BBX 28 15 0 10
BITMAP
00040000
00040000
00040000
00040000
00040000
00040000
00040000
00040000
00040000
00040000
00040000
00040000
FFFFFFF0
FFFFFFF0
FFFFFFF0
ENDCHAR
STARTCHAR 2538
ENCODING 9528
SWIDTH 1000 0
DWIDTH 28 0
BBX 27 15 0 10
BITMAP
000E0000
000E0000
000E0000
000E0000
000E0000
000E0000
000E0000
000E0000
000E0000
000E0000
000E0000
000E0000
000E0000
000E0000
FFFFFFE0
ENDCHAR
STARTCHAR 253B
ENCODING 9531
SWIDTH 1000 0
DWIDTH 28 0
BBX 28 16 0 9
BITMAP
000E0000
000E0000
000E0000
000E0000
000E0000
000E0000
000E0000
000E0000
000E0000
000E0000
000E0000
000E0000
000E0000
FFFFFFF0
FFFFFFF0
FFFFFFF0
ENDCHAR
STARTCHAR 253C
ENCODING 9532
SWIDTH 1000 0
DWIDTH 28 0
BBX 27 27 0 -3
BITMAP
00040000
00040000
00040000
00040000
00040000
00040000
00040000
00040000
00040000
00040000
00040000
00040000
00040000
FFFFFFE0
00040000
00040000
00040000
00040000
00040000
00040000
00040000
00040000
00040000
00040000
00040000
00040000
00040000
ENDCHAR
STARTCHAR 253F
ENCODING 9535
SWIDTH 1000 0
DWIDTH 28 0
BBX 28 27 0 -3
BITMAP
00040000
00040000
00040000
00040000
00040000
00040000
00040000
00040000
00040000
00040000
00040000
00040000
FFFFFFF0
FFFFFFF0
FFFFFFF0
00040000
00040000
00040000
00040000
00040000
00040000
00040000
00040000
00040000
00040000
00040000
00040000
ENDCHAR
STARTCHAR 2542
ENCODING 9538
SWIDTH 1000 0
DWIDTH 28 0
BBX 27 28 0 -3
BITMAP
000E0000
000E0000
000E0000
000E0000
000E0000
000E0000
000E0000
000E0000
000E0000
000E0000
000E0000
000E0000
000E0000
000E0000
FFFFFFE0
000E0000
000E0000
000E0000
000E0000
000E0000
000E0000
000E0000
000E0000
000E0000
000E0000
000E0000
000E0000
000E0000
ENDCHAR
STARTCHAR 254B
ENCODING 9547
SWIDTH 1000 0
DWIDTH 28 0
BBX 28 28 0 -3
BITMAP
000E0000
000E0000
000E0000
000E0000
000E0000
000E0000
000E0000
000E0000
000E0000
000E0000
000E0000
000E0000
000E0000
FFFFFFF0
FFFFFFF0
FFFFFFF0
000E0000
000E0000
000E0000
000E0000
000E0000
000E0000
000E0000
000E0000
000E0000
000E0000
000E0000
000E0000
ENDCHAR
STARTCHAR 25A0
ENCODING 9632
SWIDTH 1000 0
DWIDTH 28 0
BBX 20 21 4 0
BITMAP
FFFFF0
FFFFF0
FFFFF0
FFFFF0
FFFFF0
FFFFF0
FFFFF0
FFFFF0
FFFFF0
FFFFF0
FFFFF0
FFFFF0
FFFFF0
FFFFF0
FFFFF0
FFFFF0
FFFFF0
FFFFF0
FFFFF0
FFFFF0
FFFFF0
ENDCHAR
STARTCHAR 25A1
ENCODING 9633
SWIDTH 1000 0
DWIDTH 28 0
BBX 20 21 4 0
BITMAP
FFFFF0
800010
800010
800010
800010
800010
800010
800010
800010
800010
800010
800010
800010
800010
800010
800010
800010
800010
800010
800010
FFFFF0
ENDCHAR
STARTCHAR 25B1
ENCODING 9649
SWIDTH 1000 0
DWIDTH 28 0
BBX 24 11 2 5
BITMAP
0FFFFF
080003
180003
100002
300006
200004
60000C
400008
C00018
C00010
FFFFF0
ENDCHAR
STARTCHAR 25B2
ENCODING 9650
SWIDTH 1000 0
DWIDTH 28 0
BBX 22 21 3 1
BITMAP
003000
003000
007800
007800
00FC00
00FC00
01FE00
01FE00
03FF00
03FF00
07FF80
07FF80
0FFFC0
0FFFC0
1FFFE0
1FFFE0
3FFFF0
7FFFF8
7FFFF8
FFFFFC
FFFFFC
ENDCHAR
STARTCHAR 25B3
ENCODING 9651
SWIDTH 1000 0
DWIDTH 28 0
BBX 22 21 3 1
BITMAP
003000
003000
007800
004800
00CC00
008400
018600
010200
030300
020100
060180
040080
0C0040
080040
180020
100020
200010
600018
400008
C0000C
FFFFFC
ENDCHAR
STARTCHAR 25B6
ENCODING 9654
SWIDTH 1000 0
DWIDTH 28 0
BBX 22 22 3 -1
BITMAP
800000
E00000
F80000
FE0000
FF8000
FFE000
FFF000
FFFC00
FFFF00
FFFFC0
FFFFF0
FFFFFC
FFFFF0
FFFFC0
FFFF00
FFFC00
FFF000
FFC000
FF0000
FC0000
F00000
C00000
ENDCHAR
STARTCHAR 25B7
ENCODING 9655
SWIDTH 1000 0
DWIDTH 28 0
BBX 21 22 3 -1
BITMAP
800000
E00000
B80000
8E0000
838000
80C000
803000
800C00
800300
8000C0
800070
800018
800060
8001C0
800700
801C00
807000
81C000
870000
9C0000
F00000
C00000
ENDCHAR
STARTCHAR 25BC
ENCODING 9660
SWIDTH 1000 0
DWIDTH 28 0
BBX 22 21 3 -1
BITMAP
FFFFFC
FFFFFC
7FFFF8
7FFFF8
3FFFF0
1FFFE0
1FFFE0
0FFFC0
0FFFC0
07FF80
07FF80
03FF00
03FF00
01FE00
01FE00
00FC00
00FC00
007800
007800
003000
003000
ENDCHAR
STARTCHAR 25BD
ENCODING 9661
SWIDTH 1000 0
DWIDTH 28 0
BBX 22 21 3 -1
BITMAP
FFFFFC
C0000C
400008
200018
200010
100020
100020
080040
0C00C0
040080
060180
020100
030300
010200
018600
008400
00CC00
004800
007800
003000
003000
ENDCHAR
STARTCHAR 25C0
ENCODING 9664
SWIDTH 1000 0
DWIDTH 28 0
BBX 22 22 3 -1
BITMAP
000004
00001C
00007C
0001FC
0007FC
001FFC
003FFC
00FFFC
03FFFC
0FFFFC
3FFFFC
FFFFFC
3FFFFC
0FFFFC
03FFFC
00FFFC
003FFC
000FFC
0003FC
0000FC
00003C
00000C
ENDCHAR
STARTCHAR 25C1
ENCODING 9665
SWIDTH 1000 0
DWIDTH 28 0
BBX 21 22 4 -1
BITMAP
000008
000038
0000E8
000388
000E08
001808
006008
018008
060008
1C0008
700008
C00008
300008
1C0008
070008
01C008
007008
001C08
000708
0001C8
000078
000018
ENDCHAR
STARTCHAR 25C6
ENCODING 9670
SWIDTH 1000 0
DWIDTH 28 0
BBX 26 25 1 -2
BITMAP
000C0000
001E0000
003F0000
007F8000
00FFC000
01FFE000
03FFF000
07FFF800
0FFFFC00
1FFFFE00
3FFFFF00
7FFFFF80
FFFFFFC0
7FFFFF80
3FFFFF00
1FFFFE00
0FFFFC00
07FFF800
03FFF000
01FFE000
00FFC000
007F8000
003F0000
001E0000
000C0000
ENDCHAR
STARTCHAR 25C7
ENCODING 9671
SWIDTH 1000 0
DWIDTH 28 0
BBX 26 25 1 -2
BITMAP
000C0000
001E0000
00330000
00618000
00C0C000
01806000
03003000
06001800
0C000C00
18000600
30000300
60000180
C00000C0
60000180
30000300
18000600
0C000C00
06001800
03003000
01806000
00C0C000
00618000
00330000
001E0000
000C0000
ENDCHAR
STARTCHAR 25C9
ENCODING 9673
SWIDTH 1000 0
DWIDTH 28 0
BBX 24 23 2 -1
BITMAP
007E00
0381C0
040020
180010
107C08
20FF04
41FF82
43FFC2
87FFE1
87FFE1
87FFE1
87FFE1
87FFE1
87FFE1
83FFC3
41FF82
40FF06
207E04
300008
180010
040060
0381C0
007E00
ENDCHAR
STARTCHAR 25CB
ENCODING 9675
SWIDTH 1000 0
DWIDTH 28 0
BBX 24 23 2 -1
BITMAP
00FE00
0381C0
060060
180018
30000C
200004
400002
400002
800001
800001
800001
800001
800001
800001
C00003
400002
600002
200004
300008
180018
060020
0381C0
007F00
ENDCHAR
STARTCHAR 25CE
ENCODING 9678
SWIDTH 1000 0
DWIDTH 28 0
BBX 24 23 2 -1
BITMAP
007E00
0381C0
040020
180010
107C08
20C304
410182
4200C2
860061
840021
840021
840021
840021
860021
820043
410082
40C306
207E04
300008
180010
040060
0381C0
007E00
ENDCHAR
STARTCHAR 25CF
ENCODING 9679
SWIDTH 1000 0
DWIDTH 28 0
BBX 23 23 2 -1
BITMAP
00FE00
03FF80
0FFFE0
1FFFF0
3FFFF8
3FFFF8
7FFFFC
7FFFFC
FFFFFE
FFFFFE
FFFFFE
FFFFFE
FFFFFE
FFFFFE
FFFFFE
7FFFFC
7FFFFC
3FFFF8
3FFFF8
1FFFF0
0FFFE0
03FF80
00FE00
ENDCHAR
STARTCHAR 25D0
ENCODING 9680
SWIDTH 1000 0
DWIDTH 28 0
BBX 24 23 2 -1
BITMAP
007E00
03F1C0
07F020
1FF010
1FF008
3FF004
7FF002
7FF002
FFF001
FFF001
FFF001
FFF001
FFF001
FFF001
FFF003
7FF002
7FF006
3FF004
3FF008
1FF010
07F020
03F1C0
007E00
ENDCHAR
STARTCHAR 25D1
ENCODING 9681
SWIDTH 1000 0
DWIDTH 28 0
BBX 24 23 2 -1
BITMAP
007F00
038FC0
040FF0
180FF8
100FFC
200FFC
400FFE
400FFE
800FFF
800FFF
800FFF
800FFF
800FFF
800FFF
800FFF
400FFE
400FFE
200FFC
300FF8
180FF0
0C0FE0
030FC0
00FE00
ENDCHAR
STARTCHAR 25D2
ENCODING 9682
SWIDTH 1000 0
DWIDTH 28 0
BBX 24 24 2 -1
BITMAP
007E00
0381C0
060060
080010
100008
200004
600006
400002
C00002
C00003
800001
800001
FFFFFF
FFFFFF
FFFFFF
7FFFFE
7FFFFE
7FFFFC
3FFFFC
1FFFF8
0FFFF0
07FFE0
01FFC0
007E00
ENDCHAR
STARTCHAR 25D3
ENCODING 9683
SWIDTH 1000 0
DWIDTH 28 0
BBX 24 24 2 -1
BITMAP
007E00
03FFC0
07FFE0
0FFFF0
1FFFF8
3FFFFC
7FFFFE
7FFFFE
FFFFFE
FFFFFF
FFFFFF
FFFFFF
800001
800001
C00003
400002
400002
600004
200004
100008
080010
060060
0181C0
007E00
ENDCHAR
STARTCHAR 25E6
ENCODING 9702
SWIDTH 1000 0
DWIDTH 28 0
BBX 10 9 9 6
BITMAP
1E00
6180
C080
8040
8040
8040
C0C0
6180
1E00
ENDCHAR
STARTCHAR 25EF
ENCODING 9711
SWIDTH 1000 0
DWIDTH 28 0
BBX 26 25 1 -2
BITMAP
007F8000
0180E000
06001800
08000C00
10000600
20000300
60000100
40000080
40000080
80000040
80000040
80000040
80000040
80000040
80000040
80000040
40000080
40000080
20000100
30000300
18000200
0C000C00
06001800
01C0E000
007F8000
ENDCHAR
STARTCHAR 2600
ENCODING 9728
SWIDTH 1000 0
DWIDTH 28 0
BBX 27 27 0 -3
BITMAP
00040000
00040000
00040000
00040000
08040200
04000400
021F0800
013FD000
007FE000
00FFF000
01FFF800
01FFF800
01FFF800
F9FFFBE0
01FFF800
01FFF800
00FFF000
007FE000
003FC000
011F9000
02000800
04000400
08040200
00040000
00040000
00040000
00040000
ENDCHAR
STARTCHAR 2601
ENCODING 9729
SWIDTH 1000 0
DWIDTH 28 0
BBX 24 19 2 -1
BITMAP
00F800
03FE00
03FF00
07FF00
07FF80
07FF9C
07FFFE
07FFFF
1FFFFF
7FFFFF
7FFFFE
FFFFFC
FFFFFE
FFFFFF
FFEFFF
7FCFFF
7F87FF
1E03FE
0000F8
ENDCHAR
STARTCHAR 2602
ENCODING 9730
SWIDTH 1000 0
DWIDTH 28 0
BBX 25 25 2 -2
BITMAP
00080000
00080000
00FF8000
03FFE000
0FFFF800
1FFFFC00
3FFFFE00
3FFFFE00
7FFFFF00
4F1C7900
86083080
82082080
02082080
00080000
00080000
00080000
00080000
00080000
00080000
00080000
00080000
00080000
00880000
00880000
00700000
ENDCHAR
STARTCHAR 2603
ENCODING 9731
SWIDTH 1000 0
DWIDTH 28 0
BBX 26 26 1 -2
BITMAP
C0180000
4018C1C0
830120C0
05021000
02040800
00080400
70380400
30CC0B80
03031280
0200F100
04000800
04330800
64330800
62001000
011E21C0
02001140
CC000880
50000400
A00C0200
200C0200
20000200
20000200
200C0200
100C0400
0C000C00
03FFF000
ENDCHAR
STARTCHAR 2605
ENCODING 9733
SWIDTH 1000 0
DWIDTH 28 0
BBX 26 25 1 -2
BITMAP
00080000
000C0000
000C0000
000C0000
001E0000
001E0000
001E0000
003F0000
003F0000
FFFFFFC0
3FFFFF00
1FFFFE00
07FFF800
03FFF000
01FFE000
00FFC000
01FFE000
01FFE000
03FFE000
03F3F000
03E0F000
07807000
07003800
06001800
08000400
ENDCHAR
STARTCHAR 2606
ENCODING 9734
SWIDTH 1000 0
DWIDTH 28 0
BBX 26 25 1 -2
BITMAP
00080000
000C0000
000C0000
000C0000
00120000
00120000
00120000
00310000
00210000
FFE1FFC0
20000100
18000600
04000800
03003000
01806000
00804000
01002000
01002000
031C2000
02331000
02619000
06805000
07003800
06001800
08000C00
ENDCHAR
STARTCHAR 260E
ENCODING 9742
SWIDTH 1000 0
DWIDTH 28 0
BBX 26 21 1 0
BITMAP
07FFF800
1FFFFE00
3FFFFF00
7EE1DF80
78E1C780
F8E1C7C0
F8FFC7C0
01FFE000
03E1F000
07807000
07807800
07003800
0F003800
0F003C00
1F003E00
3F807F00
3F80FF00
7FE1FF80
7FFFFF80
7FFFFF80
7FFFFF80
ENDCHAR
STARTCHAR 2616
ENCODING 9750
SWIDTH 1000 0
DWIDTH 28 0
BBX 22 22 3 1
BITMAP
007800
00CC00
030300
0E00C0
180060
200010
200010
600010
600018
600008
400008
400008
400008
400008
400008
400008
C0000C
C0000C
C00004
800004
800004
FFFFFC
ENDCHAR
STARTCHAR 2617
ENCODING 9751
SWIDTH 1000 0
DWIDTH 28 0
BBX 22 22 3 1
BITMAP
007800
01FE00
03FF00
0FFFC0
3FFFF0
3FFFF0
3FFFF0
7FFFF8
7FFFF8
7FFFF8
7FFFF8
7FFFF8
7FFFF8
7FFFF8
7FFFF8
7FFFF8
FFFFFC
FFFFFC
FFFFFC
FFFFFC
FFFFFC
FFFFFC
ENDCHAR
STARTCHAR 261E
ENCODING 9758
SWIDTH 1000 0
DWIDTH 28 0
BBX 24 12 2 4
BITMAP
78F9FE
8F0601
8C0101
8816FE
886B20
978F90
900A70
881620
941920
9708C0
C8E480
301F00
ENDCHAR
STARTCHAR 2640
ENCODING 9792
SWIDTH 1000 0
DWIDTH 28 0
BBX 17 25 5 -2
BITMAP
03E000
0C1800
180C00
100400
200200
200200
200200
200200
300600
180C00
0C1800
07F000
008000
008000
008000
008000
FFFF80
008000
008000
008000
008000
008000
008000
008000
008000
ENDCHAR
STARTCHAR 2642
ENCODING 9794
SWIDTH 1000 0
DWIDTH 28 0
BBX 22 22 3 0
BITMAP
0007FC
00000C
000014
000024
000044
000084
000104
000204
000404
000800
0F9000
30E000
402000
403000
801000
801000
801000
801000
C02000
402000
30C000
0F0000
ENDCHAR
STARTCHAR 2660
ENCODING 9824
SWIDTH 1000 0
DWIDTH 28 0
BBX 20 25 4 -2
BITMAP
006000
00F000
01F800
03FC00
03FC00
07FE00
0FFF00
1FFF80
1FFFC0
3FFFC0
7FFFE0
7FFFE0
FFFFF0
FFFFF0
FFFFF0
FFFFF0
FFFFF0
FF6FF0
7F6FE0
3C63C0
006000
00F000
00F000
00F000
01F800
ENDCHAR
STARTCHAR 2661
ENCODING 9825
SWIDTH 1000 0
DWIDTH 28 0
BBX 22 23 3 -2
BITMAP
1F03E0
30CC30
407808
C0300C
803004
800004
800004
800004
800004
400008
400008
200010
200010
100020
080040
0C00C0
040080
020100
010200
018600
00CC00
007800
003000
ENDCHAR
STARTCHAR 2662
ENCODING 9826
SWIDTH 1000 0
DWIDTH 28 0
BBX 20 27 4 -3
BITMAP
006000
006000
009000
010800
030C00
060400
040200
080100
180180
3000C0
200040
400020
800030
800010
400020
600060
2000C0
100080
080100
0C0300
040600
020400
010800
019800
009000
006000
004000
ENDCHAR
STARTCHAR 2663
ENCODING 9827
SWIDTH 1000 0
DWIDTH 28 0
BBX 24 25 2 -3
BITMAP
003C00
007E00
00FF00
01FF80
01FF80
01FF80
01FF80
01FF80
00FF00
1E7E78
3FBDFC
7FFFFE
FFFFFF
FFFFFF
FFFFFF
FFFFFF
FFFFFF
7FCBFE
3F89FC
1E08F8
000800
001C00
001C00
003C00
007E00
ENDCHAR
STARTCHAR 2664
ENCODING 9828
SWIDTH 1000 0
DWIDTH 28 0
BBX 22 25 3 -2
BITMAP
003000
004800
008400
010200
020100
060180
0C00C0
180060
100020
200010
400008
400008
800004
800004
800004
800004
800004
404808
61CE18
1F4BE0
004800
004800
008400
008400
01FE00
ENDCHAR
STARTCHAR 2665
ENCODING 9829
SWIDTH 1000 0
DWIDTH 28 0
BBX 22 23 3 -2
BITMAP
1F03E0
3F87F0
7FCFF8
FFFFFC
FFFFFC
FFFFFC
FFFFFC
FFFFFC
FFFFFC
7FFFF8
7FFFF8
3FFFF0
3FFFF0
1FFFE0
0FFFC0
0FFFC0
07FF80
03FF00
01FE00
00FC00
00FC00
007800
003000
ENDCHAR
STARTCHAR 2666
ENCODING 9830
SWIDTH 1000 0
DWIDTH 28 0
BBX 20 26 4 -2
BITMAP
006000
006000
00F000
01F800
03FC00
03FC00
07FE00
0FFF00
1FFF80
3FFF80
3FFFC0
7FFFE0
FFFFF0
FFFFF0
7FFFE0
7FFFE0
3FFFC0
1FFF80
0FFF00
0FFF00
07FE00
03FC00
01F800
01F800
00F000
006000
ENDCHAR
STARTCHAR 2667
ENCODING 9831
SWIDTH 1000 0
DWIDTH 28 0
BBX 24 25 2 -3
BITMAP
003E00
00C300
010080
020040
020040
020040
020040
020040
010080
1F81F8
20C304
400002
800001
800001
800001
800001
802401
406602
20E704
1F24F8
002400
002400
004200
004200
00FF00
ENDCHAR
STARTCHAR 2668
ENCODING 9832
SWIDTH 1000 0
DWIDTH 28 0
BBX 24 21 2 2
BITMAP
001000
002040
042080
042080
042080
042080
043080
021040
021840
030860
010C20
110420
610426
810421
820441
840841
801003
402006
30001C
1C00F0
03FF80
ENDCHAR
STARTCHAR 2669
ENCODING 9833
SWIDTH 1000 0
DWIDTH 28 0
BBX 8 23 8 0
BITMAP
01
01
01
01
01
01
01
01
01
01
01
01
01
01
01
01
01
01
3F
7F
FF
FE
7C
ENDCHAR
STARTCHAR 266A
ENCODING 9834
SWIDTH 1000 0
DWIDTH 28 0
BBX 18 24 6 -1
BITMAP
010000
010000
018000
01C000
01E000
017000
013C00
010E00
010700
010380
0101C0
0100C0
0100C0
0100C0
010080
010100
010200
010400
010000
3F0000
7F0000
FF0000
FE0000
7C0000
ENDCHAR
STARTCHAR 266B
ENCODING 9835
SWIDTH 1000 0
DWIDTH 28 0
BBX 20 25 2 -1
BITMAP
0000F0
000FF0
00FFF0
01FFD0
01FC10
01C010
010010
010010
010010
010010
010010
010010
010010
010010
010010
010010
010010
0103F0
0107F0
0107F0
3F07E0
7F03C0
FF0000
FE0000
7C0000
ENDCHAR
STARTCHAR 266C
ENCODING 9836
SWIDTH 1000 0
DWIDTH 28 0
BBX 20 25 2 -1
BITMAP
0000F0
000FF0
00FFF0
01FF90
01F810
018070
0107F0
017FF0
01FFD0
01FC10
01C010
010010
010010
010010
010010
010010
010010
0103F0
0107F0
0107F0
3F07E0
7F03C0
FF0000
FE0000
7C0000
ENDCHAR
STARTCHAR 266D
ENCODING 9837
SWIDTH 1000 0
DWIDTH 28 0
BBX 10 24 10 -1
BITMAP
8000
8000
8000
8000
8000
8000
8000
8000
8000
9F00
E180
80C0
80C0
80C0
80C0
80C0
8180
8180
8300
8600
8C00
9800
A000
C000
ENDCHAR
STARTCHAR 266E
ENCODING 9838
SWIDTH 1000 0
DWIDTH 28 0
BBX 8 23 10 -1
BITMAP
80
80
80
80
80
83
9F
FF
F9
C1
81
81
81
87
FF
FD
E1
01
01
01
01
01
01
ENDCHAR
STARTCHAR 266F
ENCODING 9839
SWIDTH 1000 0
DWIDTH 28 0
BBX 18 24 5 -2
BITMAP
000800
040800
040800
040800
040800
040840
040FC0
05FF80
3FF800
FE0800
C40800
040800
040800
040800
0409C0
043FC0
0FFC00
FF8800
F40800
040800
040800
040800
040800
040000
ENDCHAR
STARTCHAR 2713
ENCODING 10003
SWIDTH 1000 0
DWIDTH 28 0
BBX 18 18 6 3
BITMAP
000040
000040
000080
000100
000200
000600
000C00
000800
001000
002000
406000
E0C000
E18000
630000
760000
3C0000
380000
100000
ENDCHAR
STARTCHAR 2756
ENCODING 10070
SWIDTH 1000 0
DWIDTH 28 0
BBX 26 25 1 -2
BITMAP
000C0000
001E0000
003F0000
007F8000
00FFC000
01FFE000
00FFC000
067F9800
0F3F3C00
1F9E7E00
3FCCFF00
7FE1FF80
FFF3FFC0
7FE1FF80
3FCCFF00
1F9E7E00
0F3F3C00
067F9800
00FFC000
01FFE000
00FFC000
007F8000
003F0000
001E0000
000C0000
ENDCHAR
STARTCHAR 2776
ENCODING 10102
SWIDTH 1000 0
DWIDTH 28 0
BBX 26 25 1 -2
BITMAP
007F0000
01FFE000
07FFF000
0FFFFC00
1FF3FE00
3F83FF00
3FF3FF00
7FF3FF80
7FF3FF80
FFF3FFC0
FFF3FFC0
FFF3FFC0
FFF3FFC0
FFF3FFC0
FFF3FFC0
FFF3FFC0
7FF3FF80
7FF3FF80
3FF3FF00
3FF3FF00
1F807E00
0FFFFC00
07FFF800
01FFE000
007F8000
ENDCHAR
STARTCHAR 2777
ENCODING 10103
SWIDTH 1000 0
DWIDTH 28 0
BBX 25 26 2 -2
BITMAP
007E0000
01FFC000
07FFE000
0FFFF000
1FC1F800
3F3C7C00
3F7E7E00
7E7F3F00
7E3F3F00
FE3F3F00
FFFE3F80
FFFE7F80
FFFCFF80
FFF9FF80
FFF3FF80
FFE7FF80
FFCFBF80
7F9FBF00
7F3FBF00
3F7F3E00
3E003E00
1E003C00
0FFFF800
07FFF000
01FFC000
007F0000
ENDCHAR
STARTCHAR 2778
ENCODING 10104
SWIDTH 1000 0
DWIDTH 28 0
BBX 26 25 1 -2
BITMAP
007F8000
01FFE000
07FFF800
0FFFFC00
1FC0FE00
3F9E7F00
7F3F3F00
7F3F3F80
7F3F3F80
FFFF3FC0
FFFE7FC0
FFE0FFC0
FFE1FFC0
FFFF3FC0
FFFF9FC0
FFFF9FC0
7E3F9F80
7E3F9F80
3E7F3F00
3F3E3F00
1FC0FE00
0FFFFC00
07FFF800
01FFE000
007F8000
ENDCHAR
STARTCHAR 2779
ENCODING 10105
SWIDTH 1000 0
DWIDTH 28 0
BBX 26 25 1 -2
BITMAP
003F8000
01FFE000
03FFF800
0FFFFC00
1FFCFE00
3FF8FF00
3FF0FF00
7FF4FF80
7FECFF80
FFDCFFC0
FF9CFFC0
FFBCFFC0
FF7CFFC0
FEFCFFC0
FDFCFFC0
FC000FC0
7FFCFF80
7FFCFF80
3FFCFF00
3FFCFF00
1FE03E00
0FFFFC00
07FFF800
01FFE000
007F8000
ENDCHAR
STARTCHAR 277A
ENCODING 10106
SWIDTH 1000 0
DWIDTH 28 0
BBX 26 25 1 -2
BITMAP
007F8000
01FFE000
07FFF800
0FFFFC00
1F803E00
3F803F00
7FBFFF00
7FBFFF80
7F3FFF80
FF3FFFC0
FF20FFC0
FF5E7FC0
FF3F3FC0
FFFF9FC0
FFFF9FC0
FFFF9FC0
7E3F9F80
7E3F9F80
3E3F3F00
3E3E3F00
1F1C7E00
0FC1FC00
07FFF800
01FFE000
007F8000
ENDCHAR
STARTCHAR 277B
ENCODING 10107
SWIDTH 1000 0
DWIDTH 28 0
BBX 26 25 1 -2
BITMAP
007F8000
01FFE000
07FFF800
0FFFFC00
1FE0FE00
3FCF3F00
7F9E3F00
7F3E3F80
7F3FFF80
FF3FFFC0
FE70FFC0
FE5E3FC0
FE3F3FC0
FE7F9FC0
FE7F9FC0
FE7F9FC0
7E7F9F80
7F3F9F80
3F3F3F00
3F9E7F00
1FE0FE00
0FFFFC00
07FFF800
01FFE000
007F8000
ENDCHAR
STARTCHAR 277C
ENCODING 10108
SWIDTH 1000 0
DWIDTH 28 0
BBX 26 26 1 -2
BITMAP
003F0000
00FFC000
03FFF000
07FFF800
0FFFFC00
1F001E00
3F001F00
7F3FBF80
7F7F7F80
7F7F7F80
FF7EFFC0
FFFEFFC0
FFFCFFC0
FFFDFFC0
FFF9FFC0
FFF9FFC0
FFF9FFC0
7FF3FF80
7FF3FF80
3FF3FF00
3FF3FF00
1FF3FE00
0FFFFC00
07FFF800
01FFE000
007F8000
ENDCHAR
STARTCHAR 277D
ENCODING 10109
SWIDTH 1000 0
DWIDTH 28 0
BBX 26 25 1 -2
BITMAP
007F8000
01FFE000
07FFF800
0FFFFC00
1FC0FE00
3F9E7F00
7F3F3F00
7F3F3F80
7F3F3F80
FF1F7FC0
FF8EFFC0
FFC1FFC0
FFE8FFC0
FFBC7FC0
FF3F3FC0
FE7F9FC0
7E7F9F80
7E7F9F80
3E3F3F00
3F1E3F00
1FC0FE00
0FFFFC00
07FFF800
01FFE000
007F8000
ENDCHAR
STARTCHAR 277E
ENCODING 10110
SWIDTH 1000 0
DWIDTH 28 0
BBX 26 25 1 -2
BITMAP
007F8000
01FFE000
07FFF800
0FFFFC00
1FE0FE00
3FDC7F00
7FBE3F00
7F7F3F80
7F7F1F80
FF7F1FC0
FF7F1FC0
FF7F1FC0
FFBF1FC0
FFDD9FC0
FFFF9FC0
FFFF1FC0
7F1F3F80
7F1F3F80
3F3E7F00
3F9CFF00
1FC1FE00
0FFFFC00
07FFF800
01FFE000
007F8000
ENDCHAR
STARTCHAR 277F
ENCODING 10111
SWIDTH 1000 0
DWIDTH 28 0
BBX 25 26 2 -2
BITMAP
007F0000
01FFC000
07FFF000
0FFFF800
1FFE3C00
30FDDE00
3CF9CE00
7CFBEF00
7CF3E700
FCF3E700
FCF3E780
FCF3E780
FCF3E780
FCF3E780
FCF3E780
FCF3E780
FCF3E780
7CFBEF00
7CF9CF00
3CFDDE00
303E3E00
1FFFFC00
0FFFF800
07FFF000
01FFC000
007F0000
ENDCHAR
STARTCHAR 2934
ENCODING 10548
SWIDTH 1000 0
DWIDTH 28 0
BBX 22 21 3 1
BITMAP
000040
0000E0
0001F0
000150
000358
00064C
000444
000040
000040
000040
000040
000040
000040
000040
000040
000040
000080
000080
000100
000600
FFF800
ENDCHAR
STARTCHAR 2935
ENCODING 10549
SWIDTH 1000 0
DWIDTH 28 0
BBX 22 21 3 -1
BITMAP
FFF800
000600
000100
000180
000080
000040
000040
000040
000040
000040
000040
000040
000040
000040
000444
00064C
000248
000358
0001F0
0000E0
000040
ENDCHAR
STARTCHAR 29BF
ENCODING 10687
SWIDTH 1000 0
DWIDTH 28 0
BBX 24 23 2 -1
BITMAP
007E00
0381C0
040020
180010
100008
200004
400002
403C02
807E01
80FF01
80FF01
80FF01
80FF01
807E01
803C03
400002
400006
200004
300008
180010
040060
0381C0
007E00
ENDCHAR
STARTCHAR 29FA
ENCODING 10746
SWIDTH 1000 0
DWIDTH 28 0
BBX 14 15 7 1
BITMAP
0840
0840
0840
0840
0840
0840
0840
FFFC
0840
0840
0840
0840
0840
0840
0840
ENDCHAR
STARTCHAR 29FB
ENCODING 10747
SWIDTH 1000 0
DWIDTH 28 0
BBX 16 15 6 1
BITMAP
1108
1108
1108
1108
1108
1108
1108
FFFF
1108
1108
1108
1108
1108
1108
1108
ENDCHAR
STARTCHAR 2E83
ENCODING 11907
SWIDTH 1000 0
DWIDTH 28 0
BBX 19 21 6 1
BITMAP
E00000
C00000
C00000
C00000
C00000
C00000
C00000
C00000
C00000
C00000
C00000
C00000
C00000
C00000
C00080
C00080
C00080
C00080
C000C0
FFFFE0
7FFFC0
ENDCHAR
STARTCHAR 2E85
ENCODING 11909
SWIDTH 1000 0
DWIDTH 28 0
BBX 15 25 5 -2
BITMAP
0008
000E
001C
0018
0030
0060
0060
00C0
01C0
03E0
02C0
04C0
08C0
10C0
60C0
C0C0
00C0
00C0
00C0
00C0
00C0
00C0
00C0
00C0
00C0
ENDCHAR
STARTCHAR 2E87
ENCODING 11911
SWIDTH 1000 0
DWIDTH 28 0
BBX 25 24 2 -2
BITMAP
10001800
1FFFFC00
18001800
18001800
18001800
18001800
18001800
18001800
18001800
18001800
18001800
18001800
18001800
18001800
18000800
30000880
30000C80
30000C80
30000C80
60000780
60000780
40000780
80000380
80000180
ENDCHAR
STARTCHAR 2E89
ENCODING 11913
SWIDTH 1000 0
DWIDTH 28 0
BBX 10 23 10 -1
BITMAP
01C0
0180
E180
C180
C180
C180
C180
C180
C180
C180
C180
C180
C180
C180
C180
C180
C180
0180
0180
0180
0180
1F80
0300
ENDCHAR
STARTCHAR 2E8E
ENCODING 11918
SWIDTH 1000 0
DWIDTH 28 0
BBX 24 22 2 -2
BITMAP
000002
000007
7FFFF8
018300
018300
018300
018300
018300
018300
018300
018300
030300
030300
030302
030302
060302
060302
0C0302
180302
3003FF
6001FF
C00000
ENDCHAR
STARTCHAR 2E8F
ENCODING 11919
SWIDTH 1000 0
DWIDTH 28 0
BBX 24 24 2 -2
BITMAP
000400
018200
03C180
0300C0
060060
0C0030
0C0038
180018
31C70C
41860C
818600
018600
018600
018600
018600
018600
038600
030602
030602
060602
0C0602
180607
6003FE
800000
ENDCHAR
STARTCHAR 2E90
ENCODING 11920
SWIDTH 1000 0
DWIDTH 28 0
BBX 23 25 2 -3
BITMAP
002000
003000
003000
003000
003000
003004
00300E
FFFFFE
003C00
003E00
003C00
003C00
007C00
006C00
006C00
006C00
00CC00
00CC00
018C04
018C04
030C04
060C06
1C0FFE
300FFE
C00000
ENDCHAR
STARTCHAR 2E92
ENCODING 11922
SWIDTH 1000 0
DWIDTH 28 0
BBX 20 22 6 0
BITMAP
800180
FFFFC0
C00180
C00180
C00180
C00180
C00180
C00180
C00180
FFFF80
C00180
C00180
C00000
C00000
C00000
C00020
C00020
C00020
C00020
C00060
FFFFF0
7FFFF0
ENDCHAR
STARTCHAR 2E93
ENCODING 11923
SWIDTH 1000 0
DWIDTH 28 0
BBX 22 22 3 1
BITMAP
003C00
003000
006000
006000
00C000
008080
6181E0
190180
0E0300
060600
030E00
018C00
019800
003000
006180
0040C0
008060
010030
020018
047FEC
FFF00C
60000C
ENDCHAR
STARTCHAR 2E94
ENCODING 11924
SWIDTH 1000 0
DWIDTH 28 0
BBX 20 22 6 1
BITMAP
1C0000
180000
180000
180000
180600
1FFF00
100600
300400
300400
300C00
200C00
200C00
600C00
600C00
7FFC00
400800
C01800
C01800
001800
001800
001820
001070
ENDCHAR
STARTCHAR 2E96
ENCODING 11926
SWIDTH 1000 0
DWIDTH 28 0
BBX 11 24 8 -1
BITMAP
0700
0600
0600
0600
0680
2640
2640
2660
6660
6620
6600
C600
C600
0600
0600
0600
0600
0600
0600
0600
0600
0600
0600
0600
ENDCHAR
STARTCHAR 2E97
ENCODING 11927
SWIDTH 1000 0
DWIDTH 28 0
BBX 25 23 2 -2
BITMAP
00E00000
00C00000
00C00000
00C00000
00C00000
00C00000
00C00000
10C41000
10C41800
10C20C00
10C30400
30C10600
30C18300
20C18300
60C0C180
60C0C180
C0C0C180
C0C0C000
00C00000
00C00000
00C00000
1FC00000
03800000
ENDCHAR
STARTCHAR 2E98
ENCODING 11928
SWIDTH 1000 0
DWIDTH 28 0
BBX 16 25 7 -1
BITMAP
01C0
0180
0180
0180
0182
0187
FFFF
0180
0180
0180
0180
0180
018F
01F8
7F80
F180
8180
0180
0180
0180
0180
0180
2180
1F80
0300
ENDCHAR
STARTCHAR 2E99
ENCODING 11929
SWIDTH 1000 0
DWIDTH 28 0
BBX 23 25 2 -2
BITMAP
018000
01C000
018000
030000
030004
02000E
07FFFE
0600C0
0E00C0
0E00C0
190180
110180
208100
60C300
404200
006600
003C00
001800
003C00
007700
00E3C0
0180F0
07007E
1C001E
E00002
ENDCHAR
STARTCHAR 2E9B
ENCODING 11931
SWIDTH 1000 0
DWIDTH 28 0
BBX 24 24 2 -2
BITMAP
000010
000038
3FFFF8
001800
001800
0C1800
181800
181800
181800
10180C
3FFFFE
303000
203C00
203E00
007C00
006C00
00EC00
00CC02
018C02
030C06
060C06
1C0FFF
7007FE
C00000
ENDCHAR
STARTCHAR 2E9E
ENCODING 11934
SWIDTH 1000 0
DWIDTH 28 0
BBX 24 25 2 -2
BITMAP
000E00
000C00
000C00
000C06
000FFF
000C00
00CC00
018C00
030C18
03FFFC
060038
0C0030
0C0060
1B00E0
21C1C0
40E180
807300
003E00
001C00
003800
006000
01C000
070000
1C0000
E00000
ENDCHAR
STARTCHAR 2E9F
ENCODING 11935
SWIDTH 1000 0
DWIDTH 28 0
BBX 26 23 1 -1
BITMAP
04001800
07FFFC00
06001800
06301800
06181800
040C1800
040C1800
04001100
0C001180
FFFFFFC0
0C001000
0C401000
0C301000
08181000
080C3000
180C3100
18003380
1FFFFF80
18003000
10003000
000C3000
0003E000
00008000
ENDCHAR
STARTCHAR 2EA0
ENCODING 11936
SWIDTH 1000 0
DWIDTH 28 0
BBX 25 24 1 -1
BITMAP
08000C00
0FFFFE00
0C000C00
0C000C00
0C000C00
0C000C00
0FFFFC00
0C040C00
0C040000
0C060000
0C060100
0C060380
0FFFFF80
0C030000
0C030000
0C010000
0C018080
0C00C080
0C00C080
0C1C6180
0DE03180
FF001D80
70000F80
40000380
ENDCHAR
STARTCHAR 2EA1
ENCODING 11937
SWIDTH 1000 0
DWIDTH 28 0
BBX 11 25 9 -2
BITMAP
2000
1800
0C00
0600
0600
0020
8020
6040
3040
1880
1980
0100
0300
0600
0600
0C00
1C00
F800
3000
1000
1000
1800
1800
1800
1800
ENDCHAR
STARTCHAR 2EA3
ENCODING 11939
SWIDTH 1000 0
DWIDTH 28 0
BBX 24 7 2 8
BITMAP
080430
088618
10830C
10C306
30C187
E0C183
C0C183
ENDCHAR
STARTCHAR 2EA4
ENCODING 11940
SWIDTH 1000 0
DWIDTH 28 0
BBX 21 13 3 6
BITMAP
000070
0007F8
007F80
3FC000
C08010
004038
406030
303060
183860
1C18C0
0C1880
0C0180
000100
ENDCHAR
STARTCHAR 2EA6
ENCODING 11942
SWIDTH 1000 0
DWIDTH 28 0
BBX 13 24 5 -1
BITMAP
0038
0030
0030
2030
1030
1830
0C30
0E30
0630
0630
0030
0030
0070
01B0
0730
3C30
F030
4030
4030
0030
0030
0030
0030
0030
ENDCHAR
STARTCHAR 2EA8
ENCODING 11944
SWIDTH 1000 0
DWIDTH 28 0
BBX 13 24 6 -1
BITMAP
0830
0438
0260
03C0
0180
0380
06C0
1840
3040
4060
00E0
00E0
01B0
0330
0630
0C30
3030
6030
8030
0030
0060
1860
07C0
0180
ENDCHAR
STARTCHAR 2EAA
ENCODING 11946
SWIDTH 1000 0
DWIDTH 28 0
BBX 17 24 5 -1
BITMAP
000300
7FFF80
000380
000600
001800
007000
006000
006000
1C6000
186000
186300
187F00
186000
186000
186000
186000
186000
186000
186380
187C00
1BE000
FE0000
700000
400000
ENDCHAR
STARTCHAR 2EAB
ENCODING 11947
SWIDTH 1000 0
DWIDTH 28 0
BBX 21 13 4 5
BITMAP
800030
FFFFF8
C30C30
C30C30
C30C30
C30C30
C30C30
C30C30
C30C30
C30C30
FFFFF0
C00030
C00030
ENDCHAR
STARTCHAR 2EAD
ENCODING 11949
SWIDTH 1000 0
DWIDTH 28 0
BBX 17 25 5 -2
BITMAP
00E000
00C000
00C000
00C000
00C200
3FFF00
000600
000C00
000C00
001800
003000
006000
00C000
01F000
02CC00
0CC700
18C380
60C180
80C000
00C000
00C000
00C000
00C000
00C000
00C000
ENDCHAR
STARTCHAR 2EB2
ENCODING 11954
SWIDTH 1000 0
DWIDTH 28 0
BBX 21 13 4 5
BITMAP
800030
FFFFF8
C30C30
C30C30
C30C30
C30C30
C30C30
C30C30
C30C30
C30C30
FFFFF0
C00030
C00030
ENDCHAR
STARTCHAR 2EB9
ENCODING 11961
SWIDTH 1000 0
DWIDTH 28 0
BBX 24 20 2 2
BITMAP
003000
003808
00301E
003018
0031B0
1FFFE0
003060
0030C0
003182
003306
0033FF
7FCC00
001800
003000
00C000
018000
030000
0C0000
300000
C00000
ENDCHAR
STARTCHAR 2EBD
ENCODING 11965
SWIDTH 1000 0
DWIDTH 28 0
BBX 21 23 4 -2
BITMAP
008000
01E000
078000
180038
E00FF0
C00030
C00030
C00030
C00030
C00030
C10030
C18030
FE0FF0
C00030
C00030
C00030
C00030
C00030
C00030
C10030
C18030
FE0FF0
C00030
ENDCHAR
STARTCHAR 2EBE
ENCODING 11966
SWIDTH 1000 0
DWIDTH 28 0
BBX 23 8 3 10
BITMAP
038380
030300
030304
030306
FFFFF8
030300
030300
030300
ENDCHAR
STARTCHAR 2EBF
ENCODING 11967
SWIDTH 1000 0
DWIDTH 28 0
BBX 24 8 2 9
BITMAP
0700E0
0600C0
0600C2
0660C3
FF87FC
0600C0
0600C0
0600C0
ENDCHAR
STARTCHAR 2EC0
ENCODING 11968
SWIDTH 1000 0
DWIDTH 28 0
BBX 24 9 2 8
BITMAP
01C1C0
018180
018182
018187
FF81FF
018180
018180
018180
018180
ENDCHAR
STARTCHAR 2EC1
ENCODING 11969
SWIDTH 1000 0
DWIDTH 28 0
BBX 25 26 1 -3
BITMAP
000C0000
000C0400
000C0600
000FFE00
000C0000
100C0100
1FFFFF00
180C0380
180C2200
180CF000
1BFF0000
180C0400
180C0600
180FFE00
18000000
18000000
1831C000
18318000
30318000
30218100
30618100
20618100
60C18100
41818380
C700FF80
88000000
ENDCHAR
STARTCHAR 2EC2
ENCODING 11970
SWIDTH 1000 0
DWIDTH 28 0
BBX 17 25 5 -2
BITMAP
00E000
00C000
00C000
00C000
00C600
3FFF00
000600
000C00
001800
003000
003300
006380
01C600
03FC00
06CC00
08C700
30C380
C0C180
00C000
00C000
00C000
00C000
00C000
00C000
00C000
ENDCHAR
STARTCHAR 2EC3
ENCODING 11971
SWIDTH 1000 0
DWIDTH 28 0
BBX 25 13 1 6
BITMAP
00000300
FFFFFF80
00630000
00630000
10630C00
1FFFFE00
18630C00
18630C00
18630C00
18630C00
1FFFFC00
18000C00
18000000
ENDCHAR
STARTCHAR 2EC4
ENCODING 11972
SWIDTH 1000 0
DWIDTH 28 0
BBX 24 24 2 -2
BITMAP
000002
000007
FFFFFF
00C600
00C600
00C600
00C600
20C60C
3FFFFE
30C60C
30C60C
30C60C
30C64C
31864C
31862C
31066C
33066C
3603EC
34000C
30000C
30000C
30000C
3FFFFC
30000C
ENDCHAR
STARTCHAR 2ECA
ENCODING 11978
SWIDTH 1000 0
DWIDTH 28 0
BBX 15 25 6 -2
BITMAP
201C
3FF8
3018
3018
3018
3018
3018
3FF8
3198
3198
0180
0188
399C
31FC
3180
3180
3180
3180
3180
318E
31F0
3F80
F800
C000
8000
ENDCHAR
STARTCHAR 2ECC
ENCODING 11980
SWIDTH 1000 0
DWIDTH 28 0
BBX 26 24 1 -2
BITMAP
20000000
18000000
0C000000
06000000
06000000
00000000
00000000
00000000
00000000
00000000
06000000
7F000000
06000000
06000000
06000000
06000000
06000000
06000000
06000000
0D000000
38C00000
F07800C0
4007FF80
40000000
ENDCHAR
STARTCHAR 2ECD
ENCODING 11981
SWIDTH 1000 0
DWIDTH 28 0
BBX 26 24 1 -1
BITMAP
18000000
0E000000
07000000
03000000
00000000
60000000
18000000
0C000000
0E000000
06000000
00000000
00000000
07000000
3E000000
06000000
06000000
06000000
06000000
06000000
0D000000
18800000
F07000C0
600FFF80
40000000
ENDCHAR
STARTCHAR 2ECF
ENCODING 11983
SWIDTH 1000 0
DWIDTH 28 0
BBX 11 24 10 -1
BITMAP
80C0
FFE0
C0C0
C180
C100
C300
C200
C200
C100
C080
C0C0
C040
C060
C060
C060
C0E0
DFC0
C3C0
C000
C000
C000
C000
C000
C000
ENDCHAR
STARTCHAR 2ED1
ENCODING 11985
SWIDTH 1000 0
DWIDTH 28 0
BBX 25 24 2 -1
BITMAP
04001800
07FFFC00
06000000
06003000
07FFF800
06000000
06000000
06003000
07FFF800
06000000
06000000
06000300
FFFFFF80
06080000
06081800
06043C00
06066000
0603C000
06018000
0604C000
06787000
1FC03C00
7C000F80
40000100
ENDCHAR
STARTCHAR 2ED2
ENCODING 11986
SWIDTH 1000 0
DWIDTH 28 0
BBX 24 25 2 -2
BITMAP
000010
040018
07FFFC
060000
060000
060060
07FFF0
060000
060000
060060
07FFF0
060000
060000
060007
FFFFFF
00E000
00C000
00C080
018040
010030
030018
023FEC
7FF80C
300006
200006
ENDCHAR
STARTCHAR 2ED6
ENCODING 11990
SWIDTH 1000 0
DWIDTH 28 0
BBX 11 24 10 -1
BITMAP
80C0
FFE0
C0C0
C180
C100
C300
C200
C200
C100
C080
C0C0
C040
C060
C060
C060
C0E0
DFC0
C3C0
C000
C000
C000
C000
C000
C000
ENDCHAR
STARTCHAR 2ED8
ENCODING 11992
SWIDTH 1000 0
DWIDTH 28 0
BBX 24 25 2 -2
BITMAP
001C00
001008
00100C
3FFFFE
001000
001030
1FFFF8
001000
001006
FFFFFF
000000
040060
07FFF0
060060
060060
07FFE0
060060
060060
07FFE0
060060
060060
060060
060860
0607E0
060080
ENDCHAR
STARTCHAR 2EDE
ENCODING 11998
SWIDTH 1000 0
DWIDTH 28 0
BBX 14 25 6 -1
BITMAP
0180
0300
03C0
0630
0C18
084C
118C
3030
5FF8
9830
1830
1830
1FF0
1830
1830
1FF0
1830
1818
1FFC
1800
1808
181C
1FE0
1800
1800
ENDCHAR
STARTCHAR 2EDF
ENCODING 11999
SWIDTH 1000 0
DWIDTH 28 0
BBX 14 26 6 -2
BITMAP
0300
0380
02C0
0670
0C18
098C
190C
3100
7FF8
9830
1830
1830
1FF0
1830
1830
1830
1FF0
1830
18C0
1860
1838
1878
1F9C
FC0C
C000
4000
ENDCHAR
STARTCHAR 2EE4
ENCODING 12004
SWIDTH 1000 0
DWIDTH 28 0
BBX 25 25 2 -1
BITMAP
00300000
00380000
00200000
10201800
1FFFFC00
18181800
18181800
18181800
1FFFF800
18181800
18181800
18181800
18181800
1FEFF800
18CC0000
008C6000
008C4000
018C9000
018C8900
030DFD00
060D0D00
0C0C0300
180C0380
6007FF00
80000000
ENDCHAR
STARTCHAR 2EE8
ENCODING 12008
SWIDTH 1000 0
DWIDTH 28 0
BBX 24 26 2 -3
BITMAP
001C00
001800
001804
00180E
3FFFF0
001800
001818
1FFFFC
001800
001802
001807
7FE7F8
00C000
00C060
01FFF0
030060
0680C0
0C6180
183300
601E00
001E00
0073C0
01C0FC
0F001F
780001
800000
ENDCHAR
STARTCHAR 2EE9
ENCODING 12009
SWIDTH 1000 0
DWIDTH 28 0
BBX 26 25 1 -1
BITMAP
00E1C000
00C18200
00C18300
3FFFFF00
00C18000
00C18000
00C18000
00C18180
FFFFFFC0
000C0000
080C0C00
0FFFFE00
0C0C0C00
0C0C0C00
0C0C0C00
0FFFFC00
0C0C0C00
0C0C0C00
0C0C0C00
0FF3FC00
00C1C000
03E03E00
0F000780
38000180
40000000
ENDCHAR
STARTCHAR 2EEB
ENCODING 12011
SWIDTH 1000 0
DWIDTH 28 0
BBX 25 26 1 -3
BITMAP
000C0000
000E0000
000C0200
000C0300
7FFFFF80
01006000
0080C000
00618000
00330000
000E0000
001F0000
0061F000
03803F80
1F003300
E3003000
03FFF000
03003000
03003000
03003000
03FFF000
02003000
06003000
04003000
0C003000
10003000
60003000
ENDCHAR
STARTCHAR 2EED
ENCODING 12013
SWIDTH 1000 0
DWIDTH 28 0
BBX 24 26 2 -2
BITMAP
000E00
070C00
060C18
060FFC
060C00
060C02
060C07
F9F3F8
401C0C
7218CE
61188C
61998C
60990C
60186C
6FFFEC
60380C
607C0C
60DB8C
6198EC
63186C
64180C
60180C
60000C
7FFFFC
60000C
60000C
ENDCHAR
STARTCHAR 2EEF
ENCODING 12015
SWIDTH 1000 0
DWIDTH 28 0
BBX 23 24 3 0
BITMAP
003800
003010
003038
7FFFF8
000200
030380
018200
018204
01840E
FE7BF0
100060
1FFFF0
183060
183060
183060
1FFFE0
183060
183060
183060
1FFFE4
183004
003004
00300E
001FFC
ENDCHAR
STARTCHAR 2EF2
ENCODING 12018
SWIDTH 1000 0
DWIDTH 28 0
BBX 25 24 2 0
BITMAP
03800000
06040000
07FE0000
0C0C0000
18101000
3FFFF800
78303000
98303000
1FFFF000
18303000
18303000
1FFFF000
20300800
3FFFFC00
20300800
20300800
3FFFF800
20300800
20300800
3FFFF900
20300900
00300300
00100380
001FFF00
ENDCHAR
STARTCHAR 2F00
ENCODING 12032
SWIDTH 1000 0
DWIDTH 28 0
BBX 24 3 2 11
BITMAP
000004
00000E
FFFFFF
ENDCHAR
STARTCHAR 2F01
ENCODING 12033
SWIDTH 1000 0
DWIDTH 28 0
BBX 3 23 13 -2
BITMAP
E0
C0
C0
C0
C0
C0
C0
C0
C0
C0
C0
C0
C0
C0
C0
C0
C0
C0
C0
C0
C0
C0
C0
ENDCHAR
STARTCHAR 2F02
ENCODING 12034
SWIDTH 1000 0
DWIDTH 28 0
BBX 9 9 9 7
BITMAP
8000
6000
3000
1C00
0E00
0700
0380
0180
0180
ENDCHAR
STARTCHAR 2F03
ENCODING 12035
SWIDTH 1000 0
DWIDTH 28 0
BBX 8 24 9 -2
BITMAP
06
07
06
06
06
06
06
06
06
06
06
06
06
06
0C
0C
0C
18
18
10
30
60
C0
80
ENDCHAR
STARTCHAR 2F04
ENCODING 12036
SWIDTH 1000 0
DWIDTH 28 0
BBX 21 21 4 1
BITMAP
000600
FFFF00
000600
000C00
001800
003000
006000
00C000
018000
030000
060000
0C0000
180000
300000
600010
600010
C00030
C00030
E00030
7FFFF8
3FFFF0
ENDCHAR
STARTCHAR 2F05
ENCODING 12037
SWIDTH 1000 0
DWIDTH 28 0
BBX 8 23 8 -2
BITMAP
06
07
06
06
06
06
06
06
06
06
06
06
06
06
06
06
06
06
06
06
06
FE
1E
ENDCHAR
STARTCHAR 2F06
ENCODING 12038
SWIDTH 1000 0
DWIDTH 28 0
BBX 24 17 2 3
BITMAP
000030
3FFFF8
000000
000000
000000
000000
000000
000000
000000
000000
000000
000000
000000
000000
000004
000006
FFFFFF
ENDCHAR
STARTCHAR 2F07
ENCODING 12039
SWIDTH 1000 0
DWIDTH 28 0
BBX 24 8 3 12
BITMAP
002000
003800
003000
003000
003000
003004
00300E
FFFFFF
ENDCHAR
STARTCHAR 2F08
ENCODING 12040
SWIDTH 1000 0
DWIDTH 28 0
BBX 25 23 2 -1
BITMAP
001C0000
00180000
00180000
00180000
00180000
00180000
00180000
00180000
00340000
00340000
00340000
00320000
00620000
00630000
00410000
00C18000
0180C000
01806000
03003000
06001C00
1C000E00
30000780
C0000100
ENDCHAR
STARTCHAR 2F09
ENCODING 12041
SWIDTH 1000 0
DWIDTH 28 0
BBX 24 21 2 -1
BITMAP
01C380
018300
018300
018300
018300
018300
018300
018300
018300
018300
018300
018300
030300
030302
030302
060302
060302
0C0302
180307
3001FF
C00000
ENDCHAR
STARTCHAR 2F0A
ENCODING 12042
SWIDTH 1000 0
DWIDTH 28 0
BBX 24 23 2 -2
BITMAP
000800
000C00
03F800
000800
000800
000800
000800
000C00
001C00
001C00
001600
003200
003300
006100
00C180
00C0C0
0180E0
030070
060038
0C001C
18000F
200007
C00000
ENDCHAR
STARTCHAR 2F0B
ENCODING 12043
SWIDTH 1000 0
DWIDTH 28 0
BBX 24 21 2 0
BITMAP
000380
007D00
000100
000100
018100
01C100
030100
030100
030080
030080
020080
060040
060040
040060
0C0030
080030
180018
30000C
20000E
400007
800003
ENDCHAR
STARTCHAR 2F0C
ENCODING 12044
SWIDTH 1000 0
DWIDTH 28 0
BBX 21 23 4 -1
BITMAP
800030
FFFFF8
C00030
C00030
C00030
C00030
C00030
C00030
C00030
C00030
C00030
C00030
C00030
C00030
C00030
C00030
C00030
C00030
C00030
C00030
C00030
C007F0
C000E0
ENDCHAR
STARTCHAR 2F0D
ENCODING 12045
SWIDTH 1000 0
DWIDTH 28 0
BBX 24 7 2 10
BITMAP
200006
3FFFFF
200007
60000C
600008
E00010
C00000
ENDCHAR
STARTCHAR 2F0E
ENCODING 12046
SWIDTH 1000 0
DWIDTH 28 0
BBX 10 22 9 0
BITMAP
C000
3000
3840
1880
1880
0100
0100
0200
0200
0400
0400
0800
0800
1000
7000
1000
1000
1800
1800
1800
1800
1800
ENDCHAR
STARTCHAR 2F0F
ENCODING 12047
SWIDTH 1000 0
DWIDTH 28 0
BBX 25 23 1 -2
BITMAP
0200C000
03FFE000
0300C000
0300C000
0300C000
0300C000
0300C000
0300C000
0300C000
0300C000
0300C000
0300C000
0300C000
0300C000
0600C100
0600C100
0600C100
0C00C100
0C00C100
1800C300
3000FF80
60007F80
C0000000
ENDCHAR
STARTCHAR 2F10
ENCODING 12048
SWIDTH 1000 0
DWIDTH 28 0
BBX 21 22 4 -1
BITMAP
E00038
C00030
C00030
C00030
C00030
C00030
C00030
C00030
C00030
C00030
C00030
C00030
C00030
C00030
C00030
C00030
C00030
C00030
C00030
FFFFF0
C00030
C00030
ENDCHAR
STARTCHAR 2F11
ENCODING 12049
SWIDTH 1000 0
DWIDTH 28 0
BBX 22 21 3 -1
BITMAP
00001C
7FFFF8
00C018
00C018
00C018
00C018
00C018
008018
018018
018010
018010
018010
030010
030030
060030
060030
0C0030
180030
302060
601FE0
C001C0
ENDCHAR
STARTCHAR 2F12
ENCODING 12050
SWIDTH 1000 0
DWIDTH 28 0
BBX 23 25 2 -2
BITMAP
002000
003800
003000
003000
003000
003000
003004
7FFFFE
003004
003004
003004
007004
006004
00600C
00600C
00C00C
00C00C
01C00C
01800C
03000C
060018
0C0818
1807F8
300070
C00000
ENDCHAR
STARTCHAR 2F13
ENCODING 12051
SWIDTH 1000 0
DWIDTH 28 0
BBX 23 25 2 -2
BITMAP
020000
038000
070000
060000
06000C
0FFFFE
0C000C
08000C
18000C
30000C
20000C
40000C
80000C
00000C
000008
000008
000018
000018
000018
000018
000030
000030
001FF0
0003E0
000180
ENDCHAR
STARTCHAR 2F14
ENCODING 12052
SWIDTH 1000 0
DWIDTH 28 0
BBX 19 22 7 -1
BITMAP
E00000
C00000
C00000
C00200
C00700
C00F80
C03800
C0F000
C1C000
C60000
F80000
C00000
C00000
C00000
C00000
C00080
C00080
C00080
C00080
C001C0
FFFFE0
7FFFC0
ENDCHAR
STARTCHAR 2F15
ENCODING 12053
SWIDTH 1000 0
DWIDTH 28 0
BBX 22 24 4 -3
BITMAP
000020
800030
FFFFC0
C00000
C00000
C00000
C00000
C00000
C00000
C00000
C00000
C00000
C00000
C00000
C00000
C00000
C00000
C00000
C00000
C00010
C00018
FFFFFC
C00000
C00000
ENDCHAR
STARTCHAR 2F16
ENCODING 12054
SWIDTH 1000 0
DWIDTH 28 0
BBX 23 21 3 1
BITMAP
000008
00000C
FFFFFE
180000
180000
180000
180000
180000
180000
180000
180000
180000
180000
180000
180000
180000
180000
180000
180000
1FFFFC
0FFFFC
ENDCHAR
STARTCHAR 2F17
ENCODING 12055
SWIDTH 1000 0
DWIDTH 28 0
BBX 25 24 2 -2
BITMAP
001C0000
00180000
00180000
00180000
00180000
00180000
00180000
00180000
00180200
00180700
FFFFFF80
00180000
00180000
00180000
00180000
00180000
00180000
00180000
00180000
00180000
00180000
00180000
00180000
00180000
ENDCHAR
STARTCHAR 2F18
ENCODING 12056
SWIDTH 1000 0
DWIDTH 28 0
BBX 12 24 11 -1
BITMAP
E000
C000
C000
C000
C000
C000
C000
C000
C000
F800
CE00
C380
C1C0
C0E0
C070
C030
C000
C000
C000
C000
C000
C000
C000
C000
ENDCHAR
STARTCHAR 2F19
ENCODING 12057
SWIDTH 1000 0
DWIDTH 28 0
BBX 13 23 8 -2
BITMAP
8030
FFF8
C030
C030
C030
C030
C030
C030
C030
C030
C030
C030
C030
C030
C030
C030
C030
C7F0
C0E0
C000
C000
C000
C000
ENDCHAR
STARTCHAR 2F1A
ENCODING 12058
SWIDTH 1000 0
DWIDTH 28 0
BBX 24 23 2 -2
BITMAP
100006
1FFFFF
180000
180000
180000
180000
180000
180000
180000
180000
180000
180000
180000
180000
300000
300000
300000
300000
200000
600000
400000
C00000
800000
ENDCHAR
STARTCHAR 2F1B
ENCODING 12059
SWIDTH 1000 0
DWIDTH 28 0
BBX 22 22 3 0
BITMAP
001800
001C00
003000
003000
003000
006000
006000
006000
00C000
00C000
008000
018000
018180
0100C0
030040
020020
020030
040018
07FFF8
FFE00C
40000C
000004
ENDCHAR
STARTCHAR 2F1C
ENCODING 12060
SWIDTH 1000 0
DWIDTH 28 0
BBX 24 23 2 -2
BITMAP
000030
7FFFF8
040070
040060
060060
0200C0
0300C0
0100C0
018180
008180
00C300
006700
002600
003C00
001800
003C00
007700
00E380
0180E0
070078
0C001F
300007
C00000
ENDCHAR
STARTCHAR 2F1D
ENCODING 12061
SWIDTH 1000 0
DWIDTH 28 0
BBX 19 21 5 0
BITMAP
8000C0
FFFFE0
C000C0
C000C0
C000C0
C000C0
C000C0
C000C0
C000C0
C000C0
C000C0
C000C0
C000C0
C000C0
C000C0
C000C0
C000C0
FFFFC0
C000C0
C000C0
C000C0
ENDCHAR
STARTCHAR 2F1E
ENCODING 12062
SWIDTH 1000 0
DWIDTH 28 0
BBX 22 24 3 -2
BITMAP
800018
FFFFFC
C00018
C00018
C00018
C00018
C00018
C00018
C00018
C00018
C00018
C00018
C00018
C00018
C00018
C00018
C00018
C00018
C00018
C00018
C00018
FFFFF8
C00018
C00018
ENDCHAR
STARTCHAR 2F1F
ENCODING 12063
SWIDTH 1000 0
DWIDTH 28 0
BBX 24 23 2 0
BITMAP
001000
001C00
001800
001800
001800
001800
001800
001808
00181C
3FFFFC
001800
001800
001800
001800
001800
001800
001800
001800
001800
001800
001802
001807
FFFFFF
ENDCHAR
STARTCHAR 2F20
ENCODING 12064
SWIDTH 1000 0
DWIDTH 28 0
BBX 24 23 2 0
BITMAP
001800
001C00
001800
001800
001800
001800
001800
001802
001807
FFFFFF
001800
001800
001800
001800
001800
001800
001800
001800
001800
001800
001808
00180C
3FFFFE
ENDCHAR
STARTCHAR 2F21
ENCODING 12065
SWIDTH 1000 0
DWIDTH 28 0
BBX 24 23 2 -1
BITMAP
007000
006000
00C000
00C000
00C060
01BFF0
0100C0
0300C0
0280C0
048180
0C4380
186300
102600
201E00
401C00
001C00
003600
006300
01C1C0
0380F0
0E003C
18000F
E00002
ENDCHAR
STARTCHAR 2F22
ENCODING 12066
SWIDTH 1000 0
DWIDTH 28 0
BBX 24 23 2 -1
BITMAP
007000
007800
006000
10C000
08C060
09BFF0
0580C0
0700C0
020180
070180
0D8300
088300
10C600
206C00
403C00
001800
003C00
00E700
01C380
0300E0
0E007C
38001F
E00002
ENDCHAR
STARTCHAR 2F23
ENCODING 12067
SWIDTH 1000 0
DWIDTH 28 0
BBX 22 25 3 -2
BITMAP
002000
007000
006000
004000
00C018
00FFFC
018038
018030
030030
060060
078060
0C60C0
183180
301980
600F00
C00E00
000E00
001C00
003800
007000
00C000
038000
0E0000
380000
400000
ENDCHAR
STARTCHAR 2F24
ENCODING 12068
SWIDTH 1000 0
DWIDTH 28 0
BBX 25 25 2 -2
BITMAP
00180000
001C0000
00180000
00180000
00180000
00180000
00180200
00180700
FFFFFF00
00180000
001C0000
003C0000
00360000
00320000
00330000
00610000
00618000
00C0C000
01C06000
03803000
07001C00
0E000F00
18000780
60000100
80000000
ENDCHAR
STARTCHAR 2F25
ENCODING 12069
SWIDTH 1000 0
DWIDTH 28 0
BBX 24 25 2 -2
BITMAP
002000
007800
006000
006000
00C000
00C002
00C007
7FBFF8
0100C0
0300C0
0300C0
060080
060180
0C0180
0E0300
19C300
183E00
000E00
000F80
0038E0
007078
01C01C
07000E
780006
800000
ENDCHAR
STARTCHAR 2F26
ENCODING 12070
SWIDTH 1000 0
DWIDTH 28 0
BBX 25 23 1 -1
BITMAP
00001800
0FFFFC00
00003800
00006000
0000C000
00030000
000E0000
000C0000
000C0000
000C0100
000C0380
FFFFFF80
000C0000
000C0000
000C0000
000C0000
000C0000
000C0000
000C0000
000C0000
030C0000
00FC0000
00180000
ENDCHAR
STARTCHAR 2F27
ENCODING 12071
SWIDTH 1000 0
DWIDTH 28 0
BBX 26 11 1 9
BITMAP
000E0000
000C0000
000C0000
000C0000
100C0180
1FFFFFC0
300001C0
30000300
70000200
E0000400
C0000000
ENDCHAR
STARTCHAR 2F28
ENCODING 12072
SWIDTH 1000 0
DWIDTH 28 0
BBX 24 24 2 -2
BITMAP
0001C0
000180
000180
000180
000180
000184
000186
FFFFFF
000180
000180
0C0180
060180
030180
018180
01C180
00C180
00C180
000180
000180
000180
000180
000180
007F80
000780
ENDCHAR
STARTCHAR 2F29
ENCODING 12073
SWIDTH 1000 0
DWIDTH 28 0
BBX 24 24 2 -1
BITMAP
001C00
001800
001800
001800
001800
001880
0E1840
0F1860
0C1830
0C1818
181818
18180C
18180E
301806
201807
601803
401803
C01803
801800
001800
001800
07F800
007800
002000
ENDCHAR
STARTCHAR 2F2A
ENCODING 12074
SWIDTH 1000 0
DWIDTH 28 0
BBX 23 25 2 -3
BITMAP
002000
003000
003000
003000
003000
003004
00300E
FFFFFE
003C00
003E00
003C00
003C00
007C00
006C00
006C00
006C00
00CC00
00CC00
018C04
018C04
030C04
060C06
1C0FFE
300FFE
C00000
ENDCHAR
STARTCHAR 2F2B
ENCODING 12075
SWIDTH 1000 0
DWIDTH 28 0
BBX 22 22 2 -1
BITMAP
100018
1FFFFC
180018
180018
180018
180018
180018
1FFFF8
180018
180000
180000
180000
180000
100000
300000
300000
300000
200000
600000
600000
400000
800000
ENDCHAR
STARTCHAR 2F2C
ENCODING 12076
SWIDTH 1000 0
DWIDTH 28 0
BBX 21 25 4 -2
BITMAP
007000
006000
006000
006000
E06038
C06030
C06030
C06030
C06030
C06030
C06030
C06030
C06030
C06030
FFFFF0
C06030
C0C030
C0C000
00C000
018000
018000
030000
060000
180000
200000
ENDCHAR
STARTCHAR 2F2D
ENCODING 12077
SWIDTH 1000 0
DWIDTH 28 0
BBX 21 24 4 -1
BITMAP
007000
006000
006000
006000
006000
E06038
C06030
C06030
C06030
C06030
C06030
C06030
C06030
C06030
C06030
C06030
C06030
C06030
C06030
C06030
FFFFF0
C00030
C00030
C00030
ENDCHAR
STARTCHAR 2F2E
ENCODING 12078
SWIDTH 1000 0
DWIDTH 28 0
BBX 21 21 3 0
BITMAP
001020
0E1C38
183030
183060
106060
3060C0
204080
608180
418100
810200
810300
408180
604080
3060C0
303060
183020
181830
081830
0C0C18
0C0C18
0C0C18
ENDCHAR
STARTCHAR 2F2F
ENCODING 12079
SWIDTH 1000 0
DWIDTH 28 0
BBX 24 21 2 0
BITMAP
000008
00000C
7FFFFE
001800
001800
001800
001800
001800
001800
001800
001800
001800
001800
001800
001800
001800
001800
001800
001802
001807
FFFFFF
ENDCHAR
STARTCHAR 2F30
ENCODING 12080
SWIDTH 1000 0
DWIDTH 28 0
BBX 21 21 4 1
BITMAP
0000C0
FFFFE0
0000C0
0000C0
0000C0
0000C0
0000C0
0000C0
2000C0
3FFFC0
3000C0
3000C0
300000
300000
300010
300010
300010
300010
300018
3FFFF8
1FFFF8
ENDCHAR
STARTCHAR 2F31
ENCODING 12081
SWIDTH 1000 0
DWIDTH 28 0
BBX 21 25 4 -3
BITMAP
007000
006000
006000
006000
006000
806030
FFFFF8
C06030
C06030
C06030
C06030
C06030
C06030
C06030
C06030
C06030
C06030
C06030
C06030
C063F0
C06060
C06000
006000
006000
006000
ENDCHAR
STARTCHAR 2F32
ENCODING 12082
SWIDTH 1000 0
DWIDTH 28 0
BBX 24 24 2 -2
BITMAP
000008
00001C
3FFFFC
001800
001800
001800
001800
001800
001800
001800
001806
FFFFFF
001800
001800
001800
001800
001800
001800
001800
001800
001800
001800
001800
001800
ENDCHAR
STARTCHAR 2F33
ENCODING 12083
SWIDTH 1000 0
DWIDTH 28 0
BBX 22 22 3 1
BITMAP
003C00
003000
006000
006000
00C000
008080
6181E0
190180
0E0300
060600
030E00
018C00
019800
003000
006180
0040C0
008060
010030
020018
047FEC
FFF00C
60000C
ENDCHAR
STARTCHAR 2F34
ENCODING 12084
SWIDTH 1000 0
DWIDTH 28 0
BBX 24 24 1 -2
BITMAP
000E00
000C00
000C00
000C02
100C03
1FF3FC
180000
180000
180000
180000
180000
180000
180000
180000
180000
180000
100000
300000
300000
300000
200000
600000
400000
C00000
ENDCHAR
STARTCHAR 2F35
ENCODING 12085
SWIDTH 1000 0
DWIDTH 28 0
BBX 25 24 1 -2
BITMAP
03000000
7F800000
03000000
02000000
06000000
04000000
0C000000
08000000
18800000
1FC00000
30800000
01800000
01800000
21800000
11000000
1B000000
0B000000
06000000
06000000
0F800000
18F80000
303FFF80
6007FF80
C0000000
ENDCHAR
STARTCHAR 2F36
ENCODING 12086
SWIDTH 1000 0
DWIDTH 28 0
BBX 24 24 2 -2
BITMAP
0180C0
01C0E0
0180C0
0180C0
0180C0
0180C0
0180C0
0180C0
0180C2
0180C7
FFFFFF
0180C0
0180C0
0180C0
0180C0
0300C0
0300C0
0300C0
0600C0
0600C0
0C00C0
1800C0
3000C0
400000
ENDCHAR
STARTCHAR 2F37
ENCODING 12087
SWIDTH 1000 0
DWIDTH 28 0
BBX 22 23 3 0
BITMAP
00E000
00C800
00C700
00C180
00C1C0
00C0C0
00C01C
00C07C
007F80
FFE000
006000
006000
002000
003000
003000
001800
000C08
000C08
000608
000308
0001C8
00007C
00003C
ENDCHAR
STARTCHAR 2F38
ENCODING 12088
SWIDTH 1000 0
DWIDTH 28 0
BBX 22 24 3 -1
BITMAP
000060
FFFFF0
000060
000060
000060
000060
100060
1FFFE0
180060
100060
300000
300000
300018
7FFFFC
600018
400018
000010
000010
000030
000030
000030
003060
000FC0
000100
ENDCHAR
STARTCHAR 2F39
ENCODING 12089
SWIDTH 1000 0
DWIDTH 28 0
BBX 22 21 3 1
BITMAP
000080
3FFFC0
000080
000080
000080
000080
000080
000080
000080
000080
3FFF80
000080
000080
000080
000080
000080
000080
000080
000088
00008C
FFFFFC
ENDCHAR
STARTCHAR 2F3A
ENCODING 12090
SWIDTH 1000 0
DWIDTH 28 0
BBX 19 24 5 -1
BITMAP
001C00
003E00
007000
00E000
038000
060000
180600
E00F00
001C00
003800
006000
01C000
030000
0C0080
3001E0
400380
000700
000E00
003800
00E000
01C000
0E0000
700000
800000
ENDCHAR
STARTCHAR 2F3B
ENCODING 12091
SWIDTH 1000 0
DWIDTH 28 0
BBX 17 25 5 -3
BITMAP
001000
001800
003C00
006000
01C000
030300
060780
180C00
601800
003000
006000
00C000
03E000
06C000
0CC000
30C000
40C000
80C000
00C000
00C000
00C000
00C000
00C000
00C000
00C000
ENDCHAR
STARTCHAR 2F3C
ENCODING 12092
SWIDTH 1000 0
DWIDTH 28 0
BBX 25 23 2 0
BITMAP
00C00000
00300000
001C0000
000E0000
00070000
00030000
00E00000
00C00000
00C02000
08C01800
08C00C00
18C00400
18C00600
10C00300
30C00300
30C02180
60C02180
E0C02180
C0C02000
00C02000
00C03000
00C07000
007FF000
ENDCHAR
STARTCHAR 2F3D
ENCODING 12093
SWIDTH 1000 0
DWIDTH 28 0
BBX 23 24 3 -1
BITMAP
00E000
00C600
00C380
00C1C0
00C0C8
00C00C
00C0FC
01FF00
FE4000
006060
006070
0060C0
002180
003380
003700
001E00
001C04
003C04
00E604
018384
0701CC
3800FC
C0007E
00001C
ENDCHAR
STARTCHAR 2F3E
ENCODING 12094
SWIDTH 1000 0
DWIDTH 28 0
BBX 23 23 2 -1
BITMAP
000006
3FFFF8
000000
000000
000000
08001C
0FFFF8
0C0018
0C0018
0C0018
0C0018
0C0018
0FFFF8
0C0018
0C0018
180000
180000
180000
300000
300000
600000
400000
800000
ENDCHAR
STARTCHAR 2F3F
ENCODING 12095
SWIDTH 1000 0
DWIDTH 28 0
BBX 26 23 1 -1
BITMAP
00007800
0003FC00
00FF0000
3F0C0000
000C0000
000C0000
000C0000
000C0600
3FFFFF00
000C0000
000C0000
000C0100
000C0380
FFFFFFC0
000C0000
000C0000
000C0000
000C0000
000C0000
000C0000
000C0000
01FC0000
003C0000
ENDCHAR
STARTCHAR 2F40
ENCODING 12096
SWIDTH 1000 0
DWIDTH 28 0
BBX 24 25 2 -3
BITMAP
001C00
001800
001800
001802
001806
FFFFFF
001800
001800
001800
001800
001830
3FFFF8
040070
020060
0100C0
018180
00C300
006700
003E00
001C00
007700
01C1E0
07007C
1C001F
E00002
ENDCHAR
STARTCHAR 2F41
ENCODING 12097
SWIDTH 1000 0
DWIDTH 28 0
BBX 23 25 3 -2
BITMAP
003000
003000
003000
003010
003018
003FFC
003000
003000
003000
003000
003070
3FCFE0
0600C0
0200C0
010180
018300
00C700
006E00
003C00
003C00
00E700
0383E0
0E007E
70001E
800000
ENDCHAR
STARTCHAR 2F42
ENCODING 12098
SWIDTH 1000 0
DWIDTH 28 0
BBX 25 24 2 -1
BITMAP
001C0000
00180000
00180000
00180200
00180700
7FE7F800
02004000
0300C000
0100C000
01818000
00818000
00430000
00630000
00360000
001E0000
001C0000
003E0000
00730000
00E1C000
0180F000
07003C00
1C000F80
60000300
80000000
ENDCHAR
STARTCHAR 2F43
ENCODING 12099
SWIDTH 1000 0
DWIDTH 28 0
BBX 23 24 3 -2
BITMAP
000380
000300
060300
038300
00C300
00E300
006300
000300
100300
0C0300
060300
070300
03030C
03030E
00037C
001F80
07E300
F80300
000300
000300
000300
000300
000300
000300
ENDCHAR
STARTCHAR 2F44
ENCODING 12100
SWIDTH 1000 0
DWIDTH 28 0
BBX 23 23 2 -1
BITMAP
0000F0
0007F8
087E00
0F8000
0C0000
0C0000
0C0000
0C0000
0C0004
0C0006
0FFFF8
0C0300
0C0300
0C0300
0C0300
180300
180300
180300
100300
300300
200300
400300
800300
ENDCHAR
STARTCHAR 2F45
ENCODING 12101
SWIDTH 1000 0
DWIDTH 28 0
BBX 24 25 2 -2
BITMAP
001C00
001800
001800
001802
001807
FFFFFF
006000
006000
006000
006000
006008
007FFC
006008
004008
00C008
00C008
00C018
018018
018018
030018
060018
0C0010
181830
3007F0
4000C0
ENDCHAR
STARTCHAR 2F46
ENCODING 12102
SWIDTH 1000 0
DWIDTH 28 0
BBX 24 22 2 -1
BITMAP
000030
1FFFC0
003000
003000
003000
003000
003000
003004
00300E
7FEFF0
006C00
006E00
006C00
00CC00
00CC00
018C00
018C02
030C02
060C02
0C0C06
380C07
E007FE
ENDCHAR
STARTCHAR 2F47
ENCODING 12103
SWIDTH 1000 0
DWIDTH 28 0
BBX 17 22 6 -1
BITMAP
800380
FFFF00
C00300
C00300
C00300
C00300
C00300
C00300
C00300
C00300
FFFF00
C00300
C00300
C00300
C00300
C00300
C00300
C00300
C00300
FFFF00
C00300
C00300
ENDCHAR
STARTCHAR 2F48
ENCODING 12104
SWIDTH 1000 0
DWIDTH 28 0
BBX 19 22 5 -1
BITMAP
8000C0
FFFFE0
C000C0
C000C0
C000C0
C000C0
C000C0
C000C0
C008C0
C01CC0
FFFCC0
C000C0
C000C0
C000C0
C000C0
C000C0
C000C0
C000C0
C000C0
FFFFC0
C000C0
C000C0
ENDCHAR
STARTCHAR 2F49
ENCODING 12105
SWIDTH 1000 0
DWIDTH 28 0
BBX 21 24 2 -1
BITMAP
040030
07FFF8
060030
060030
060030
060030
060030
07FFF0
060030
060030
060030
060030
060030
07FFF0
060030
060030
0C0030
0C0030
0C0030
180030
180030
300FF0
6000F0
C00000
ENDCHAR
STARTCHAR 2F4A
ENCODING 12106
SWIDTH 1000 0
DWIDTH 28 0
BBX 25 24 2 -1
BITMAP
001C0000
00180000
00180000
00180000
00180000
00180200
00180700
7FFFF800
003C0000
007A0000
00DB0000
00D98000
01988000
03184000
02187000
06183800
0C181C00
18180F00
20180780
40180100
80180000
00180000
00180000
00180000
ENDCHAR
STARTCHAR 2F4B
ENCODING 12107
SWIDTH 1000 0
DWIDTH 28 0
BBX 24 25 2 -2
BITMAP
018000
03C000
030000
030000
060000
060006
07FFFF
0C180E
0C180C
181818
101810
301830
603820
403400
003400
006200
006200
00C100
00C180
0180C0
030070
060038
0C001E
300006
C00000
ENDCHAR
STARTCHAR 2F4C
ENCODING 12108
SWIDTH 1000 0
DWIDTH 28 0
BBX 19 22 7 0
BITMAP
01C000
018000
018000
018000
018000
018000
C18000
E18000
C18100
C18380
C1FC00
C18000
C18000
C18000
C18000
C18000
C18000
C18000
C18000
C18000
C18040
C180E0
ENDCHAR
ENDFONT
